SplineFontDB: 3.0
FontName: Xolonium
FullName: Xolonium
FamilyName: Xolonium
Weight: Regular
Copyright: Copyright (C) 2011-2014 Severin Meyer
Version: 2.4
ItalicAngle: 0
UnderlinePosition: -75
UnderlineWidth: 60
Ascent: 800
Descent: 200
LayerCount: 2
Layer: 0 0 "Back"  1
Layer: 1 0 "Fore"  0
XUID: [1021 881 1079499186 2968987]
FSType: 0
OS2Version: 3
OS2_WeightWidthSlopeOnly: 0
OS2_UseTypoMetrics: 1
CreationTime: 1293620299
ModificationTime: 1418946602
PfmFamily: 33
TTFWeight: 400
TTFWidth: 5
LineGap: 90
VLineGap: 0
OS2TypoAscent: 0
OS2TypoAOffset: 1
OS2TypoDescent: 0
OS2TypoDOffset: 1
OS2TypoLinegap: 90
OS2WinAscent: 0
OS2WinAOffset: 1
OS2WinDescent: 0
OS2WinDOffset: 1
HheadAscent: 0
HheadAOffset: 1
HheadDescent: 0
HheadDOffset: 1
OS2Vendor: 'PfEd'
MarkAttachClasses: 1
DEI: 91125
LangName: 1033 "" "" "" "" "" "" "" "" "" "" "" "" "" "GNU General Public License, version 2 or later, with GPL Font Exception" "http://www.gnu.org/licenses/gpl-2.0" 
Encoding: UnicodeFull
UnicodeInterp: none
NameList: Adobe Glyph List
DisplaySize: -36
AntiAlias: 1
FitToEm: 1
WinInfo: 50 50 17
BeginPrivate: 10
BlueValues 21 [0 0 480 480 660 660]
OtherBlues 11 [-225 -225]
StdHW 4 [85]
StdVW 5 [150]
StemSnapH 7 [75 85]
StemSnapV 9 [140 150]
BlueScale 8 0.039625
BlueShift 1 7
BlueFuzz 1 1
ForceBold 5 false
EndPrivate
TeXData: 1 0 0 524288 262144 174762 503316 1048576 174762 783286 444596 497025 792723 393216 433062 380633 303038 157286 324010 404750 52429 2506097 1059062 262144
BeginChars: 1114113 738

StartChar: Y
Encoding: 89 89 0
Width: 890
VWidth: 0
Flags: W
HStem: 0 21G<370 520> 640 20G<20 220 670 870>
VStem: 370 150<0 310>
LayerCount: 2
Fore
SplineSet
20 660 m 1
 200 660 l 1
 445 415 l 1
 690 660 l 1
 870 660 l 1
 520 310 l 1
 520 0 l 1
 370 0 l 1
 370 310 l 1
 20 660 l 1
EndSplineSet
Validated: 1
EndChar

StartChar: E
Encoding: 69 69 1
Width: 840
VWidth: 0
Flags: W
HStem: 0 85<220 770> 325 85<220 720> 575 85<220 770>
VStem: 70 150<85 325 410 575>
LayerCount: 2
Fore
SplineSet
70 0 m 1
 70 660 l 1
 770 660 l 1
 770 575 l 1
 220 575 l 1
 220 410 l 1
 720 410 l 1
 720 325 l 1
 220 325 l 1
 220 85 l 1
 770 85 l 1
 770 0 l 1
 70 0 l 1
EndSplineSet
Validated: 1
EndChar

StartChar: N
Encoding: 78 78 2
Width: 890
VWidth: 0
Flags: W
HStem: 0 21G<70 220 642.041 820> 640 20G<70 247.959 670 820>
VStem: 70 150<0 490> 670 150<170 660>
LayerCount: 2
Fore
SplineSet
70 0 m 1
 70 660 l 1
 230 660 l 1
 670 170 l 1
 670 660 l 1
 820 660 l 1
 820 0 l 1
 660 0 l 1
 220 490 l 1
 220 0 l 1
 70 0 l 1
EndSplineSet
Validated: 1
EndChar

StartChar: W
Encoding: 87 87 3
Width: 1200
VWidth: 0
Flags: W
HStem: 0 21G<233.333 436.667 763.333 966.667> 640 20G<20 176.667 1023.33 1180>
LayerCount: 2
Fore
SplineSet
20 660 m 1
 170 660 l 1
 345 135 l 1
 510 630 l 1
 690 630 l 1
 855 135 l 1
 1030 660 l 1
 1180 660 l 1
 960 0 l 1
 770 0 l 1
 600 510 l 1
 430 0 l 1
 240 0 l 1
 20 660 l 1
EndSplineSet
Validated: 1
EndChar

StartChar: D
Encoding: 68 68 4
Width: 890
VWidth: 0
Flags: W
HStem: 0 85<220 558.672> 575 85<220 558.672>
VStem: 70 150<85 575> 670 150<191.593 468.407>
LayerCount: 2
Fore
SplineSet
70 0 m 1
 70 660 l 1
 460 660 l 2
 640 660 820 600 820 360 c 2
 820 300 l 2
 820 60 640 0 460 0 c 2
 70 0 l 1
220 85 m 1
 430 85 l 2
 550 85 670 125 670 285 c 2
 670 375 l 2
 670 535 550 575 430 575 c 2
 220 575 l 1
 220 85 l 1
EndSplineSet
Validated: 1
EndChar

StartChar: O
Encoding: 79 79 5
Width: 890
VWidth: 0
Flags: W
HStem: 0 85<222.083 667.917> 575 85<222.083 667.917>
VStem: 70 150<90.4395 569.561> 670 150<90.4395 569.561>
LayerCount: 2
Fore
SplineSet
70 135 m 2
 70 525 l 2
 70 660 190 660 310 660 c 2
 580 660 l 2
 700 660 820 660 820 525 c 2
 820 135 l 2
 820 0 700 0 580 0 c 2
 310 0 l 2
 190 0 70 0 70 135 c 2
220 120 m 2
 220 85 250 85 280 85 c 2
 610 85 l 2
 640 85 670 85 670 120 c 2
 670 540 l 2
 670 575 640 575 610 575 c 2
 280 575 l 2
 250 575 220 575 220 540 c 2
 220 120 l 2
EndSplineSet
Validated: 1
EndChar

StartChar: B
Encoding: 66 66 6
Width: 890
VWidth: 0
Flags: W
HStem: 0 85<220 667.917> 325 85<220 657.917> 575 85<220 657.917>
VStem: 70 150<85 325 410 575> 660 150<414.629 569.561> 670 150<90.4395 320.17>
LayerCount: 2
Fore
SplineSet
70 0 m 1xf4
 70 660 l 1
 570 660 l 2
 690 660 810 660 810 525 c 2
 810 470 l 2xf8
 810 410 770 380 730 370 c 1
 770 360 820 340 820 270 c 2
 820 135 l 2
 820 0 700 0 580 0 c 2
 70 0 l 1xf4
220 85 m 1
 610 85 l 2
 640 85 670 85 670 120 c 2
 670 290 l 2xf4
 670 325 640 325 610 325 c 2
 220 325 l 1
 220 85 l 1
220 410 m 1
 600 410 l 2
 630 410 660 410 660 445 c 2
 660 540 l 2xf8
 660 575 630 575 600 575 c 2
 220 575 l 1
 220 410 l 1
EndSplineSet
Validated: 1
EndChar

StartChar: S
Encoding: 83 83 7
Width: 890
VWidth: 0
Flags: W
HStem: 0 85<70 667.917> 325 85<222.083 667.917> 575 85<222.083 770>
VStem: 70 150<415.439 569.561> 670 150<90.4395 319.561>
LayerCount: 2
Fore
SplineSet
70 0 m 1
 70 85 l 1
 610 85 l 2
 640 85 670 85 670 120 c 2
 670 290 l 2
 670 325 640 325 610 325 c 2
 310 325 l 2
 190 325 70 325 70 460 c 2
 70 525 l 2
 70 660 190 660 310 660 c 2
 770 660 l 1
 770 575 l 1
 280 575 l 2
 250 575 220 575 220 540 c 2
 220 445 l 2
 220 410 250 410 280 410 c 2
 580 410 l 2
 700 410 820 410 820 275 c 2
 820 135 l 2
 820 0 700 0 580 0 c 2
 70 0 l 1
EndSplineSet
Validated: 1
EndChar

StartChar: V
Encoding: 86 86 8
Width: 890
VWidth: 0
Flags: W
HStem: 0 21G<340 550> 640 20G<20 185 705 870>
LayerCount: 2
Fore
SplineSet
20 660 m 1
 175 660 l 1
 445 120 l 1
 715 660 l 1
 870 660 l 1
 540 0 l 1
 350 0 l 1
 20 660 l 1
EndSplineSet
Validated: 1
EndChar

StartChar: F
Encoding: 70 70 9
Width: 820
VWidth: 0
Flags: W
HStem: 0 21G<70 220> 325 85<220 710> 575 85<220 770>
VStem: 70 150<0 325 410 575>
LayerCount: 2
Fore
SplineSet
70 0 m 1
 70 660 l 1
 770 660 l 1
 770 575 l 1
 220 575 l 1
 220 410 l 1
 710 410 l 1
 710 325 l 1
 220 325 l 1
 220 0 l 1
 70 0 l 1
EndSplineSet
Validated: 1
EndChar

StartChar: G
Encoding: 71 71 10
Width: 890
VWidth: 0
Flags: W
HStem: 0 85<222.083 667.917> 325 85<520 670> 575 85<222.083 770>
VStem: 70 150<90.4395 569.561> 670 150<90.4395 325>
LayerCount: 2
Fore
SplineSet
70 135 m 2
 70 525 l 2
 70 660 190 660 310 660 c 2
 770 660 l 1
 770 575 l 1
 280 575 l 2
 250 575 220 575 220 540 c 2
 220 120 l 2
 220 85 250 85 280 85 c 2
 610 85 l 2
 640 85 670 85 670 120 c 2
 670 325 l 1
 520 325 l 1
 520 410 l 1
 820 410 l 1
 820 135 l 2
 820 0 700 0 580 0 c 2
 310 0 l 2
 190 0 70 0 70 135 c 2
EndSplineSet
Validated: 1
EndChar

StartChar: U
Encoding: 85 85 11
Width: 890
VWidth: 0
Flags: W
HStem: 0 85<222.083 667.917> 640 20G<70 220 670 820>
VStem: 70 150<90.4395 660> 670 150<90.4395 660>
LayerCount: 2
Fore
SplineSet
70 135 m 2
 70 660 l 1
 220 660 l 1
 220 120 l 2
 220 85 250 85 280 85 c 2
 610 85 l 2
 640 85 670 85 670 120 c 2
 670 660 l 1
 820 660 l 1
 820 135 l 2
 820 0 700 0 580 0 c 2
 310 0 l 2
 190 0 70 0 70 135 c 2
EndSplineSet
Validated: 1
EndChar

StartChar: X
Encoding: 88 88 12
Width: 880
VWidth: 0
Flags: W
HStem: 0 21G<20 220 660 860> 640 20G<20 220 660 860>
LayerCount: 2
Fore
SplineSet
20 660 m 1
 200 660 l 1
 440 420 l 1
 680 660 l 1
 860 660 l 1
 530 330 l 1
 860 0 l 1
 680 0 l 1
 440 240 l 1
 200 0 l 1
 20 0 l 1
 350 330 l 1
 20 660 l 1
EndSplineSet
Validated: 1
EndChar

StartChar: T
Encoding: 84 84 13
Width: 890
VWidth: 0
Flags: W
HStem: 0 21G<370 520> 575 85<30 370 520 860>
VStem: 370 150<0 575>
LayerCount: 2
Fore
SplineSet
30 575 m 1
 30 660 l 1
 860 660 l 1
 860 575 l 1
 520 575 l 1
 520 0 l 1
 370 0 l 1
 370 575 l 1
 30 575 l 1
EndSplineSet
Validated: 1
EndChar

StartChar: J
Encoding: 74 74 14
Width: 890
VWidth: 0
Flags: MW
HStem: 0 85<222.083 667.917> 235 20G<70 220> 640 20G<670 820>
VStem: 70 150<90.4395 255> 670 150<90.4395 660>
LayerCount: 2
Fore
SplineSet
70 135 m 2
 70 255 l 1
 220 255 l 1
 220 120 l 2
 220 85 250 85 280 85 c 2
 610 85 l 2
 640 85 670 85 670 120 c 2
 670 660 l 1
 820 660 l 1
 820 135 l 2
 820 0 700 0 580 0 c 2
 310 0 l 2
 190 0 70 0 70 135 c 2
EndSplineSet
Validated: 1
EndChar

StartChar: R
Encoding: 82 82 15
Width: 890
VWidth: 0
Flags: W
HStem: 0 21G<70 220 660 860> 290 85<220 390 570 667.917> 575 85<220 667.917>
VStem: 70 150<0 290 375 575> 670 150<380.439 569.561>
LayerCount: 2
Fore
SplineSet
70 0 m 1
 70 660 l 1
 580 660 l 2
 700 660 820 660 820 525 c 2
 820 425 l 2
 820 290 700 290 580 290 c 2
 570 290 l 1
 860 0 l 1
 680 0 l 1
 390 290 l 1
 220 290 l 1
 220 0 l 1
 70 0 l 1
220 375 m 1
 610 375 l 2
 640 375 670 375 670 410 c 2
 670 540 l 2
 670 575 640 575 610 575 c 2
 220 575 l 1
 220 375 l 1
EndSplineSet
Validated: 1
EndChar

StartChar: K
Encoding: 75 75 16
Width: 810
VWidth: 0
Flags: W
HStem: 0 21G<70 220 590 790> 640 20G<70 220 550 750>
VStem: 70 150<0 130 310 660>
LayerCount: 2
Fore
SplineSet
70 0 m 1
 70 660 l 1
 220 660 l 1
 220 310 l 1
 570 660 l 1
 750 660 l 1
 440 350 l 1
 790 0 l 1
 610 0 l 1
 350 260 l 1
 220 130 l 1
 220 0 l 1
 70 0 l 1
EndSplineSet
Validated: 1
EndChar

StartChar: H
Encoding: 72 72 17
Width: 890
VWidth: 0
Flags: W
HStem: 0 21G<70 220 670 820> 325 85<220 670> 640 20G<70 220 670 820>
VStem: 70 150<0 325 410 660> 670 150<0 325 410 660>
LayerCount: 2
Fore
SplineSet
70 0 m 1
 70 660 l 1
 220 660 l 1
 220 410 l 1
 670 410 l 1
 670 660 l 1
 820 660 l 1
 820 0 l 1
 670 0 l 1
 670 325 l 1
 220 325 l 1
 220 0 l 1
 70 0 l 1
EndSplineSet
Validated: 1
EndChar

StartChar: I
Encoding: 73 73 18
Width: 290
VWidth: 0
Flags: W
HStem: 0 21G<70 220> 640 20G<70 220>
VStem: 70 150<0 660>
LayerCount: 2
Fore
SplineSet
70 0 m 1
 70 660 l 1
 220 660 l 1
 220 0 l 1
 70 0 l 1
EndSplineSet
Validated: 1
EndChar

StartChar: C
Encoding: 67 67 19
Width: 840
VWidth: 0
Flags: W
HStem: 0 85<222.083 770> 575 85<222.083 770>
VStem: 70 150<90.4395 569.561>
LayerCount: 2
Fore
SplineSet
70 135 m 2
 70 525 l 2
 70 660 190 660 310 660 c 2
 770 660 l 1
 770 575 l 1
 280 575 l 2
 250 575 220 575 220 540 c 2
 220 120 l 2
 220 85 250 85 280 85 c 2
 770 85 l 1
 770 0 l 1
 310 0 l 2
 190 0 70 0 70 135 c 2
EndSplineSet
Validated: 1
EndChar

StartChar: P
Encoding: 80 80 20
Width: 890
VWidth: 0
Flags: W
HStem: 0 21G<70 220> 270 85<220 667.917> 575 85<220 667.917>
VStem: 70 150<0 270 355 575> 670 150<360.439 569.561>
LayerCount: 2
Fore
SplineSet
70 0 m 1
 70 660 l 1
 580 660 l 2
 700 660 820 660 820 525 c 2
 820 405 l 2
 820 270 700 270 580 270 c 2
 220 270 l 1
 220 0 l 1
 70 0 l 1
220 355 m 1
 610 355 l 2
 640 355 670 355 670 390 c 2
 670 540 l 2
 670 575 640 575 610 575 c 2
 220 575 l 1
 220 355 l 1
EndSplineSet
Validated: 1
EndChar

StartChar: Q
Encoding: 81 81 21
Width: 890
VWidth: 0
Flags: MW
HStem: -150 21G<530 730> 0 85<222.083 400 580 667.917> 575 85<222.083 667.917>
VStem: 70 150<90.4395 569.561> 670 150<90.4395 569.561>
LayerCount: 2
Fore
SplineSet
70 135 m 2
 70 525 l 2
 70 660 190 660 310 660 c 2
 580 660 l 2
 700 660 820 660 820 525 c 2
 820 135 l 2
 820 0 700 0 580 0 c 1
 730 -150 l 1
 550 -150 l 1
 400 0 l 1
 310 0 l 2
 190 0 70 0 70 135 c 2
220 120 m 2
 220 85 250 85 280 85 c 2
 610 85 l 2
 640 85 670 85 670 120 c 2
 670 540 l 2
 670 575 640 575 610 575 c 2
 280 575 l 2
 250 575 220 575 220 540 c 2
 220 120 l 2
EndSplineSet
Validated: 1
EndChar

StartChar: Z
Encoding: 90 90 22
Width: 850
VWidth: 0
Flags: MW
HStem: 0 85<245 800> 575 85<70 585>
VStem: 50 730
LayerCount: 2
Fore
SplineSet
50 0 m 1
 50 85 l 1
 585 575 l 1
 70 575 l 1
 70 660 l 1
 780 660 l 1
 780 575 l 1
 245 85 l 1
 800 85 l 1
 800 0 l 1
 50 0 l 1
EndSplineSet
Validated: 1
EndChar

StartChar: M
Encoding: 77 77 23
Width: 1050
VWidth: 0
Flags: W
HStem: 0 21G<70 220 455 595 830 980> 640 20G<70 280 770 980>
VStem: 70 150<0 490> 830 150<0 490>
LayerCount: 2
Fore
SplineSet
70 0 m 1
 70 660 l 1
 270 660 l 1
 525 150 l 1
 780 660 l 1
 980 660 l 1
 980 0 l 1
 830 0 l 1
 830 490 l 1
 585 0 l 1
 465 0 l 1
 220 490 l 1
 220 0 l 1
 70 0 l 1
EndSplineSet
Validated: 1
EndChar

StartChar: L
Encoding: 76 76 24
Width: 800
VWidth: 0
Flags: MW
HStem: 0 85<220 770> 640 20G<70 220>
VStem: 70 150<85 660> 750 20G
LayerCount: 2
Fore
SplineSet
70 0 m 1
 70 660 l 1
 220 660 l 1
 220 85 l 1
 770 85 l 1
 770 0 l 1
 70 0 l 1
EndSplineSet
Validated: 1
EndChar

StartChar: A
Encoding: 65 65 25
Width: 890
VWidth: 0
Flags: W
HStem: 0 21G<20 180 710 870> 210 80<315 575> 640 20G<340 550>
LayerCount: 2
Fore
SplineSet
20 0 m 1
 350 660 l 1
 540 660 l 1
 870 0 l 1
 720 0 l 1
 615 210 l 1
 275 210 l 1
 170 0 l 1
 20 0 l 1
315 290 m 1
 575 290 l 1
 445 550 l 1
 315 290 l 1
EndSplineSet
Validated: 1
EndChar

StartChar: three
Encoding: 51 51 26
Width: 870
VWidth: 0
Flags: W
HStem: 0 85<90 657.917> 325 85<180 657.917> 575 85<90 657.917>
VStem: 660 150<90.4395 321.395 414.629 569.561>
LayerCount: 2
Fore
SplineSet
90 0 m 1
 90 85 l 1
 600 85 l 2
 630 85 660 85 660 120 c 2
 660 290 l 2
 660 325 630 325 600 325 c 2
 180 325 l 1
 180 410 l 1
 600 410 l 2
 630 410 660 410 660 445 c 2
 660 540 l 2
 660 575 630 575 600 575 c 2
 90 575 l 1
 90 660 l 1
 570 660 l 2
 690 660 810 660 810 525 c 2
 810 470 l 2
 810 410 770 380 730 370 c 1
 770 360 810 330 810 270 c 2
 810 135 l 2
 810 0 690 0 570 0 c 2
 90 0 l 1
EndSplineSet
EndChar

StartChar: one
Encoding: 49 49 27
Width: 870
VWidth: 0
Flags: MW
HStem: 0 21G<500 650> 575 85<280 500>
VStem: 280 21G 500 150<0 575>
LayerCount: 2
Fore
SplineSet
650 660 m 1
 650 0 l 1
 500 0 l 1
 500 575 l 1
 280 575 l 1
 280 660 l 1
 650 660 l 1
EndSplineSet
Validated: 1
EndChar

StartChar: six
Encoding: 54 54 28
Width: 870
VWidth: 0
Flags: W
HStem: 0 85<212.083 657.917> 325 85<212.083 657.917> 575 85<237.188 760>
VStem: 60 150<90.4395 321.395 410 546.967> 660 150<90.4395 319.561>
LayerCount: 2
Fore
SplineSet
60 135 m 2
 60 500 l 2
 60 660 200 660 340 660 c 2
 760 660 l 1
 760 575 l 1
 350 575 l 2
 280 575 210 575 210 495 c 2
 210 410 l 1
 570 410 l 2
 690 410 810 410 810 275 c 2
 810 135 l 2
 810 0 690 0 570 0 c 2
 300 0 l 2
 180 0 60 0 60 135 c 2
210 120 m 2
 210 85 240 85 270 85 c 2
 600 85 l 2
 630 85 660 85 660 120 c 2
 660 290 l 2
 660 325 630 325 600 325 c 2
 270 325 l 2
 240 325 210 325 210 290 c 2
 210 120 l 2
EndSplineSet
Validated: 1
EndChar

StartChar: nine
Encoding: 57 57 29
Width: 870
VWidth: 0
Flags: W
HStem: 0 85<100 632.812> 325 85<212.083 657.917> 575 85<212.083 657.917>
VStem: 60 150<415.439 569.561> 660 150<113.033 325 413.605 569.561>
LayerCount: 2
Fore
SplineSet
60 460 m 2
 60 525 l 2
 60 660 180 660 300 660 c 2
 570 660 l 2
 690 660 810 660 810 525 c 2
 810 160 l 2
 810 0 670 0 530 0 c 2
 100 0 l 1
 100 85 l 1
 520 85 l 2
 590 85 660 85 660 165 c 2
 660 325 l 1
 300 325 l 2
 180 325 60 325 60 460 c 2
210 445 m 2
 210 410 240 410 270 410 c 2
 600 410 l 2
 630 410 660 410 660 445 c 2
 660 540 l 2
 660 575 630 575 600 575 c 2
 270 575 l 2
 240 575 210 575 210 540 c 2
 210 445 l 2
EndSplineSet
Validated: 1
EndChar

StartChar: eight
Encoding: 56 56 30
Width: 870
VWidth: 0
Flags: W
HStem: 0 85<212.083 657.917> 325 85<212.083 657.917> 575 85<212.083 657.917>
VStem: 60 150<90.4395 321.395 414.629 569.561> 660 150<90.4395 321.395 414.629 569.561>
LayerCount: 2
Fore
SplineSet
60 135 m 2
 60 270 l 2
 60 330 100 360 140 370 c 1
 100 380 60 410 60 470 c 2
 60 525 l 2
 60 660 180 660 300 660 c 2
 570 660 l 2
 690 660 810 660 810 525 c 2
 810 470 l 2
 810 410 770 380 730 370 c 1
 770 360 810 330 810 270 c 2
 810 135 l 2
 810 0 690 0 570 0 c 2
 300 0 l 2
 180 0 60 0 60 135 c 2
210 120 m 2
 210 85 240 85 270 85 c 2
 600 85 l 2
 630 85 660 85 660 120 c 2
 660 290 l 2
 660 325 630 325 600 325 c 2
 270 325 l 2
 240 325 210 325 210 290 c 2
 210 120 l 2
210 445 m 2
 210 410 240 410 270 410 c 2
 600 410 l 2
 630 410 660 410 660 445 c 2
 660 540 l 2
 660 575 630 575 600 575 c 2
 270 575 l 2
 240 575 210 575 210 540 c 2
 210 445 l 2
EndSplineSet
Validated: 1
EndChar

StartChar: zero
Encoding: 48 48 31
Width: 870
VWidth: 0
Flags: W
HStem: 0 85<212.083 657.917> 575 85<212.083 657.917>
VStem: 60 150<90.4395 569.561> 660 150<90.4395 569.561>
LayerCount: 2
Fore
SplineSet
60 135 m 2
 60 525 l 2
 60 660 180 660 300 660 c 2
 570 660 l 2
 690 660 810 660 810 525 c 2
 810 135 l 2
 810 0 690 0 570 0 c 2
 300 0 l 2
 180 0 60 0 60 135 c 2
210 120 m 2
 210 85 240 85 270 85 c 2
 600 85 l 2
 630 85 660 85 660 120 c 2
 660 540 l 2
 660 575 630 575 600 575 c 2
 270 575 l 2
 240 575 210 575 210 540 c 2
 210 120 l 2
EndSplineSet
Validated: 1
EndChar

StartChar: five
Encoding: 53 53 32
Width: 870
VWidth: 0
Flags: W
HStem: 0 85<60 657.917> 325 85<210 657.917> 575 85<210 760>
VStem: 60 150<410 575> 660 150<90.4395 319.561>
LayerCount: 2
Fore
SplineSet
60 0 m 1
 60 85 l 1
 600 85 l 2
 630 85 660 85 660 120 c 2
 660 290 l 2
 660 325 630 325 600 325 c 2
 60 325 l 1
 60 660 l 1
 760 660 l 1
 760 575 l 1
 210 575 l 1
 210 410 l 1
 570 410 l 2
 690 410 810 410 810 275 c 2
 810 135 l 2
 810 0 690 0 570 0 c 2
 60 0 l 1
EndSplineSet
Validated: 1
EndChar

StartChar: two
Encoding: 50 50 33
Width: 870
VWidth: 0
Flags: W
HStem: 0 85<210 810> 325 85<212.083 657.917> 575 85<110 657.917>
VStem: 60 150<85 319.561> 660 150<415.439 569.561>
LayerCount: 2
Fore
SplineSet
60 0 m 1
 60 275 l 2
 60 410 180 410 300 410 c 2
 600 410 l 2
 630 410 660 410 660 445 c 2
 660 540 l 2
 660 575 630 575 600 575 c 2
 110 575 l 1
 110 660 l 1
 570 660 l 2
 690 660 810 660 810 525 c 2
 810 460 l 2
 810 325 690 325 570 325 c 2
 270 325 l 2
 240 325 210 325 210 290 c 2
 210 85 l 1
 810 85 l 1
 810 0 l 1
 60 0 l 1
EndSplineSet
Validated: 1
EndChar

StartChar: four
Encoding: 52 52 34
Width: 870
VWidth: 0
Flags: MW
HStem: 0 21G<660 810> 155 85<255 660> 640 20G<574.286 810>
VStem: 60 21G 660 150<0 155 240 555>
LayerCount: 2
Fore
SplineSet
60 155 m 1
 60 240 l 1
 600 660 l 1
 810 660 l 1
 810 0 l 1
 660 0 l 1
 660 155 l 1
 60 155 l 1
255 240 m 1
 660 240 l 1
 660 555 l 1
 255 240 l 1
EndSplineSet
EndChar

StartChar: seven
Encoding: 55 55 35
Width: 870
VWidth: 0
Flags: MW
HStem: 0 21G<260 443.217> 575 85<60 640>
VStem: 60 750
LayerCount: 2
Fore
SplineSet
60 575 m 1
 60 660 l 1
 810 660 l 1
 810 575 l 1
 430 0 l 1
 260 0 l 1
 640 575 l 1
 60 575 l 1
EndSplineSet
Validated: 1
EndChar

StartChar: r
Encoding: 114 114 36
Width: 460
VWidth: 0
Flags: W
HStem: 0 21G<60 200> 405 75<204.409 400>
VStem: 60 140<0 402.959>
LayerCount: 2
Fore
SplineSet
60 0 m 1
 60 365 l 2
 60 480 160 480 260 480 c 2
 400 480 l 1
 400 405 l 1
 250 405 l 2
 225 405 200 405 200 375 c 2
 200 0 l 1
 60 0 l 1
EndSplineSet
Validated: 1
EndChar

StartChar: c
Encoding: 99 99 37
Width: 660
VWidth: 0
Flags: W
HStem: 0 75<204.409 600> 405 75<204.409 600>
VStem: 60 140<77.041 402.959>
LayerCount: 2
Fore
SplineSet
60 115 m 2
 60 365 l 2
 60 480 160 480 260 480 c 2
 600 480 l 1
 600 405 l 1
 250 405 l 2
 225 405 200 405 200 375 c 2
 200 105 l 2
 200 75 225 75 250 75 c 2
 600 75 l 1
 600 0 l 1
 260 0 l 2
 160 0 60 0 60 115 c 2
EndSplineSet
Validated: 1
EndChar

StartChar: i
Encoding: 105 105 38
Width: 260
VWidth: 0
Flags: W
HStem: 0 21G<60 200> 460 20G<60 200> 560 100<60 200>
VStem: 60 140<0 480 560 660>
LayerCount: 2
Fore
SplineSet
60 0 m 1
 60 480 l 1
 200 480 l 1
 200 0 l 1
 60 0 l 1
60 560 m 1
 60 660 l 1
 200 660 l 1
 200 560 l 1
 60 560 l 1
EndSplineSet
Validated: 1
EndChar

StartChar: x
Encoding: 120 120 39
Width: 680
VWidth: 0
Flags: W
HStem: 0 21G<20 200 480 660> 460 20G<20 200 480 660>
LayerCount: 2
Fore
SplineSet
20 0 m 1
 260 240 l 1
 20 480 l 1
 180 480 l 1
 340 320 l 1
 500 480 l 1
 660 480 l 1
 420 240 l 1
 660 0 l 1
 500 0 l 1
 340 160 l 1
 180 0 l 1
 20 0 l 1
EndSplineSet
Validated: 1
EndChar

StartChar: d
Encoding: 100 100 40
Width: 700
VWidth: 0
Flags: W
HStem: 0 75<204.409 500> 405 75<204.409 500> 640 20G<500 640>
VStem: 60 140<77.041 402.959> 500 140<75 405 480 660>
LayerCount: 2
Fore
SplineSet
60 115 m 2
 60 365 l 2
 60 480 160 480 260 480 c 2
 500 480 l 1
 500 660 l 1
 640 660 l 1
 640 0 l 1
 260 0 l 2
 160 0 60 0 60 115 c 2
200 105 m 2
 200 75 225 75 250 75 c 2
 500 75 l 1
 500 405 l 1
 250 405 l 2
 225 405 200 405 200 375 c 2
 200 105 l 2
EndSplineSet
Validated: 1
EndChar

StartChar: l
Encoding: 108 108 41
Width: 260
VWidth: 0
Flags: W
HStem: 0 21G<60 200> 640 20G<60 200>
VStem: 60 140<0 660>
LayerCount: 2
Fore
SplineSet
60 0 m 1
 60 660 l 1
 200 660 l 1
 200 0 l 1
 60 0 l 1
EndSplineSet
Validated: 1
EndChar

StartChar: z
Encoding: 122 122 42
Width: 680
VWidth: 0
Flags: MW
HStem: 0 75<225 630> 405 75<70 435>
VStem: 50 560
LayerCount: 2
Fore
SplineSet
50 0 m 1
 50 75 l 1
 435 405 l 1
 70 405 l 1
 70 480 l 1
 610 480 l 1
 610 405 l 1
 225 75 l 1
 630 75 l 1
 630 0 l 1
 50 0 l 1
EndSplineSet
Validated: 1
EndChar

StartChar: k
Encoding: 107 107 43
Width: 640
VWidth: 0
Flags: W
HStem: 0 21G<60 200 440 620> 460 20G<420 600> 640 20G<60 200>
VStem: 60 140<0 80 240 660>
LayerCount: 2
Fore
SplineSet
60 0 m 1
 60 660 l 1
 200 660 l 1
 200 240 l 1
 440 480 l 1
 600 480 l 1
 370 250 l 1
 620 0 l 1
 460 0 l 1
 290 170 l 1
 200 80 l 1
 200 0 l 1
 60 0 l 1
EndSplineSet
Validated: 1
EndChar

StartChar: q
Encoding: 113 113 44
Width: 700
VWidth: 0
Flags: W
HStem: -225 21G<500 640> 0 75<204.409 500> 405 75<204.409 500>
VStem: 60 140<77.041 402.959> 500 140<-225 0 75 405>
LayerCount: 2
Fore
SplineSet
60 115 m 2
 60 365 l 2
 60 480 160 480 260 480 c 2
 640 480 l 1
 640 -225 l 1
 500 -225 l 1
 500 0 l 1
 260 0 l 2
 160 0 60 0 60 115 c 2
200 105 m 2
 200 75 225 75 250 75 c 2
 500 75 l 1
 500 405 l 1
 250 405 l 2
 225 405 200 405 200 375 c 2
 200 105 l 2
EndSplineSet
Validated: 1
EndChar

StartChar: v
Encoding: 118 118 45
Width: 680
VWidth: 0
Flags: W
HStem: 0 21G<250 430> 460 20G<20 170 510 660>
LayerCount: 2
Fore
SplineSet
20 480 m 1
 160 480 l 1
 340 120 l 1
 520 480 l 1
 660 480 l 1
 420 0 l 1
 260 0 l 1
 20 480 l 1
EndSplineSet
Validated: 1
EndChar

StartChar: e
Encoding: 101 101 46
Width: 700
VWidth: 0
Flags: W
HStem: 0 75<204.409 620> 225 75<200 500> 405 75<204.409 495.591>
VStem: 60 140<77.041 225 300 402.959> 500 140<300 402.959>
LayerCount: 2
Fore
SplineSet
60 115 m 2
 60 365 l 2
 60 480 160 480 260 480 c 2
 440 480 l 2
 540 480 640 480 640 365 c 2
 640 225 l 1
 200 225 l 1
 200 105 l 2
 200 75 225 75 250 75 c 2
 620 75 l 1
 620 0 l 1
 260 0 l 2
 160 0 60 0 60 115 c 2
200 300 m 1
 500 300 l 1
 500 375 l 2
 500 405 475 405 450 405 c 2
 250 405 l 2
 225 405 200 405 200 375 c 2
 200 300 l 1
EndSplineSet
Validated: 1
EndChar

StartChar: w
Encoding: 119 119 47
Width: 880
VWidth: 0
Flags: W
HStem: 0 21G<173.333 336.667 543.333 706.667> 460 20G<20 156.667 723.333 860>
LayerCount: 2
Fore
SplineSet
20 480 m 1
 150 480 l 1
 265 135 l 1
 370 450 l 1
 510 450 l 1
 615 135 l 1
 730 480 l 1
 860 480 l 1
 700 0 l 1
 550 0 l 1
 440 330 l 1
 330 0 l 1
 180 0 l 1
 20 480 l 1
EndSplineSet
Validated: 1
EndChar

StartChar: n
Encoding: 110 110 48
Width: 700
VWidth: 0
Flags: W
HStem: 0 21G<60 200 500 640> 405 75<200 495.591>
VStem: 60 140<0 405> 500 140<0 402.959>
LayerCount: 2
Fore
SplineSet
60 0 m 1
 60 480 l 1
 440 480 l 2
 540 480 640 480 640 365 c 2
 640 0 l 1
 500 0 l 1
 500 375 l 2
 500 405 475 405 450 405 c 2
 200 405 l 1
 200 0 l 1
 60 0 l 1
EndSplineSet
Validated: 1
EndChar

StartChar: s
Encoding: 115 115 49
Width: 700
VWidth: 0
Flags: W
HStem: 0 75<60 495.591> 225 75<204.409 495.591> 405 75<204.409 600>
VStem: 60 140<302.041 402.959> 500 140<77.041 222.959>
LayerCount: 2
Fore
SplineSet
60 0 m 1
 60 75 l 1
 450 75 l 2
 475 75 500 75 500 105 c 2
 500 195 l 2
 500 225 475 225 450 225 c 2
 260 225 l 2
 160 225 60 225 60 340 c 2
 60 365 l 2
 60 480 160 480 260 480 c 2
 600 480 l 1
 600 405 l 1
 250 405 l 2
 225 405 200 405 200 375 c 2
 200 330 l 2
 200 300 225 300 250 300 c 2
 440 300 l 2
 540 300 640 300 640 185 c 2
 640 115 l 2
 640 0 540 0 440 0 c 2
 60 0 l 1
EndSplineSet
Validated: 1
EndChar

StartChar: g
Encoding: 103 103 50
Width: 700
VWidth: 0
Flags: W
HStem: -225 75<80 495.591> 0 75<204.409 500> 405 75<204.409 500>
VStem: 60 140<77.041 402.959> 500 140<-146.654 0 75 405>
LayerCount: 2
Fore
SplineSet
60 115 m 2
 60 365 l 2
 60 480 160 480 260 480 c 2
 640 480 l 1
 640 -125 l 2
 640 -225 540 -225 440 -225 c 2
 80 -225 l 1
 80 -150 l 1
 450 -150 l 2
 475 -150 500 -150 500 -125 c 2
 500 0 l 1
 260 0 l 2
 160 0 60 0 60 115 c 2
200 105 m 2
 200 75 225 75 250 75 c 2
 500 75 l 1
 500 405 l 1
 250 405 l 2
 225 405 200 405 200 375 c 2
 200 105 l 2
EndSplineSet
Validated: 1
EndChar

StartChar: m
Encoding: 109 109 51
Width: 900
VWidth: 0
Flags: MW
HStem: 0 21G<60 200 380 520 700 840> 405 75<200 379.135 520 695.591>
VStem: 60 320 60 140<0 405> 380 320 380 140<0 402.989> 700 140<0 402.959>
CounterMasks: 1 16
LayerCount: 2
Fore
SplineSet
60 0 m 1x20
 60 480 l 1
 640 480 l 2
 740 480 840 480 840 365 c 2
 840 0 l 1
 700 0 l 1
 700 375 l 2
 700 405 675 405 650 405 c 2
 520 405 l 1
 520 0 l 1
 380 0 l 1x08
 380 375 l 2
 380 405 355 405 330 405 c 2
 200 405 l 1
 200 0 l 1
 60 0 l 1x20
EndSplineSet
Validated: 1
EndChar

StartChar: p
Encoding: 112 112 52
Width: 700
VWidth: 0
Flags: W
HStem: -225 21G<60 200> 0 75<200 495.591> 405 75<200 495.591>
VStem: 60 140<-225 0 75 405> 500 140<77.041 402.959>
LayerCount: 2
Fore
SplineSet
60 -225 m 1
 60 480 l 1
 440 480 l 2
 540 480 640 480 640 365 c 2
 640 115 l 2
 640 0 540 0 440 0 c 2
 200 0 l 1
 200 -225 l 1
 60 -225 l 1
200 75 m 1
 450 75 l 2
 475 75 500 75 500 105 c 2
 500 375 l 2
 500 405 475 405 450 405 c 2
 200 405 l 1
 200 75 l 1
EndSplineSet
Validated: 1
EndChar

StartChar: j
Encoding: 106 106 53
Width: 260
VWidth: 0
Flags: MW
HStem: -225 75<-50 3.54134> 460 20G<60 200> 560 100<60 200>
VStem: -50 21G 60 140<-94.1748 480 560 660>
LayerCount: 2
Fore
SplineSet
-50 -150 m 1
 30 -130 60 -90 60 0 c 2
 60 480 l 1
 200 480 l 1
 200 0 l 2
 200 -200 50 -215 -50 -225 c 1
 -50 -150 l 1
60 560 m 1
 60 660 l 1
 200 660 l 1
 200 560 l 1
 60 560 l 1
EndSplineSet
Validated: 1
EndChar

StartChar: a
Encoding: 97 97 54
Width: 700
VWidth: 0
Flags: W
HStem: 0 75<204.409 500> 225 75<204.409 500> 405 75<100 495.591>
VStem: 60 140<77.041 222.959> 500 140<75 225 300 402.959>
LayerCount: 2
Fore
SplineSet
60 115 m 2
 60 185 l 2
 60 300 160 300 260 300 c 2
 500 300 l 1
 500 375 l 2
 500 405 475 405 450 405 c 2
 100 405 l 1
 100 480 l 1
 440 480 l 2
 540 480 640 480 640 365 c 2
 640 0 l 1
 260 0 l 2
 160 0 60 0 60 115 c 2
200 105 m 2
 200 75 225 75 250 75 c 2
 500 75 l 1
 500 225 l 1
 250 225 l 2
 225 225 200 225 200 195 c 2
 200 105 l 2
EndSplineSet
Validated: 1
EndChar

StartChar: u
Encoding: 117 117 55
Width: 700
VWidth: 0
Flags: W
HStem: 0 75<204.409 495.591> 460 20G<60 200 500 640>
VStem: 60 140<77.041 480> 500 140<77.041 480>
LayerCount: 2
Fore
SplineSet
60 115 m 2
 60 480 l 1
 200 480 l 1
 200 105 l 2
 200 75 225 75 250 75 c 2
 450 75 l 2
 475 75 500 75 500 105 c 2
 500 480 l 1
 640 480 l 1
 640 115 l 2
 640 0 540 0 440 0 c 2
 260 0 l 2
 160 0 60 0 60 115 c 2
EndSplineSet
Validated: 1
EndChar

StartChar: t
Encoding: 116 116 56
Width: 460
VWidth: 0
Flags: W
HStem: 0 75<204.409 400> 405 75<200 400> 640 20G<60 200>
VStem: 60 140<77.041 405 480 660>
LayerCount: 2
Fore
SplineSet
60 115 m 2
 60 660 l 1
 200 660 l 1
 200 480 l 1
 400 480 l 1
 400 405 l 1
 200 405 l 1
 200 105 l 2
 200 75 225 75 250 75 c 2
 400 75 l 1
 400 0 l 1
 260 0 l 2
 160 0 60 0 60 115 c 2
EndSplineSet
Validated: 1
EndChar

StartChar: b
Encoding: 98 98 57
Width: 700
VWidth: 0
Flags: W
HStem: 0 75<200 495.591> 405 75<200 495.591> 640 20G<60 200>
VStem: 60 140<75 405 480 660> 500 140<77.041 402.959>
LayerCount: 2
Fore
SplineSet
60 0 m 1
 60 660 l 1
 200 660 l 1
 200 480 l 1
 440 480 l 2
 540 480 640 480 640 365 c 2
 640 115 l 2
 640 0 540 0 440 0 c 2
 60 0 l 1
200 75 m 1
 450 75 l 2
 475 75 500 75 500 105 c 2
 500 375 l 2
 500 405 475 405 450 405 c 2
 200 405 l 1
 200 75 l 1
EndSplineSet
Validated: 1
EndChar

StartChar: y
Encoding: 121 121 58
Width: 680
VWidth: 0
Flags: MW
HStem: -225 75<80 214.402> 460 20G<20 170 510 660>
VStem: 80 21G
LayerCount: 2
Fore
SplineSet
20 480 m 1
 160 480 l 1
 340 120 l 1
 520 480 l 1
 660 480 l 1
 360 -120 l 2
 330 -180 305 -225 210 -225 c 2
 80 -225 l 1
 80 -150 l 1
 160 -150 l 2
 205 -150 210 -140 225 -110 c 2
 270 -20 l 1
 20 480 l 1
EndSplineSet
Validated: 1
EndChar

StartChar: o
Encoding: 111 111 59
Width: 700
VWidth: 0
Flags: W
HStem: 0 75<204.409 495.591> 405 75<204.409 495.591>
VStem: 60 140<77.041 402.959> 500 140<77.041 402.959>
LayerCount: 2
Fore
SplineSet
60 115 m 2
 60 365 l 2
 60 480 160 480 260 480 c 2
 440 480 l 2
 540 480 640 480 640 365 c 2
 640 115 l 2
 640 0 540 0 440 0 c 2
 260 0 l 2
 160 0 60 0 60 115 c 2
200 105 m 2
 200 75 225 75 250 75 c 2
 450 75 l 2
 475 75 500 75 500 105 c 2
 500 375 l 2
 500 405 475 405 450 405 c 2
 250 405 l 2
 225 405 200 405 200 375 c 2
 200 105 l 2
EndSplineSet
Validated: 1
EndChar

StartChar: f
Encoding: 102 102 60
Width: 460
VWidth: 0
Flags: W
HStem: 0 21G<60 200> 405 75<200 400> 585 75<204.409 400>
VStem: 60 140<0 405 480 582.959>
LayerCount: 2
Fore
SplineSet
60 0 m 1
 60 545 l 2
 60 660 160 660 260 660 c 2
 400 660 l 1
 400 585 l 1
 250 585 l 2
 225 585 200 585 200 555 c 2
 200 480 l 1
 400 480 l 1
 400 405 l 1
 200 405 l 1
 200 0 l 1
 60 0 l 1
EndSplineSet
Validated: 1
EndChar

StartChar: h
Encoding: 104 104 61
Width: 700
VWidth: 0
Flags: W
HStem: 0 21G<60 200 500 640> 405 75<200 495.591> 640 20G<60 200>
VStem: 60 140<0 405 480 660> 500 140<0 402.959>
LayerCount: 2
Fore
SplineSet
60 0 m 1
 60 660 l 1
 200 660 l 1
 200 480 l 1
 440 480 l 2
 540 480 640 480 640 365 c 2
 640 0 l 1
 500 0 l 1
 500 375 l 2
 500 405 475 405 450 405 c 2
 200 405 l 1
 200 0 l 1
 60 0 l 1
EndSplineSet
Validated: 1
EndChar

StartChar: ampersand
Encoding: 38 38 62
Width: 890
VWidth: 0
Flags: MW
HStem: 0 85<222.083 545> 575 85<302.083 557.917>
VStem: 70 150<90.4395 320.996> 150 150<480.003 569.561> 560 150<510 569.561> 670 150<130 300>
LayerCount: 2
Fore
SplineSet
70 135 m 2xe4
 70 290 l 2
 70 380 155 410 220 410 c 1xe4
 165 465 150 480 150 525 c 3
 150 660 270 660 390 660 c 2
 470 660 l 2
 590 660 710 660 710 525 c 2
 710 510 l 1
 560 510 l 1
 560 540 l 2
 560 575 530 575 500 575 c 2
 360 575 l 2
 330 575 300 575 300 540 c 2
 300 520 l 2xd4
 300 500 310 490 320 480 c 2
 670 130 l 1
 670 300 l 1
 820 300 l 1
 820 135 l 2
 820 0 700 0 580 0 c 2
 310 0 l 2
 190 0 70 0 70 135 c 2xe4
220 120 m 2
 220 85 250 85 280 85 c 2
 545 85 l 1
 305 325 l 1
 280 325 l 2
 250 325 220 325 220 290 c 2
 220 120 l 2
EndSplineSet
Validated: 1
EndChar

StartChar: underscore
Encoding: 95 95 63
Width: 640
VWidth: 0
Flags: MW
HStem: -225 75<20 620>
LayerCount: 2
Fore
SplineSet
20 -150 m 1
 620 -150 l 1
 620 -225 l 1
 20 -225 l 1
 20 -150 l 1
EndSplineSet
Validated: 1
EndChar

StartChar: dollar
Encoding: 36 36 65
Width: 890
VWidth: 0
Flags: MW
HStem: 0 85<70 385 505 667.917> 325 85<222.083 385 505 667.917> 575 85<222.083 385 505 770>
VStem: 70 315 70 150<415.439 569.561> 385 120<-85 0 85 325 410 575 660 745> 505 315 670 150<90.4395 319.561>
CounterMasks: 1 0d
LayerCount: 2
Fore
SplineSet
70 0 m 1
 70 85 l 1
 385 85 l 1
 385 325 l 1
 310 325 l 2
 190 325 70 325 70 460 c 2
 70 525 l 2
 70 660 190 660 310 660 c 2
 385 660 l 1
 385 745 l 1x10
 505 745 l 1x02
 505 660 l 1
 770 660 l 1
 770 575 l 1
 505 575 l 1
 505 410 l 1
 580 410 l 2
 700 410 820 410 820 275 c 2
 820 135 l 2
 820 0 700 0 580 0 c 2
 505 0 l 1
 505 -85 l 1
 385 -85 l 1
 385 0 l 1
 70 0 l 1
220 445 m 2
 220 410 250 410 280 410 c 2
 385 410 l 1
 385 575 l 1
 280 575 l 2
 250 575 220 575 220 540 c 2
 220 445 l 2
505 85 m 1
 610 85 l 2
 640 85 670 85 670 120 c 2
 670 290 l 2
 670 325 640 325 610 325 c 2
 505 325 l 1
 505 85 l 1
EndSplineSet
Validated: 1
EndChar

StartChar: slash
Encoding: 47 47 66
Width: 620
VWidth: 0
Flags: MW
HStem: -100 21G<60 190> 640 20G<430 560>
LayerCount: 2
Fore
SplineSet
60 -100 m 1
 440 660 l 1
 560 660 l 1
 180 -100 l 1
 60 -100 l 1
EndSplineSet
Validated: 1
EndChar

StartChar: period
Encoding: 46 46 67
Width: 300
VWidth: 0
Flags: W
HStem: 0 120<75 225>
VStem: 75 150<0 120>
LayerCount: 2
Fore
SplineSet
75 0 m 1
 75 120 l 1
 225 120 l 1
 225 0 l 1
 75 0 l 1
EndSplineSet
EndChar

StartChar: exclam
Encoding: 33 33 68
Width: 300
VWidth: 0
Flags: MW
HStem: 0 120<75 225> 225 21G<75 225> 640 20G<75 225>
VStem: 75 150<0 120 225 660>
LayerCount: 2
Fore
SplineSet
75 0 m 1
 75 120 l 1
 225 120 l 1
 225 0 l 1
 75 0 l 1
75 225 m 1
 75 660 l 1
 225 660 l 1
 225 225 l 1
 75 225 l 1
EndSplineSet
Validated: 1
EndChar

StartChar: bracketleft
Encoding: 91 91 70
Width: 455
VWidth: 0
Flags: W
HStem: -225 75<195 395> 585 75<195 395>
VStem: 75 120<-150 585>
LayerCount: 2
Fore
SplineSet
75 -225 m 1
 75 660 l 1
 395 660 l 1
 395 585 l 1
 195 585 l 1
 195 -150 l 1
 395 -150 l 1
 395 -225 l 1
 75 -225 l 1
EndSplineSet
Validated: 1
EndChar

StartChar: greater
Encoding: 62 62 71
Width: 750
VWidth: 0
Flags: MW
HStem: -20 100<60 60> 400 100<60 60>
VStem: 60 630
LayerCount: 2
Fore
SplineSet
60 -20 m 1
 60 80 l 1
 540 240 l 1
 60 400 l 1
 60 500 l 1
 690 290 l 1
 690 190 l 1
 60 -20 l 1
EndSplineSet
Validated: 1
EndChar

StartChar: bar
Encoding: 124 124 72
Width: 320
VWidth: 0
Flags: W
HStem: -225 21G<100 220> 640 20G<100 220>
VStem: 100 120<-225 660>
LayerCount: 2
Fore
SplineSet
100 -225 m 1
 100 660 l 1
 220 660 l 1
 220 -225 l 1
 100 -225 l 1
EndSplineSet
Validated: 1
EndChar

StartChar: grave
Encoding: 96 96 73
Width: 500
VWidth: 0
Flags: MW
HStem: 550 160
VStem: 90 250
LayerCount: 2
Fore
SplineSet
90 710 m 1
 240 710 l 1
 340 550 l 1
 250 550 l 1
 90 710 l 1
EndSplineSet
Validated: 1
EndChar

StartChar: braceright
Encoding: 125 125 74
Width: 625
VWidth: 0
Flags: W
HStem: -225 75<60 257.813> 585 75<60 257.813>
VStem: 260 120<-147.959 90 360 582.959>
LayerCount: 2
Fore
SplineSet
60 -150 m 1
 210 -150 l 2
 235 -150 260 -150 260 -120 c 2
 260 130 l 1
 450 225 l 1
 260 320 l 1
 260 555 l 2
 260 585 235 585 210 585 c 2
 60 585 l 1
 60 660 l 1
 180 660 l 2
 280 660 380 660 380 545 c 2
 380 360 l 1
 550 275 l 1
 550 175 l 1
 380 90 l 1
 380 -110 l 2
 380 -225 280 -225 180 -225 c 2
 60 -225 l 1
 60 -150 l 1
EndSplineSet
Validated: 1
EndChar

StartChar: asterisk
Encoding: 42 42 75
Width: 649
VWidth: 0
Flags: MW
HStem: 194 21G<200.188 242.545 406.303 448.812> 640 20G<269 379>
VStem: 269 110<496 660>
LayerCount: 2
Fore
SplineSet
60 448 m 1
 94 553 l 1
 269 496 l 1
 269 660 l 1
 379 660 l 1
 379 496 l 1
 555 553 l 1
 589 448 l 1
 413 391 l 1
 510 258 l 1
 421 194 l 1
 324 326 l 1
 228 194 l 1
 139 258 l 1
 235 391 l 1
 60 448 l 1
EndSplineSet
Validated: 1
EndChar

StartChar: plus
Encoding: 43 43 76
Width: 700
VWidth: 0
Flags: W
HStem: 0 21G<275 425> 190 100<60 275 425 640> 460 20G<275 425>
VStem: 275 150<0 190 290 480>
LayerCount: 2
Fore
SplineSet
60 190 m 1
 60 290 l 1
 275 290 l 1
 275 480 l 1
 425 480 l 1
 425 290 l 1
 640 290 l 1
 640 190 l 1
 425 190 l 1
 425 0 l 1
 275 0 l 1
 275 190 l 1
 60 190 l 1
EndSplineSet
Validated: 1
EndChar

StartChar: equal
Encoding: 61 61 77
Width: 700
VWidth: 0
Flags: MW
HStem: 75 100<60 640> 305 100<60 640>
VStem: 60 580
LayerCount: 2
Fore
SplineSet
60 75 m 1
 60 175 l 1
 640 175 l 1
 640 75 l 1
 60 75 l 1
60 305 m 1
 60 405 l 1
 640 405 l 1
 640 305 l 1
 60 305 l 1
EndSplineSet
Validated: 1
EndChar

StartChar: at
Encoding: 64 64 78
Width: 1210
VWidth: 0
Flags: MW
HStem: -165 60<205.975 1095> -105 105 0 75<459.409 755 895 1015> 405 75<459.409 755> 480 105 585 60<205.975 1004.03>
VStem: 75 120<-92.0129 572.013> 315 140<77.041 402.959> 755 140<75 405> 1015 120<75 572.013>
LayerCount: 2
Fore
SplineSet
75 -50 m 2
 75 530 l 2
 75 645 175 645 275 645 c 2
 935 645 l 2
 1035 645 1135 645 1135 530 c 2
 1135 0 l 1
 515 0 l 2x40
 415 0 315 0 315 115 c 2
 315 365 l 2
 315 480 415 480 515 480 c 2x08
 895 480 l 1
 895 75 l 1
 1015 75 l 1
 1015 530 l 2
 1015 585 965 585 915 585 c 2
 295 585 l 2x08
 245 585 195 585 195 530 c 2
 195 -50 l 2
 195 -105 245 -105 295 -105 c 2x40
 1095 -105 l 1
 1095 -165 l 1
 275 -165 l 2
 175 -165 75 -165 75 -50 c 2
455 105 m 2
 455 75 480 75 505 75 c 2
 755 75 l 1
 755 405 l 1
 505 405 l 2
 480 405 455 405 455 375 c 2
 455 105 l 2
EndSplineSet
Validated: 1
EndChar

StartChar: parenright
Encoding: 41 41 79
Width: 395
VWidth: 0
Flags: W
HStem: -225 21G<60 210> 640 20G<60 210>
VStem: 200 120<55.2585 383.375>
LayerCount: 2
Fore
SplineSet
60 -225 m 1
 150 -105 200 60 200 220 c 0
 200 380 150 540 60 660 c 1
 160 660 l 1
 260 540 320 380 320 220 c 0
 320 60 260 -105 160 -225 c 1
 60 -225 l 1
EndSplineSet
Validated: 1
EndChar

StartChar: comma
Encoding: 44 44 80
Width: 320
VWidth: 0
Flags: MW
HStem: -150 270
LayerCount: 2
Fore
SplineSet
45 -150 m 1
 105 120 l 1
 245 120 l 1
 125 -150 l 1
 45 -150 l 1
EndSplineSet
EndChar

StartChar: quotesingle
Encoding: 39 39 81
Width: 270
VWidth: 0
Flags: MW
HStem: 410 250<75 75>
VStem: 75 120<410 660>
LayerCount: 2
Fore
SplineSet
75 410 m 1
 75 660 l 1
 195 660 l 1
 195 410 l 1
 75 410 l 1
EndSplineSet
Validated: 1
EndChar

StartChar: bracketright
Encoding: 93 93 82
Width: 455
VWidth: 0
Flags: W
HStem: -225 75<60 260> 585 75<60 260>
VStem: 260 120<-150 585>
LayerCount: 2
Fore
SplineSet
60 -150 m 1
 260 -150 l 1
 260 585 l 1
 60 585 l 1
 60 660 l 1
 380 660 l 1
 380 -225 l 1
 60 -225 l 1
 60 -150 l 1
EndSplineSet
Validated: 1
EndChar

StartChar: less
Encoding: 60 60 83
Width: 750
VWidth: 0
Flags: MW
HStem: -20 100<690 690> 400 100<690 690>
VStem: 60 630
LayerCount: 2
Fore
SplineSet
60 190 m 1
 60 290 l 1
 690 500 l 1
 690 400 l 1
 210 240 l 1
 690 80 l 1
 690 -20 l 1
 60 190 l 1
EndSplineSet
Validated: 1
EndChar

StartChar: braceleft
Encoding: 123 123 84
Width: 625
VWidth: 0
Flags: MW
HStem: -225 75<367.187 565> 585 75<367.187 565>
VStem: 245 120<-147.959 90 360 582.959>
LayerCount: 2
Fore
SplineSet
75 175 m 1
 75 275 l 1
 245 360 l 1
 245 545 l 2
 245 660 345 660 445 660 c 2
 565 660 l 1
 565 585 l 1
 415 585 l 2
 390 585 365 585 365 555 c 2
 365 320 l 1
 175 225 l 1
 365 130 l 1
 365 -120 l 2
 365 -150 390 -150 415 -150 c 2
 565 -150 l 1
 565 -225 l 1
 445 -225 l 2
 345 -225 245 -225 245 -110 c 2
 245 90 l 1
 75 175 l 1
EndSplineSet
Validated: 1
EndChar

StartChar: parenleft
Encoding: 40 40 85
Width: 395
VWidth: 0
Flags: W
HStem: -225 21G<185 335> 640 20G<185 335>
VStem: 75 120<55.2585 383.375>
LayerCount: 2
Fore
SplineSet
75 220 m 0
 75 380 135 540 235 660 c 1
 335 660 l 1
 245 540 195 380 195 220 c 0
 195 60 245 -105 335 -225 c 1
 235 -225 l 1
 135 -105 75 60 75 220 c 0
EndSplineSet
Validated: 1
EndChar

StartChar: backslash
Encoding: 92 92 87
Width: 620
VWidth: 0
Flags: MW
HStem: -100 21G<430 560> 640 20G<60 190>
LayerCount: 2
Fore
SplineSet
60 660 m 1
 180 660 l 1
 560 -100 l 1
 440 -100 l 1
 60 660 l 1
EndSplineSet
Validated: 1
EndChar

StartChar: asciicircum
Encoding: 94 94 88
Width: 600
VWidth: 0
Flags: MW
HStem: 300 21G<60 190 410 540> 640 20G<230 370>
LayerCount: 2
Fore
SplineSet
60 300 m 1
 240 660 l 1
 360 660 l 1
 540 300 l 1
 420 300 l 1
 300 540 l 1
 180 300 l 1
 60 300 l 1
EndSplineSet
Validated: 1
EndChar

StartChar: numbersign
Encoding: 35 35 89
Width: 870
VWidth: 0
Flags: W
HStem: 0 21G<80 216.667 440 576.667> 150 90<60 130 290 490 650 770> 420 90<100 220 380 580 740 810> 640 20G<293.333 430 653.333 790>
LayerCount: 2
Fore
SplineSet
60 150 m 1
 60 240 l 1
 160 240 l 1
 220 420 l 1
 100 420 l 1
 100 510 l 1
 250 510 l 1
 300 660 l 1
 430 660 l 1
 380 510 l 1
 610 510 l 1
 660 660 l 1
 790 660 l 1
 740 510 l 1
 810 510 l 1
 810 420 l 1
 710 420 l 1
 650 240 l 1
 770 240 l 1
 770 150 l 1
 620 150 l 1
 570 0 l 1
 440 0 l 1
 490 150 l 1
 260 150 l 1
 210 0 l 1
 80 0 l 1
 130 150 l 1
 60 150 l 1
290 240 m 1
 520 240 l 1
 580 420 l 1
 350 420 l 1
 290 240 l 1
EndSplineSet
Validated: 1
EndChar

StartChar: question
Encoding: 63 63 91
Width: 850
VWidth: 0
Flags: MW
HStem: 0 120<265 415> 225 21G<265 415> 325 85<417.083 622.917> 575 85<75 622.917>
VStem: 265 150<0 120 225 319.561> 625 150<415.439 569.561>
LayerCount: 2
Fore
SplineSet
75 575 m 1
 75 660 l 1
 535 660 l 2
 655 660 775 660 775 525 c 2
 775 460 l 2
 775 325 655 325 535 325 c 2
 475 325 l 2
 445 325 415 325 415 290 c 2
 415 225 l 1
 265 225 l 1
 265 275 l 2
 265 410 385 410 505 410 c 2
 565 410 l 2
 595 410 625 410 625 445 c 2
 625 540 l 2
 625 575 595 575 565 575 c 2
 75 575 l 1
265 0 m 1
 265 120 l 1
 415 120 l 1
 415 0 l 1
 265 0 l 1
EndSplineSet
Validated: 1
EndChar

StartChar: asciitilde
Encoding: 126 126 92
Width: 720
VWidth: 0
Flags: MW
HStem: 220 21G<60 202.5 477.5 527.5> 390 20G<192.5 242.5 517.5 660>
VStem: 60 130<220 220> 530 130<410 410>
LayerCount: 2
Fore
SplineSet
60 220 m 1
 120 340 155 410 230 410 c 0
 255 410 265 405 295 390 c 2
 445 315 l 2
 451 312 455 312 460 312 c 0
 481 312 505 360 530 410 c 1
 660 410 l 1
 600 290 565 220 490 220 c 0
 465 220 455 225 425 240 c 2
 275 315 l 2
 269 318 265 318 260 318 c 0
 239 318 215 270 190 220 c 1
 60 220 l 1
EndSplineSet
Validated: 1
EndChar

StartChar: hyphen
Encoding: 45 45 93
Width: 520
VWidth: 0
Flags: MW
HStem: 190 100<60 460>
VStem: 60 400
LayerCount: 2
Fore
SplineSet
60 190 m 1
 60 290 l 1
 460 290 l 1
 460 190 l 1
 60 190 l 1
EndSplineSet
Validated: 1
EndChar

StartChar: Thorn
Encoding: 222 222 94
Width: 890
VWidth: 0
Flags: W
HStem: 0 21G<70 220> 125 85<220 667.917> 450 85<220 667.917> 640 20G<70 220>
VStem: 70 150<0 125 210 450 535 660> 670 150<215.439 444.561>
LayerCount: 2
Fore
SplineSet
70 0 m 1
 70 660 l 1
 220 660 l 1
 220 535 l 1
 580 535 l 2
 700 535 820 535 820 400 c 2
 820 260 l 2
 820 125 700 125 580 125 c 2
 220 125 l 1
 220 0 l 1
 70 0 l 1
220 210 m 1
 610 210 l 2
 640 210 670 210 670 245 c 2
 670 415 l 2
 670 450 640 450 610 450 c 2
 220 450 l 1
 220 210 l 1
EndSplineSet
Validated: 1
EndChar

StartChar: dieresis
Encoding: 168 168 95
Width: 500
VWidth: 0
Flags: W
HStem: 580 100<75 195 305 425>
VStem: 75 120<580 680> 305 120<580 680>
LayerCount: 2
Fore
SplineSet
75 580 m 1
 75 680 l 1
 195 680 l 1
 195 580 l 1
 75 580 l 1
305 580 m 1
 305 680 l 1
 425 680 l 1
 425 580 l 1
 305 580 l 1
EndSplineSet
Validated: 1
EndChar

StartChar: sterling
Encoding: 163 163 96
Width: 890
VWidth: 0
Flags: W
HStem: 0 85<70 170 320 820> 325 75<70 170 320 570> 575 85<322.083 667.917>
VStem: 170 150<85 325 400 569.561> 670 150<490 569.561>
LayerCount: 2
Fore
SplineSet
70 0 m 1
 70 85 l 1
 170 85 l 1
 170 325 l 1
 70 325 l 1
 70 400 l 1
 170 400 l 1
 170 525 l 2
 170 660 290 660 410 660 c 2
 580 660 l 2
 700 660 820 660 820 525 c 2
 820 490 l 1
 670 490 l 1
 670 540 l 2
 670 575 640 575 610 575 c 2
 380 575 l 2
 350 575 320 575 320 540 c 2
 320 400 l 1
 570 400 l 1
 570 325 l 1
 320 325 l 1
 320 85 l 1
 820 85 l 1
 820 0 l 1
 70 0 l 1
EndSplineSet
Validated: 1
EndChar

StartChar: cent
Encoding: 162 162 97
Width: 660
VWidth: 0
Flags: W
HStem: 0 75<204.409 320 420 600> 405 75<204.409 320 420 600>
VStem: 60 140<77.041 402.959> 320 100<-75 0 75 405 480 555>
LayerCount: 2
Fore
SplineSet
60 115 m 2
 60 365 l 2
 60 480 160 480 260 480 c 2
 320 480 l 1
 320 555 l 1
 420 555 l 1
 420 480 l 1
 600 480 l 1
 600 405 l 1
 420 405 l 1
 420 75 l 1
 600 75 l 1
 600 0 l 1
 420 0 l 1
 420 -75 l 1
 320 -75 l 1
 320 0 l 1
 260 0 l 2
 160 0 60 0 60 115 c 2
200 105 m 2
 200 75 225 75 250 75 c 2
 320 75 l 1
 320 405 l 1
 250 405 l 2
 225 405 200 405 200 375 c 2
 200 105 l 2
EndSplineSet
Validated: 1
EndChar

StartChar: acute
Encoding: 180 180 98
Width: 500
VWidth: 0
Flags: W
HStem: 550 160
VStem: 160 250
LayerCount: 2
Fore
SplineSet
160 550 m 1
 260 710 l 1
 410 710 l 1
 250 550 l 1
 160 550 l 1
EndSplineSet
Validated: 1
EndChar

StartChar: yen
Encoding: 165 165 100
Width: 890
VWidth: 0
Flags: MW
HStem: 0 21G<370 520> 115 75<170 370 520 720> 190 60 250 75<170 355 535 720> 640 20G<20 220 670 870>
VStem: 370 150<0 115 190 250>
LayerCount: 2
Fore
SplineSet
20 660 m 1xdc
 200 660 l 1
 445 415 l 1
 690 660 l 1
 870 660 l 1
 535 325 l 1
 720 325 l 1
 720 250 l 1
 520 250 l 1x20
 520 190 l 1x20
 720 190 l 1
 720 115 l 1
 520 115 l 1
 520 0 l 1
 370 0 l 1
 370 115 l 1
 170 115 l 1
 170 190 l 1
 370 190 l 1x20
 370 250 l 1x20
 170 250 l 1
 170 325 l 1
 355 325 l 1
 20 660 l 1xdc
EndSplineSet
Validated: 1
EndChar

StartChar: oe
Encoding: 339 339 101
Width: 1140
VWidth: 0
Flags: W
HStem: 0 75<204.409 499.135 640.865 1060> 225 75<640 940> 405 75<204.409 499.135 640.865 935.591>
VStem: 60 140<77.041 402.959> 500 140<77.0114 225 300 402.989> 940 140<300 402.959>
CounterMasks: 1 1c
LayerCount: 2
Fore
SplineSet
60 115 m 2
 60 365 l 2
 60 480 160 480 260 480 c 2
 880 480 l 2
 980 480 1080 480 1080 365 c 2
 1080 225 l 1
 640 225 l 1
 640 105 l 2
 640 75 665 75 690 75 c 2
 1060 75 l 1
 1060 0 l 1
 260 0 l 2
 160 0 60 0 60 115 c 2
200 105 m 2
 200 75 225 75 250 75 c 2
 450 75 l 2
 475 75 500 75 500 105 c 2
 500 375 l 2
 500 405 475 405 450 405 c 2
 250 405 l 2
 225 405 200 405 200 375 c 2
 200 105 l 2
640 300 m 1
 940 300 l 1
 940 375 l 2
 940 405 915 405 890 405 c 2
 690 405 l 2
 665 405 640 405 640 375 c 2
 640 300 l 1
EndSplineSet
Validated: 1
EndChar

StartChar: OE
Encoding: 338 338 102
Width: 1340
VWidth: 0
Flags: W
HStem: 0 85<222.083 617.917 770 1270> 325 85<770 1220> 575 85<222.083 617.917 770 1270>
VStem: 70 150<90.4395 569.561> 620 150<88.6049 325 410 571.395>
LayerCount: 2
Fore
SplineSet
70 135 m 2
 70 525 l 2
 70 660 190 660 310 660 c 2
 1270 660 l 1
 1270 575 l 1
 770 575 l 1
 770 410 l 1
 1220 410 l 1
 1220 325 l 1
 770 325 l 1
 770 85 l 1
 1270 85 l 1
 1270 0 l 1
 310 0 l 2
 190 0 70 0 70 135 c 2
220 120 m 2
 220 85 250 85 280 85 c 2
 560 85 l 2
 590 85 620 85 620 120 c 2
 620 540 l 2
 620 575 590 575 560 575 c 2
 280 575 l 2
 250 575 220 575 220 540 c 2
 220 120 l 2
EndSplineSet
Validated: 1
EndChar

StartChar: copyright
Encoding: 169 169 103
Width: 1000
VWidth: 0
Flags: W
HStem: 0 60<190.975 809.025> 160 60<422.805 700> 440 60<422.805 700> 600 60<190.975 809.025>
VStem: 60 120<72.9871 587.013> 300 120<223.581 436.419> 820 120<72.9871 587.013>
LayerCount: 2
Fore
SplineSet
60 115 m 2
 60 545 l 2
 60 660 160 660 260 660 c 2
 740 660 l 2
 840 660 940 660 940 545 c 2
 940 115 l 2
 940 0 840 0 740 0 c 2
 260 0 l 2
 160 0 60 0 60 115 c 2
180 115 m 2
 180 60 230 60 280 60 c 2
 720 60 l 2
 770 60 820 60 820 115 c 2
 820 545 l 2
 820 600 770 600 720 600 c 2
 280 600 l 2
 230 600 180 600 180 545 c 2
 180 115 l 2
300 250 m 2
 300 410 l 2
 300 500 380 500 460 500 c 2
 700 500 l 1
 700 440 l 1
 460 440 l 2
 440 440 420 440 420 415 c 2
 420 245 l 2
 420 220 440 220 460 220 c 2
 700 220 l 1
 700 160 l 1
 460 160 l 2
 380 160 300 160 300 250 c 2
EndSplineSet
Validated: 1
EndChar

StartChar: registered
Encoding: 174 174 104
Width: 1020
VWidth: 0
Flags: MW
HStem: 0 60<190.975 829.025> 160 21G<300 420 590 730> 305 60<420 465 585 598.052> 440 60<420 597.195> 600 60<190.975 829.025>
VStem: 60 120<72.9871 587.013> 300 120<160 305 365 440> 600 120<368.164 436.419> 840 120<72.9871 587.013>
LayerCount: 2
Fore
SplineSet
60 115 m 2
 60 545 l 2
 60 660 160 660 260 660 c 2
 760 660 l 2
 860 660 960 660 960 545 c 2
 960 115 l 2
 960 0 860 0 760 0 c 2
 260 0 l 2
 160 0 60 0 60 115 c 2
180 115 m 2
 180 60 230 60 280 60 c 2
 740 60 l 2
 790 60 840 60 840 115 c 2
 840 545 l 2
 840 600 790 600 740 600 c 2
 280 600 l 2
 230 600 180 600 180 545 c 2
 180 115 l 2
300 160 m 1
 300 500 l 1
 560 500 l 2
 640 500 720 500 720 410 c 2
 720 395 l 2
 720 315 655 305 585 305 c 1
 730 160 l 1
 610 160 l 1
 465 305 l 1
 420 305 l 1
 420 160 l 1
 300 160 l 1
420 365 m 1
 560 365 l 2
 580 365 600 365 600 390 c 2
 600 415 l 2
 600 440 580 440 560 440 c 2
 420 440 l 1
 420 365 l 1
EndSplineSet
Validated: 1
EndChar

StartChar: uni00B9
Encoding: 185 185 106
Width: 340
VWidth: 0
Flags: W
HStem: 600 60<60 160>
VStem: 160 120<320 600>
LayerCount: 2
Fore
SplineSet
60 600 m 1
 60 660 l 1
 280 660 l 1
 280 320 l 1
 160 320 l 1
 160 600 l 1
 60 600 l 1
EndSplineSet
Validated: 1
EndChar

StartChar: exclamdown
Encoding: 161 161 107
Width: 300
VWidth: 0
Flags: MW
HStem: -225 21G<75 225> 190 20G<75 225> 315 120<75 225>
VStem: 75 150<-225 210 315 435>
LayerCount: 2
Fore
SplineSet
75 210 m 1
 225 210 l 1
 225 -225 l 1
 75 -225 l 1
 75 210 l 1
75 315 m 1
 75 435 l 1
 225 435 l 1
 225 315 l 1
 75 315 l 1
EndSplineSet
Validated: 1
EndChar

StartChar: cedilla
Encoding: 184 184 108
Width: 500
VWidth: 0
Flags: MW
HStem: -225 50<160 261.663> -20 20G<180 315>
VStem: 160 21G 270 100<-165.186 -76.4885>
LayerCount: 2
Fore
SplineSet
160 -175 m 1
 190 -175 l 2
 230 -175 270 -170 270 -130 c 0
 270 -100 255 -75 180 0 c 1
 280 0 l 1
 350 -70 370 -100 370 -135 c 0
 370 -215 290 -225 210 -225 c 2
 160 -225 l 1
 160 -175 l 1
EndSplineSet
Validated: 1
EndChar

StartChar: multiply
Encoding: 215 215 109
Width: 600
VWidth: 0
Flags: W
HStem: 0 21G<120 160 440 480> 460 20G<120 160 440 480>
LayerCount: 2
Fore
SplineSet
60 80 m 1
 220 240 l 1
 60 400 l 1
 140 480 l 1
 300 320 l 1
 460 480 l 1
 540 400 l 1
 380 240 l 1
 540 80 l 1
 460 0 l 1
 300 160 l 1
 140 0 l 1
 60 80 l 1
EndSplineSet
Validated: 1
EndChar

StartChar: questiondown
Encoding: 191 191 110
Width: 850
VWidth: 0
Flags: MW
HStem: -225 85<227.083 775> 25 85<227.083 432.917> 190 20G<435 585> 315 120<435 585>
VStem: 75 150<-134.561 19.5605> 435 150<115.439 210 315 435>
LayerCount: 2
Fore
SplineSet
75 -25 m 2
 75 110 195 110 315 110 c 2
 375 110 l 2
 405 110 435 110 435 145 c 2
 435 210 l 1
 585 210 l 1
 585 160 l 2
 585 25 465 25 345 25 c 2
 285 25 l 2
 255 25 225 25 225 -10 c 2
 225 -105 l 2
 225 -140 255 -140 285 -140 c 2
 775 -140 l 1
 775 -225 l 1
 315 -225 l 2
 195 -225 75 -225 75 -90 c 2
 75 -25 l 2
435 315 m 1
 435 435 l 1
 585 435 l 1
 585 315 l 1
 435 315 l 1
EndSplineSet
Validated: 1
EndChar

StartChar: brokenbar
Encoding: 166 166 111
Width: 320
VWidth: 0
Flags: MW
HStem: -225 21G<100 220> 120 20G<100 220> 300 21G<100 220> 640 20G<100 220>
VStem: 100 120<-225 135 300 660>
LayerCount: 2
Fore
SplineSet
100 140 m 1
 220 140 l 1
 220 -225 l 1
 100 -225 l 1
 100 140 l 1
100 300 m 1
 100 660 l 1
 220 660 l 1
 220 300 l 1
 100 300 l 1
EndSplineSet
Validated: 1
EndChar

StartChar: ae
Encoding: 230 230 112
Width: 1140
VWidth: 0
Flags: W
HStem: 0 75<204.409 500 640.865 1060> 225 75<204.409 500 640 940> 405 75<100 499.135 640.865 935.591>
VStem: 60 140<77.041 222.959> 500 140<77.0114 225 300 402.989> 940 140<300 402.959>
CounterMasks: 1 1c
LayerCount: 2
Fore
SplineSet
60 115 m 2
 60 185 l 2
 60 300 160 300 260 300 c 2
 500 300 l 1
 500 375 l 2
 500 405 475 405 450 405 c 2
 100 405 l 1
 100 480 l 1
 880 480 l 2
 980 480 1080 480 1080 365 c 2
 1080 225 l 1
 640 225 l 1
 640 105 l 2
 640 75 665 75 690 75 c 2
 1060 75 l 1
 1060 0 l 1
 260 0 l 2
 160 0 60 0 60 115 c 2
200 105 m 2
 200 75 225 75 250 75 c 2
 500 75 l 1
 500 225 l 1
 250 225 l 2
 225 225 200 225 200 195 c 2
 200 105 l 2
640 300 m 1
 940 300 l 1
 940 375 l 2
 940 405 915 405 890 405 c 2
 690 405 l 2
 665 405 640 405 640 375 c 2
 640 300 l 1
EndSplineSet
Validated: 1
EndChar

StartChar: AE
Encoding: 198 198 113
Width: 1290
VWidth: 0
Flags: W
HStem: 0 85<720 1220> 210 80<315 570> 325 85<720 1170> 575 85<457 570 720 1220>
VStem: 570 150<85 210 290 325 410 575>
LayerCount: 2
Fore
SplineSet
20 0 m 1
 350 660 l 1
 1220 660 l 1
 1220 575 l 1
 720 575 l 1
 720 410 l 1
 1170 410 l 1
 1170 325 l 1
 720 325 l 1
 720 85 l 1
 1220 85 l 1
 1220 0 l 1
 570 0 l 1
 570 210 l 1
 275 210 l 1
 170 0 l 1
 20 0 l 1
315 290 m 1
 570 290 l 1
 570 575 l 1
 457 575 l 1
 315 290 l 1
EndSplineSet
Validated: 1
EndChar

StartChar: section
Encoding: 167 167 114
Width: 840
VWidth: 0
Flags: W
HStem: -175 85<222.083 617.917> 75 85<222.083 617.917> 325 85<222.083 617.917> 575 85<222.083 617.917>
VStem: 70 150<-84.5605 -25 165.439 321.395 414.629 569.561> 620 150<-84.5605 71.3951 164.629 319.561 510 569.561>
LayerCount: 2
Fore
SplineSet
70 -25 m 1
 220 -25 l 1
 220 -55 l 2
 220 -90 250 -90 280 -90 c 2
 560 -90 l 2
 590 -90 620 -90 620 -55 c 2
 620 40 l 2
 620 75 590 75 560 75 c 2
 310 75 l 2
 190 75 70 75 70 210 c 2
 70 270 l 2
 70 330 110 360 150 370 c 1
 110 380 70 410 70 470 c 2
 70 525 l 2
 70 660 190 660 310 660 c 2
 530 660 l 2
 650 660 770 660 770 525 c 2
 770 510 l 1
 620 510 l 1
 620 540 l 2
 620 575 590 575 560 575 c 2
 280 575 l 2
 250 575 220 575 220 540 c 2
 220 445 l 2
 220 410 250 410 280 410 c 2
 530 410 l 2
 650 410 770 410 770 275 c 2
 770 220 l 2
 770 160 730 130 690 120 c 1
 730 110 770 80 770 20 c 2
 770 -40 l 2
 770 -175 650 -175 530 -175 c 2
 310 -175 l 2
 190 -175 70 -175 70 -40 c 2
 70 -25 l 1
220 195 m 2
 220 160 250 160 280 160 c 2
 560 160 l 2
 590 160 620 160 620 195 c 2
 620 290 l 2
 620 325 590 325 560 325 c 2
 280 325 l 2
 250 325 220 325 220 290 c 2
 220 195 l 2
EndSplineSet
Validated: 1
EndChar

StartChar: thorn
Encoding: 254 254 115
Width: 700
VWidth: 0
Flags: W
HStem: -225 21G<60 200> 0 75<200 495.591> 405 75<200 495.591> 640 20G<60 200>
VStem: 60 140<-225 0 75 405 480 660> 500 140<77.041 402.959>
LayerCount: 2
Fore
SplineSet
60 -225 m 1
 60 660 l 1
 200 660 l 1
 200 480 l 1
 440 480 l 2
 540 480 640 480 640 365 c 2
 640 115 l 2
 640 0 540 0 440 0 c 2
 200 0 l 1
 200 -225 l 1
 60 -225 l 1
200 75 m 1
 450 75 l 2
 475 75 500 75 500 105 c 2
 500 375 l 2
 500 405 475 405 450 405 c 2
 200 405 l 1
 200 75 l 1
EndSplineSet
Validated: 1
EndChar

StartChar: oslash
Encoding: 248 248 116
Width: 780
VWidth: 0
Flags: W
HStem: 0 75<244.409 535.591> 405 75<244.409 535.591>
VStem: 100 140<77.041 115 233 402.959> 540 140<77.041 247 365 402.959>
LayerCount: 2
Fore
SplineSet
20 91 m 1
 20 167 l 1
 100 191 l 1
 100 365 l 2
 100 480 200 480 300 480 c 2
 480 480 l 2
 580 480 680 480 680 365 c 1
 760 389 l 1
 760 313 l 1
 680 289 l 1
 680 115 l 2
 680 0 580 0 480 0 c 2
 300 0 l 2
 200 0 100 0 100 115 c 1
 20 91 l 1
240 105 m 2
 240 75 265 75 290 75 c 2
 490 75 l 2
 515 75 540 75 540 105 c 2
 540 247 l 1
 240 157 l 1
 240 105 l 2
240 233 m 1
 540 323 l 1
 540 375 l 2
 540 405 515 405 490 405 c 2
 290 405 l 2
 265 405 240 405 240 375 c 2
 240 233 l 1
EndSplineSet
Validated: 1
EndChar

StartChar: uni00B2
Encoding: 178 178 117
Width: 540
VWidth: 0
Flags: W
HStem: 320 60<180 480> 475 60<182.805 357.195> 600 60<80 357.195>
VStem: 60 120<380 471.419> 360 120<538.643 596.419>
LayerCount: 2
Fore
SplineSet
60 320 m 1
 60 445 l 2
 60 535 140 535 220 535 c 2
 320 535 l 2
 340 535 360 535 360 560 c 2
 360 575 l 2
 360 600 340 600 320 600 c 2
 80 600 l 1
 80 660 l 1
 320 660 l 2
 400 660 480 660 480 570 c 3
 480 475 400 475 320 475 c 2
 220 475 l 2
 200 475 180 475 180 450 c 2
 180 380 l 1
 480 380 l 1
 480 320 l 1
 60 320 l 1
EndSplineSet
Validated: 1
EndChar

StartChar: uni00B5
Encoding: 181 181 118
Width: 700
VWidth: 0
Flags: W
HStem: -225 21G<60 200> 0 75<200.162 495.591> 460 20G<60 200 500 640>
VStem: 60 140<-225 0 76.6762 480> 500 140<77.041 480>
LayerCount: 2
Fore
SplineSet
60 -225 m 1
 60 480 l 1
 200 480 l 1
 200 100 l 2
 200 75 225 75 250 75 c 2
 450 75 l 2
 475 75 500 75 500 105 c 2
 500 480 l 1
 640 480 l 1
 640 115 l 2
 640 0 540 0 440 0 c 2
 200 0 l 1
 200 -225 l 1
 60 -225 l 1
EndSplineSet
Validated: 1
EndChar

StartChar: degree
Encoding: 176 176 119
Width: 540
VWidth: 0
Flags: W
HStem: 390 60<182.805 357.195> 600 60<182.805 357.195>
VStem: 60 120<453.581 596.419> 360 120<453.581 596.419>
LayerCount: 2
Fore
SplineSet
60 480 m 2
 60 570 l 2
 60 660 140 660 220 660 c 2
 320 660 l 2
 400 660 480 660 480 570 c 2
 480 480 l 2
 480 390 400 390 320 390 c 2
 220 390 l 2
 140 390 60 390 60 480 c 2
180 475 m 2
 180 450 200 450 220 450 c 2
 320 450 l 2
 340 450 360 450 360 475 c 2
 360 575 l 2
 360 600 340 600 320 600 c 2
 220 600 l 2
 200 600 180 600 180 575 c 2
 180 475 l 2
EndSplineSet
Validated: 1
EndChar

StartChar: currency
Encoding: 164 164 120
Width: 780
VWidth: 0
Flags: W
HStem: 160 75<280.13 499.87> 425 75<280.13 499.87>
VStem: 160 120<240 420> 500 120<240 420>
LayerCount: 2
Fore
SplineSet
60 140 m 1
 160 240 l 1
 160 420 l 1
 60 520 l 1
 140 600 l 1
 240 500 l 1
 540 500 l 1
 640 600 l 1
 720 520 l 1
 620 420 l 1
 620 240 l 1
 720 140 l 1
 640 60 l 1
 540 160 l 1
 240 160 l 1
 140 60 l 1
 60 140 l 1
280 260 m 2
 280 235 300 235 320 235 c 2
 460 235 l 2
 480 235 500 235 500 260 c 2
 500 400 l 2
 500 425 480 425 460 425 c 2
 320 425 l 2
 300 425 280 425 280 400 c 2
 280 260 l 2
EndSplineSet
Validated: 1
EndChar

StartChar: Oslash
Encoding: 216 216 121
Width: 990
VWidth: 0
Flags: W
HStem: 0 85<272.083 717.917> 575 85<272.083 717.917>
VStem: 120 150<90.4395 135 285 569.561> 720 150<90.4395 375 525 569.561>
LayerCount: 2
Fore
SplineSet
20 95 m 1
 20 185 l 1
 120 225 l 1
 120 525 l 2
 120 660 240 660 360 660 c 2
 630 660 l 2
 750 660 870 660 870 525 c 1
 970 565 l 1
 970 475 l 1
 870 435 l 1
 870 135 l 2
 870 0 750 0 630 0 c 2
 360 0 l 2
 240 0 120 0 120 135 c 1
 20 95 l 1
270 120 m 2
 270 85 300 85 330 85 c 2
 660 85 l 2
 690 85 720 85 720 120 c 2
 720 375 l 1
 270 195 l 1
 270 120 l 2
270 285 m 1
 720 465 l 1
 720 540 l 2
 720 575 690 575 660 575 c 2
 330 575 l 2
 300 575 270 575 270 540 c 2
 270 285 l 1
EndSplineSet
Validated: 1
EndChar

StartChar: plusminus
Encoding: 177 177 123
Width: 700
VWidth: 0
Flags: MW
HStem: 0 100<60 640> 150 21G<275 425> 300 100<60 275 425 640> 530 20G<275 425>
VStem: 275 150<150 300 400 550>
LayerCount: 2
Fore
SplineSet
60 0 m 1
 60 100 l 1
 640 100 l 1
 640 0 l 1
 60 0 l 1
60 300 m 1
 60 400 l 1
 275 400 l 1
 275 550 l 1
 425 550 l 1
 425 400 l 1
 640 400 l 1
 640 300 l 1
 425 300 l 1
 425 150 l 1
 275 150 l 1
 275 300 l 1
 60 300 l 1
EndSplineSet
Validated: 1
EndChar

StartChar: paragraph
Encoding: 182 182 124
Width: 710
VWidth: 0
Flags: W
HStem: -225 21G<290 410 530 650> 585 75<410 530>
VStem: 290 120<-225 260> 530 120<-225 585>
LayerCount: 2
Fore
SplineSet
60 430 m 2
 60 490 l 2
 60 620 164 660 290 660 c 2
 650 660 l 1
 650 -225 l 1
 530 -225 l 1
 530 585 l 1
 410 585 l 1
 410 -225 l 1
 290 -225 l 1
 290 260 l 1
 158 260 60 300 60 430 c 2
EndSplineSet
Validated: 1
EndChar

StartChar: divide
Encoding: 247 247 127
Width: 700
VWidth: 0
Flags: W
HStem: 0 120<275 425> 190 100<60 640> 360 120<275 425>
VStem: 275 150<0 120 360 480>
CounterMasks: 1 e0
LayerCount: 2
Fore
SplineSet
60 190 m 1
 60 290 l 1
 640 290 l 1
 640 190 l 1
 60 190 l 1
275 0 m 1
 275 120 l 1
 425 120 l 1
 425 0 l 1
 275 0 l 1
275 360 m 1
 275 480 l 1
 425 480 l 1
 425 360 l 1
 275 360 l 1
EndSplineSet
Validated: 1
EndChar

StartChar: ordfeminine
Encoding: 170 170 128
Width: 540
VWidth: 0
Flags: W
HStem: 180 60<60 480> 320 60<182.805 360> 475 60<182.805 360> 600 60<100 357.195>
VStem: 60 120<383.581 471.419> 360 120<380 475 535 596.419>
LayerCount: 2
Fore
SplineSet
60 180 m 1
 60 240 l 1
 480 240 l 1
 480 180 l 1
 60 180 l 1
60 410 m 2
 60 445 l 2
 60 535 140 535 220 535 c 2
 360 535 l 1
 360 575 l 2
 360 600 340 600 320 600 c 2
 100 600 l 1
 100 660 l 1
 320 660 l 2
 400 660 480 660 480 570 c 2
 480 320 l 1
 220 320 l 2
 140 320 60 320 60 410 c 2
180 405 m 2
 180 380 200 380 220 380 c 2
 360 380 l 1
 360 475 l 1
 220 475 l 2
 200 475 180 475 180 450 c 2
 180 405 l 2
EndSplineSet
Validated: 1
EndChar

StartChar: ordmasculine
Encoding: 186 186 129
Width: 540
VWidth: 0
Flags: W
HStem: 180 60<60 480> 320 60<182.805 357.195> 600 60<182.805 357.195>
VStem: 60 120<383.581 596.419> 360 120<383.581 596.419>
LayerCount: 2
Fore
SplineSet
60 180 m 1
 60 240 l 1
 480 240 l 1
 480 180 l 1
 60 180 l 1
60 410 m 2
 60 570 l 2
 60 660 140 660 220 660 c 2
 320 660 l 2
 400 660 480 660 480 570 c 2
 480 410 l 2
 480 320 400 320 320 320 c 2
 220 320 l 2
 140 320 60 320 60 410 c 2
180 405 m 2
 180 380 200 380 220 380 c 2
 320 380 l 2
 340 380 360 380 360 405 c 2
 360 575 l 2
 360 600 340 600 320 600 c 2
 220 600 l 2
 200 600 180 600 180 575 c 2
 180 405 l 2
EndSplineSet
Validated: 1
EndChar

StartChar: uni00B3
Encoding: 179 179 130
Width: 540
VWidth: 0
Flags: W
HStem: 320 60<60 357.195> 475 60<120 359.87> 600 60<60 357.195>
VStem: 360 120<383.581 474.009 535.991 596.419>
LayerCount: 2
Fore
SplineSet
60 320 m 1
 60 380 l 1
 320 380 l 2
 340 380 360 380 360 405 c 2
 360 450 l 2
 360 475 340 475 320 475 c 2
 120 475 l 1
 120 535 l 1
 320 535 l 2
 340 535 360 535 360 560 c 2
 360 575 l 2
 360 600 340 600 320 600 c 2
 60 600 l 1
 60 660 l 1
 320 660 l 2
 400 660 480 660 480 570 c 3
 480 525 440 510 420 505 c 1
 440 500 480 485 480 440 c 2
 480 410 l 2
 480 320 400 320 320 320 c 2
 60 320 l 1
EndSplineSet
Validated: 1
EndChar

StartChar: germandbls
Encoding: 223 223 131
Width: 700
VWidth: 0
Flags: W
HStem: 0 75<320 495.591> 325 75<320 458.17> 585 75<204.409 455.591>
VStem: 60 140<0 582.959> 460 140<402.702 582.959> 500 140<77.041 320.966>
LayerCount: 2
Fore
SplineSet
60 0 m 1xf8
 60 545 l 2
 60 660 160 660 260 660 c 2
 400 660 l 2
 500 660 600 660 600 545 c 2
 600 455 l 2xf8
 600 390 570 370 530 365 c 1
 570 360 640 350 640 260 c 2
 640 115 l 2
 640 0 540 0 440 0 c 2
 320 0 l 1
 320 75 l 1
 450 75 l 2
 475 75 500 75 500 105 c 2
 500 295 l 2xf4
 500 325 475 325 450 325 c 2
 320 325 l 1
 320 400 l 1
 410 400 l 2
 435 400 460 400 460 430 c 2
 460 555 l 2
 460 585 435 585 410 585 c 2
 250 585 l 2
 225 585 200 585 200 555 c 2
 200 0 l 1
 60 0 l 1xf8
EndSplineSet
Validated: 1
EndChar

StartChar: macron
Encoding: 175 175 132
Width: 500
VWidth: 0
Flags: MW
HStem: 585 75<70 430>
VStem: 70 360
LayerCount: 2
Fore
SplineSet
70 585 m 1
 70 660 l 1
 430 660 l 1
 430 585 l 1
 70 585 l 1
EndSplineSet
Validated: 1
EndChar

StartChar: logicalnot
Encoding: 172 172 133
Width: 640
VWidth: 0
Flags: W
HStem: 290 100<60 460>
VStem: 460 120<90 290>
LayerCount: 2
Fore
SplineSet
60 290 m 1
 60 390 l 1
 580 390 l 1
 580 90 l 1
 460 90 l 1
 460 290 l 1
 60 290 l 1
EndSplineSet
Validated: 1
EndChar

StartChar: Euro
Encoding: 8364 8364 135
Width: 990
VWidth: 0
Flags: MW
HStem: 0 85<347.686 742.314> 225 75<70 170 320 625> 300 60 360 75<70 170 320 670> 575 85<347.686 742.314>
VStem: 170 150<113.887 225 300 360 435 546.113> 770 150<113.887 170 490 546.113>
LayerCount: 2
Fore
SplineSet
70 225 m 1
 70 300 l 1
 170 300 l 1x20
 170 360 l 1x20
 70 360 l 1
 70 435 l 1
 170 435 l 1
 170 490 l 2
 170 660 320 660 470 660 c 2
 620 660 l 2
 770 660 920 660 920 490 c 1
 770 490 l 1
 770 575 695 575 620 575 c 2
 470 575 l 2
 395 575 320 575 320 490 c 2
 320 435 l 1
 695 435 l 1
 670 360 l 1
 320 360 l 1x20
 320 300 l 1x20
 650 300 l 1
 625 225 l 1
 320 225 l 1
 320 170 l 2
 320 85 395 85 470 85 c 2
 620 85 l 2
 695 85 770 85 770 170 c 1
 920 170 l 1
 920 0 770 0 620 0 c 2
 470 0 l 2
 320 0 170 0 170 170 c 2
 170 225 l 1
 70 225 l 1
EndSplineSet
Validated: 1
EndChar

StartChar: dotlessi
Encoding: 305 305 149
Width: 260
VWidth: 0
Flags: W
HStem: 0 21G<60 200> 460 20G<60 200>
VStem: 60 140<0 480>
LayerCount: 2
Fore
SplineSet
60 0 m 1
 60 480 l 1
 200 480 l 1
 200 0 l 1
 60 0 l 1
EndSplineSet
Validated: 1
EndChar

StartChar: Eth
Encoding: 208 208 174
Width: 920
VWidth: 0
Flags: W
HStem: 0 85<250 588.672> 330 75<20 100 250 475> 575 85<250 588.672>
VStem: 100 150<85 330 405 575> 700 150<191.593 468.407>
LayerCount: 2
Fore
SplineSet
20 330 m 1
 20 405 l 1
 100 405 l 1
 100 660 l 1
 490 660 l 2
 670 660 850 600 850 360 c 2
 850 300 l 2
 850 60 670 0 490 0 c 2
 100 0 l 1
 100 330 l 1
 20 330 l 1
250 85 m 1
 460 85 l 2
 580 85 700 125 700 285 c 2
 700 375 l 2
 700 535 580 575 460 575 c 2
 250 575 l 1
 250 405 l 1
 475 405 l 1
 475 330 l 1
 250 330 l 1
 250 85 l 1
EndSplineSet
Validated: 1
EndChar

StartChar: eth
Encoding: 240 240 175
Width: 700
VWidth: 0
Flags: W
HStem: 0 75<204.409 495.591> 300 75<204.409 476.807> 640 20G<345 505.769>
VStem: 60 140<77.041 297.959> 500 140<77.041 293.84>
LayerCount: 2
Fore
SplineSet
60 115 m 2
 60 260 l 2
 60 375 160 375 260 375 c 2
 440 375 l 2
 460 375 477 375 477 390 c 3
 477 400 471 413 465 425 c 2
 440 475 l 1
 330 420 l 1
 300 480 l 1
 410 535 l 1
 345 660 l 1
 495 660 l 1
 530 595 l 1
 610 635 l 1
 640 575 l 1
 560 535 l 1
 600 455 l 2
 640 375 640 300 640 220 c 2
 640 115 l 2
 640 0 540 0 440 0 c 2
 260 0 l 2
 160 0 60 0 60 115 c 2
200 105 m 2
 200 75 225 75 250 75 c 2
 450 75 l 2
 475 75 500 75 500 105 c 2
 500 270 l 2
 500 295 475 300 450 300 c 2
 250 300 l 2
 225 300 200 300 200 270 c 2
 200 105 l 2
EndSplineSet
Validated: 1
EndChar

StartChar: circumflex
Encoding: 710 710 176
Width: 500
VWidth: 0
Flags: W
HStem: 550 160
LayerCount: 2
Fore
SplineSet
50 550 m 1
 210 710 l 1
 290 710 l 1
 450 550 l 1
 350 550 l 1
 250 640 l 1
 150 550 l 1
 50 550 l 1
EndSplineSet
Validated: 1
EndChar

StartChar: ogonek
Encoding: 731 731 177
Width: 500
VWidth: 0
Flags: W
HStem: -225 50<238.337 320> -20 20G<185 320>
VStem: 130 100<-165.186 -76.4885>
LayerCount: 2
Fore
SplineSet
130 -135 m 0
 130 -100 150 -70 220 0 c 1
 320 0 l 1
 245 -75 230 -100 230 -130 c 0
 230 -170 270 -175 310 -175 c 2
 320 -175 l 1
 320 -225 l 1
 290 -225 l 2
 210 -225 130 -215 130 -135 c 0
EndSplineSet
Validated: 1
EndChar

StartChar: tilde
Encoding: 732 732 178
Width: 500
VWidth: 0
Flags: MW
HStem: 560 70<287.6 369.854> 630 70<130.146 212.4>
VStem: 50 90<560 560> 360 90<700 700>
LayerCount: 2
Fore
SplineSet
145 700 m 0x40
 170 700 180 695 250 660 c 0
 290 640 310 630 320 630 c 0x80
 335 630 345 640 360 700 c 1
 450 700 l 1x40
 425 595 395 560 355 560 c 0x80
 330 560 320 565 250 600 c 0
 210 620 190 630 180 630 c 0x40
 165 630 155 620 140 560 c 1
 50 560 l 1x80
 75 665 105 700 145 700 c 0x40
EndSplineSet
Validated: 1
EndChar

StartChar: ring
Encoding: 730 730 179
Width: 500
VWidth: 0
Flags: MW
HStem: 550 21G<155 345> 730 50<176.982 323.018>
VStem: 75 100<601.746 728.254> 325 100<601.746 728.254>
LayerCount: 2
Fore
SplineSet
75 635 m 2
 75 695 l 2
 75 752 115 780 195 780 c 2
 305 780 l 2
 385 780 425 752 425 695 c 2
 425 635 l 2
 425 578 385 550 305 550 c 2
 195 550 l 2
 115 550 75 578 75 635 c 2
175 620 m 2
 175 607 185 600 205 600 c 2
 295 600 l 2
 315 600 325 607 325 620 c 2
 325 710 l 2
 325 723 315 730 295 730 c 2
 205 730 l 2
 185 730 175 723 175 710 c 2
 175 620 l 2
EndSplineSet
Validated: 1
EndChar

StartChar: Lslash
Encoding: 321 321 201
Width: 850
VWidth: 0
Flags: MW
HStem: 0 85<270 820> 640 20G<120 270>
VStem: 120 150<85 275 445 660> 800 20G
LayerCount: 2
Fore
SplineSet
20 225 m 1
 20 320 l 1
 120 370 l 1
 120 660 l 1
 270 660 l 1
 270 445 l 1
 470 545 l 1
 470 450 l 1
 270 350 l 1
 270 85 l 1
 820 85 l 1
 820 0 l 1
 120 0 l 1
 120 275 l 1
 20 225 l 1
EndSplineSet
Validated: 1
EndChar

StartChar: lslash
Encoding: 322 322 202
Width: 340
VWidth: 0
Flags: MW
HStem: 0 21G<100 240> 640 20G<100 240>
VStem: 100 140<0 280 440 660>
LayerCount: 2
Fore
SplineSet
20 240 m 1
 20 330 l 1
 100 370 l 1
 100 660 l 1
 240 660 l 1
 240 440 l 1
 320 480 l 1
 320 390 l 1
 240 350 l 1
 240 0 l 1
 100 0 l 1
 100 280 l 1
 20 240 l 1
EndSplineSet
Validated: 1
EndChar

StartChar: dotaccent
Encoding: 729 729 208
Width: 500
VWidth: 0
Flags: W
HStem: 580 100<190 310>
VStem: 190 120<580 680>
LayerCount: 2
Fore
SplineSet
190 580 m 1
 190 680 l 1
 310 680 l 1
 310 580 l 1
 190 580 l 1
EndSplineSet
Validated: 1
EndChar

StartChar: caron
Encoding: 711 711 215
Width: 500
VWidth: 0
Flags: W
HStem: 550 160
LayerCount: 2
Fore
SplineSet
50 710 m 1
 150 710 l 1
 250 620 l 1
 350 710 l 1
 450 710 l 1
 290 550 l 1
 210 550 l 1
 50 710 l 1
EndSplineSet
Validated: 1
EndChar

StartChar: breve
Encoding: 728 728 225
Width: 500
VWidth: 0
Flags: W
HStem: 550 21G<206 294>
VStem: 90 75<655.133 710> 335 75<655.133 710>
LayerCount: 2
Fore
SplineSet
90 710 m 1
 165 710 l 1
 165 663 203 625 250 625 c 0
 297 625 335 663 335 710 c 1
 410 710 l 1
 410 622 338 550 250 550 c 0
 162 550 90 622 90 710 c 1
EndSplineSet
Validated: 1
EndChar

StartChar: hungarumlaut
Encoding: 733 733 252
Width: 500
VWidth: 0
Flags: MW
HStem: 550 160
VStem: 70 200 290 200
LayerCount: 2
Fore
SplineSet
70 550 m 1
 150 710 l 1
 270 710 l 1
 150 550 l 1
 70 550 l 1
290 550 m 1
 370 710 l 1
 490 710 l 1
 370 550 l 1
 290 550 l 1
EndSplineSet
Validated: 1
EndChar

StartChar: dcroat
Encoding: 273 273 258
Width: 720
VWidth: 0
Flags: W
HStem: 0 75<204.409 500> 405 75<204.409 500> 540 65<350 500 640 700> 640 20G<500 640>
VStem: 60 140<77.041 402.959> 500 140<75 405 480 540 605 660>
LayerCount: 2
Fore
SplineSet
60 115 m 2
 60 365 l 2
 60 480 160 480 260 480 c 2
 500 480 l 1
 500 540 l 1
 350 540 l 1
 350 605 l 1
 500 605 l 1
 500 660 l 1
 640 660 l 1
 640 605 l 1
 700 605 l 1
 700 540 l 1
 640 540 l 1
 640 0 l 1
 260 0 l 2
 160 0 60 0 60 115 c 2
200 105 m 2
 200 75 225 75 250 75 c 2
 500 75 l 1
 500 405 l 1
 250 405 l 2
 225 405 200 405 200 375 c 2
 200 105 l 2
EndSplineSet
Validated: 1
EndChar

StartChar: afii10107
Encoding: 1114 1114 288
Width: 1060
VWidth: 0
Flags: W
HStem: 0 75<600 855.591> 225 75<200 460 600 855.591> 460 20G<60 200 460 600>
VStem: 60 140<0 225 300 480> 460 140<75 225 300 480> 860 140<77.041 222.959>
CounterMasks: 1 1c
LayerCount: 2
Fore
SplineSet
60 0 m 1
 60 480 l 1
 200 480 l 1
 200 300 l 1
 460 300 l 1
 460 480 l 1
 600 480 l 1
 600 300 l 1
 800 300 l 2
 900 300 1000 300 1000 185 c 2
 1000 115 l 2
 1000 0 900 0 800 0 c 2
 460 0 l 1
 460 225 l 1
 200 225 l 1
 200 0 l 1
 60 0 l 1
600 75 m 1
 810 75 l 2
 835 75 860 75 860 105 c 2
 860 195 l 2
 860 225 835 225 810 225 c 2
 600 225 l 1
 600 75 l 1
EndSplineSet
Validated: 1
EndChar

StartChar: afii10069
Encoding: 1076 1076 289
Width: 810
VWidth: 0
Flags: MW
HStem: 0 75<150 165 308 560> 405 75<360 560>
VStem: 30 120<-125 0> 220 140<131.161 405> 560 140<75 405> 660 120<-125 0>
LayerCount: 2
Fore
SplineSet
30 75 m 1xf4
 165 75 220 106 220 225 c 10
 220 480 l 1
 700 480 l 1
 700 75 l 1xf8
 780 75 l 1
 780 -125 l 1
 660 -125 l 1
 660 0 l 1
 150 0 l 1
 150 -125 l 1
 30 -125 l 1
 30 75 l 1xf4
308 75 m 1
 560 75 l 1
 560 405 l 1
 360 405 l 1
 360 225 l 2
 360 172 350 117 308 75 c 1
EndSplineSet
Validated: 1
EndChar

StartChar: afii10042
Encoding: 1064 1064 290
Width: 1090
VWidth: 0
Flags: MW
HStem: 0 85<220 470 620 870> 640 20G<70 220 470 620 870 1020>
VStem: 70 400 70 150<85 660> 470 400 470 150<85 660> 870 150<85 660>
CounterMasks: 1 16
LayerCount: 2
Fore
SplineSet
70 0 m 1
 70 660 l 1x20
 220 660 l 1
 220 85 l 1
 470 85 l 1
 470 660 l 1x08
 620 660 l 1
 620 85 l 1
 870 85 l 1
 870 660 l 1
 1020 660 l 1
 1020 0 l 1
 70 0 l 1
EndSplineSet
Validated: 1
EndChar

StartChar: afii10084
Encoding: 1090 1090 291
Width: 700
VWidth: 0
Flags: W
HStem: 0 21G<280 420> 405 75<60 280 420 640>
VStem: 280 140<0 405>
LayerCount: 2
Fore
SplineSet
60 405 m 1
 60 480 l 1
 640 480 l 1
 640 405 l 1
 420 405 l 1
 420 0 l 1
 280 0 l 1
 280 405 l 1
 60 405 l 1
EndSplineSet
Validated: 1
EndChar

StartChar: afii10072
Encoding: 1078 1078 292
Width: 920
VWidth: 0
Flags: W
HStem: 0 21G<20 200 390 530 720 900> 460 20G<40 220 390 530 700 880>
VStem: 390 140<0 130 290 480>
LayerCount: 2
Fore
SplineSet
20 0 m 1
 270 250 l 1
 40 480 l 1
 200 480 l 1
 390 290 l 1
 390 480 l 1
 530 480 l 1
 530 290 l 1
 720 480 l 1
 880 480 l 1
 650 250 l 1
 900 0 l 1
 740 0 l 1
 570 170 l 1
 530 130 l 1
 530 0 l 1
 390 0 l 1
 390 130 l 1
 350 170 l 1
 180 0 l 1
 20 0 l 1
EndSplineSet
Validated: 1
EndChar

StartChar: afii10068
Encoding: 1075 1075 293
Width: 660
VWidth: 0
Flags: MW
HStem: 0 21G<60 200> 405 75<200 600>
VStem: 60 140<0 405> 580 20G
LayerCount: 2
Fore
SplineSet
60 0 m 1
 60 480 l 1
 600 480 l 1
 600 405 l 1
 200 405 l 1
 200 0 l 1
 60 0 l 1
EndSplineSet
Validated: 1
EndChar

StartChar: afii10018
Encoding: 1041 1041 294
Width: 890
VWidth: 0
Flags: W
HStem: 0 85<220 667.917> 325 85<220 667.917> 575 85<220 770>
VStem: 70 150<85 325 410 575> 670 150<90.4395 319.561>
LayerCount: 2
Fore
SplineSet
70 0 m 1
 70 660 l 1
 770 660 l 1
 770 575 l 1
 220 575 l 1
 220 410 l 1
 580 410 l 2
 700 410 820 410 820 275 c 2
 820 135 l 2
 820 0 700 0 580 0 c 2
 70 0 l 1
220 85 m 1
 610 85 l 2
 640 85 670 85 670 120 c 2
 670 290 l 2
 670 325 640 325 610 325 c 2
 220 325 l 1
 220 85 l 1
EndSplineSet
Validated: 1
EndChar

StartChar: afii10051
Encoding: 1026 1026 295
Width: 1140
VWidth: 0
Flags: W
HStem: -225 85<770 834.819> 0 21G<370 520> 325 85<520 917.917> 575 85<30 370 520 860>
VStem: 370 150<0 325 410 575> 920 150<-54.6695 319.561>
LayerCount: 2
Fore
SplineSet
30 575 m 1
 30 660 l 1
 860 660 l 1
 860 575 l 1
 520 575 l 1
 520 410 l 1
 830 410 l 2
 950 410 1070 410 1070 275 c 2
 1070 50 l 2
 1070 -195 870 -215 770 -225 c 1
 770 -140 l 1
 820 -130 920 -110 920 50 c 2
 920 290 l 2
 920 325 890 325 860 325 c 2
 520 325 l 1
 520 0 l 1
 370 0 l 1
 370 575 l 1
 30 575 l 1
EndSplineSet
Validated: 1
EndChar

StartChar: afii10067
Encoding: 1074 1074 296
Width: 700
VWidth: 0
Flags: W
HStem: 0 75<200 495.591> 225 75<200 489.298> 405 75<200 485.591>
VStem: 60 140<75 225 300 405> 490 140<301.817 401.654> 500 140<78.3459 223.324>
LayerCount: 2
Fore
SplineSet
60 0 m 1xf4
 60 480 l 1
 430 480 l 2
 530 480 630 480 630 380 c 2
 630 355 l 2xf8
 630 300 605 275 565 265 c 1
 605 255 640 230 640 175 c 2
 640 100 l 2
 640 0 540 0 440 0 c 2
 60 0 l 1xf4
200 75 m 1
 450 75 l 2
 475 75 500 75 500 100 c 2
 500 200 l 2xf4
 500 225 475 225 450 225 c 2
 200 225 l 1
 200 75 l 1
200 300 m 1
 440 300 l 2
 465 300 490 300 490 325 c 2
 490 380 l 2xf8
 490 405 465 405 440 405 c 2
 200 405 l 1
 200 300 l 1
EndSplineSet
Validated: 1
EndChar

StartChar: afii10086
Encoding: 1092 1092 297
Width: 940
VWidth: 0
Flags: MW
HStem: -225 21G<400 540> 0 75<204.409 400 540 735.591> 405 75<204.409 400 540 735.591> 640 20G<400 540>
VStem: 60 340 60 140<77.041 402.959> 400 340 400 140<-225 0 75 405 480 660> 740 140<77.041 402.959>
CounterMasks: 1 0580
LayerCount: 2
Fore
SplineSet
60 115 m 2
 60 365 l 2x08
 60 480 160 480 260 480 c 2
 400 480 l 1
 400 660 l 1
 540 660 l 1
 540 480 l 1
 680 480 l 2
 780 480 880 480 880 365 c 2
 880 115 l 2
 880 0 780 0 680 0 c 2
 540 0 l 1
 540 -225 l 1
 400 -225 l 1
 400 0 l 1
 260 0 l 2
 160 0 60 0 60 115 c 2
200 105 m 2
 200 75 225 75 250 75 c 2
 400 75 l 1
 400 405 l 1x02
 250 405 l 2
 225 405 200 405 200 375 c 2
 200 105 l 2
540 75 m 1
 690 75 l 2
 715 75 740 75 740 105 c 2
 740 375 l 2
 740 405 715 405 690 405 c 2
 540 405 l 1
 540 75 l 1
EndSplineSet
Validated: 1
EndChar

StartChar: afii10066
Encoding: 1073 1073 298
Width: 700
VWidth: 0
Flags: W
HStem: 0 75<204.409 495.591> 405 75<200.865 495.591> 600 60<379.722 600>
VStem: 60 140<77.041 402.989 480 519.473> 500 140<77.041 402.959>
LayerCount: 2
Fore
SplineSet
60 115 m 2
 60 425 l 2
 60 595 205 660 600 660 c 1
 600 600 l 1
 405 600 200 565 200 480 c 1
 440 480 l 2
 540 480 640 480 640 365 c 2
 640 115 l 2
 640 0 540 0 440 0 c 2
 260 0 l 2
 160 0 60 0 60 115 c 2
200 105 m 2
 200 75 225 75 250 75 c 2
 450 75 l 2
 475 75 500 75 500 105 c 2
 500 375 l 2
 500 405 475 405 450 405 c 2
 250 405 l 2
 225 405 200 405 200 375 c 2
 200 105 l 2
EndSplineSet
Validated: 1
EndChar

StartChar: afii10099
Encoding: 1106 1106 299
Width: 740
VWidth: 0
Flags: W
HStem: -225 75<430 483.541> 0 21G<100 240> 330 75<240 535.591> 510 65<20 100 240 460> 640 20G<100 240>
VStem: 100 140<0 330 405 510 575 660> 540 140<-94.1748 326.654>
LayerCount: 2
Fore
SplineSet
20 510 m 1
 20 575 l 1
 100 575 l 1
 100 660 l 1
 240 660 l 1
 240 575 l 1
 460 575 l 1
 460 510 l 1
 240 510 l 1
 240 405 l 1
 480 405 l 2
 580 405 680 405 680 305 c 2
 680 0 l 2
 680 -200 530 -215 430 -225 c 1
 430 -150 l 1
 510 -130 540 -90 540 0 c 2
 540 305 l 2
 540 330 515 330 490 330 c 2
 240 330 l 1
 240 0 l 1
 100 0 l 1
 100 510 l 1
 20 510 l 1
EndSplineSet
Validated: 1
EndChar

StartChar: afii10047
Encoding: 1069 1069 300
Width: 890
VWidth: 0
Flags: W
HStem: 0 85<247.686 642.314> 325 85<295 670> 575 85<247.686 642.314>
VStem: 70 150<113.887 170 490 546.113> 670 150<113.887 325 410 546.113>
LayerCount: 2
Fore
SplineSet
70 170 m 1
 220 170 l 1
 220 85 295 85 370 85 c 2
 520 85 l 2
 595 85 670 85 670 170 c 2
 670 325 l 1
 295 325 l 1
 295 410 l 1
 670 410 l 1
 670 490 l 2
 670 575 595 575 520 575 c 2
 370 575 l 2
 295 575 220 575 220 490 c 1
 70 490 l 1
 70 660 220 660 370 660 c 2
 520 660 l 2
 670 660 820 660 820 490 c 2
 820 170 l 2
 820 0 670 0 520 0 c 2
 370 0 l 2
 220 0 70 0 70 170 c 1
EndSplineSet
Validated: 1
EndChar

StartChar: afii10045
Encoding: 1067 1067 301
Width: 1090
VWidth: 0
Flags: W
HStem: 0 85<220 617.917> 325 85<220 617.917> 640 20G<70 220 870 1020>
VStem: 70 150<85 325 410 660> 620 150<90.4395 319.561> 870 150<0 660>
LayerCount: 2
Fore
SplineSet
70 0 m 1
 70 660 l 1
 220 660 l 1
 220 410 l 1
 530 410 l 2
 650 410 770 410 770 275 c 2
 770 135 l 2
 770 0 650 0 530 0 c 2
 70 0 l 1
220 85 m 1
 560 85 l 2
 590 85 620 85 620 120 c 2
 620 290 l 2
 620 325 590 325 560 325 c 2
 220 325 l 1
 220 85 l 1
870 0 m 1
 870 660 l 1
 1020 660 l 1
 1020 0 l 1
 870 0 l 1
EndSplineSet
Validated: 1
EndChar

StartChar: afii10059
Encoding: 1034 1034 302
Width: 1390
VWidth: 0
Flags: W
HStem: 0 85<770 1167.92> 325 85<220 620 770 1167.92> 640 20G<70 220 620 770>
VStem: 70 150<0 325 410 660> 620 150<85 325 410 660> 1170 150<90.4395 319.561>
CounterMasks: 1 1c
LayerCount: 2
Fore
SplineSet
70 0 m 1
 70 660 l 1
 220 660 l 1
 220 410 l 1
 620 410 l 1
 620 660 l 1
 770 660 l 1
 770 410 l 1
 1080 410 l 2
 1200 410 1320 410 1320 275 c 2
 1320 135 l 2
 1320 0 1200 0 1080 0 c 2
 620 0 l 1
 620 325 l 1
 220 325 l 1
 220 0 l 1
 70 0 l 1
770 85 m 1
 1110 85 l 2
 1140 85 1170 85 1170 120 c 2
 1170 290 l 2
 1170 325 1140 325 1110 325 c 2
 770 325 l 1
 770 85 l 1
EndSplineSet
Validated: 1
EndChar

StartChar: afii10145
Encoding: 1039 1039 304
Width: 890
VWidth: 0
Flags: W
HStem: 0 85<220 380 510 670> 640 20G<70 220 670 820>
VStem: 70 150<85 660> 380 130<-150 0> 670 150<85 660>
CounterMasks: 1 38
LayerCount: 2
Fore
SplineSet
70 0 m 1
 70 660 l 1
 220 660 l 1
 220 85 l 1
 670 85 l 1
 670 660 l 1
 820 660 l 1
 820 0 l 1
 510 0 l 1
 510 -150 l 1
 380 -150 l 1
 380 0 l 1
 70 0 l 1
EndSplineSet
Validated: 1
EndChar

StartChar: afii10048
Encoding: 1070 1070 305
Width: 1190
VWidth: 0
Flags: W
HStem: 0 85<522.083 967.917> 290 85<220 370> 575 85<522.083 967.917>
VStem: 70 150<0 290 375 660> 370 150<90.4395 290 375 569.561> 970 150<90.4395 569.561>
LayerCount: 2
Fore
SplineSet
70 0 m 1
 70 660 l 1
 220 660 l 1
 220 375 l 1
 370 375 l 1
 370 525 l 2
 370 660 490 660 610 660 c 2
 880 660 l 2
 1000 660 1120 660 1120 525 c 2
 1120 135 l 2
 1120 0 1000 0 880 0 c 2
 610 0 l 2
 490 0 370 0 370 135 c 2
 370 290 l 1
 220 290 l 1
 220 0 l 1
 70 0 l 1
520 120 m 2
 520 85 550 85 580 85 c 2
 910 85 l 2
 940 85 970 85 970 120 c 2
 970 540 l 2
 970 575 940 575 910 575 c 2
 580 575 l 2
 550 575 520 575 520 540 c 2
 520 120 l 2
EndSplineSet
Validated: 1
EndChar

StartChar: afii10078
Encoding: 1084 1084 306
Width: 850
VWidth: 0
Flags: W
HStem: 0 21G<60 200 360 490 650 790> 460 20G<60 265 585 790>
VStem: 60 140<0 340> 650 140<0 340>
LayerCount: 2
Fore
SplineSet
60 0 m 1
 60 480 l 1
 255 480 l 1
 425 140 l 1
 595 480 l 1
 790 480 l 1
 790 0 l 1
 650 0 l 1
 650 340 l 1
 480 0 l 1
 370 0 l 1
 200 340 l 1
 200 0 l 1
 60 0 l 1
EndSplineSet
Validated: 1
EndChar

StartChar: afii10077
Encoding: 1083 1083 308
Width: 680
VWidth: 0
Flags: W
HStem: 0 75<30 83.5413> 405 75<280 480>
VStem: 140 140<130.825 405> 480 140<0 405>
LayerCount: 2
Fore
SplineSet
30 0 m 1
 30 75 l 1
 110 95 140 135 140 225 c 2
 140 480 l 1
 620 480 l 1
 620 0 l 1
 480 0 l 1
 480 405 l 1
 280 405 l 1
 280 225 l 2
 280 25 130 10 30 0 c 1
EndSplineSet
Validated: 1
EndChar

StartChar: afii10046
Encoding: 1068 1068 309
Width: 840
VWidth: 0
Flags: W
HStem: 0 85<220 617.917> 325 85<220 617.917> 640 20G<70 220>
VStem: 70 150<85 325 410 660> 620 150<90.4395 319.561>
LayerCount: 2
Fore
SplineSet
70 0 m 1
 70 660 l 1
 220 660 l 1
 220 410 l 1
 530 410 l 2
 650 410 770 410 770 275 c 2
 770 135 l 2
 770 0 650 0 530 0 c 2
 70 0 l 1
220 85 m 1
 560 85 l 2
 590 85 620 85 620 120 c 2
 620 290 l 2
 620 325 590 325 560 325 c 2
 220 325 l 1
 220 85 l 1
EndSplineSet
Validated: 1
EndChar

StartChar: afii10024
Encoding: 1046 1046 310
Width: 1150
VWidth: 0
Flags: W
HStem: 0 21G<20 220 500 650 930 1130> 640 20G<60 260 500 650 890 1090>
VStem: 500 150<0 220 400 660>
LayerCount: 2
Fore
SplineSet
20 0 m 1
 370 350 l 1
 60 660 l 1
 240 660 l 1
 500 400 l 1
 500 660 l 1
 650 660 l 1
 650 400 l 1
 910 660 l 1
 1090 660 l 1
 780 350 l 1
 1130 0 l 1
 950 0 l 1
 690 260 l 1
 650 220 l 1
 650 0 l 1
 500 0 l 1
 500 220 l 1
 460 260 l 1
 200 0 l 1
 20 0 l 1
EndSplineSet
Validated: 1
EndChar

StartChar: afii10073
Encoding: 1079 1079 311
Width: 660
VWidth: 0
Flags: W
HStem: 0 75<60 455.591> 225 75<140 459.135> 405 75<60 455.591>
VStem: 460 140<77.041 221.693 303.386 402.959>
LayerCount: 2
Fore
SplineSet
60 0 m 1
 60 75 l 1
 410 75 l 2
 435 75 460 75 460 105 c 2
 460 195 l 2
 460 225 435 225 410 225 c 2
 140 225 l 1
 140 300 l 1
 410 300 l 2
 435 300 460 300 460 330 c 2
 460 375 l 2
 460 405 435 405 410 405 c 2
 60 405 l 1
 60 480 l 1
 400 480 l 2
 500 480 600 480 600 365 c 2
 600 355 l 2
 600 300 565 275 525 265 c 1
 565 255 600 230 600 175 c 2
 600 115 l 2
 600 0 500 0 400 0 c 2
 60 0 l 1
EndSplineSet
Validated: 1
EndChar

StartChar: afii10049
Encoding: 1071 1071 312
Width: 890
VWidth: 0
Flags: W
HStem: 0 21G<30 230 670 820> 290 85<222.083 320 500 670> 575 85<222.083 670>
VStem: 70 150<380.439 569.561> 670 150<0 290 375 575>
LayerCount: 2
Fore
SplineSet
30 0 m 1
 320 290 l 1
 310 290 l 2
 190 290 70 290 70 425 c 2
 70 525 l 2
 70 660 190 660 310 660 c 2
 820 660 l 1
 820 0 l 1
 670 0 l 1
 670 290 l 1
 500 290 l 1
 210 0 l 1
 30 0 l 1
220 410 m 2
 220 375 250 375 280 375 c 2
 670 375 l 1
 670 575 l 1
 280 575 l 2
 250 575 220 575 220 540 c 2
 220 410 l 2
EndSplineSet
Validated: 1
EndChar

StartChar: afii10193
Encoding: 1119 1119 313
Width: 700
VWidth: 0
Flags: MW
HStem: 0 75<200 290 410 500> 460 20G<60 200 500 640>
VStem: 60 140<75 480> 290 120<-125 0> 500 140<75 480>
CounterMasks: 1 38
LayerCount: 2
Fore
SplineSet
60 0 m 1
 60 480 l 1
 200 480 l 1
 200 75 l 1
 500 75 l 1
 500 480 l 1
 640 480 l 1
 640 0 l 1
 410 0 l 1
 410 -125 l 1
 290 -125 l 1
 290 0 l 1
 60 0 l 1
EndSplineSet
Validated: 1
EndChar

StartChar: afii10025
Encoding: 1047 1047 314
Width: 840
VWidth: 0
Flags: W
HStem: 0 85<70 617.917> 325 85<160 617.917> 575 85<70 617.917>
VStem: 620 150<90.4395 321.395 414.629 569.561>
LayerCount: 2
Fore
SplineSet
70 0 m 1
 70 85 l 1
 560 85 l 2
 590 85 620 85 620 120 c 2
 620 290 l 2
 620 325 590 325 560 325 c 2
 160 325 l 1
 160 410 l 1
 560 410 l 2
 590 410 620 410 620 445 c 2
 620 540 l 2
 620 575 590 575 560 575 c 2
 70 575 l 1
 70 660 l 1
 530 660 l 2
 650 660 770 660 770 525 c 2
 770 470 l 2
 770 410 730 380 690 370 c 1
 730 360 770 330 770 270 c 2
 770 135 l 2
 770 0 650 0 530 0 c 2
 70 0 l 1
EndSplineSet
Validated: 1
EndChar

StartChar: afii10040
Encoding: 1062 1062 315
Width: 960
VWidth: 0
Flags: W
HStem: 0 85<220 670> 640 20G<70 220 670 820>
VStem: 70 150<85 660> 670 150<85 660> 790 130<-150 0>
LayerCount: 2
Fore
SplineSet
70 0 m 1xe8
 70 660 l 1
 220 660 l 1
 220 85 l 1
 670 85 l 1
 670 660 l 1
 820 660 l 1
 820 85 l 1xf0
 920 85 l 1
 920 -150 l 1
 790 -150 l 1
 790 0 l 1
 70 0 l 1xe8
EndSplineSet
Validated: 1
EndChar

StartChar: afii10037
Encoding: 1059 1059 316
Width: 800
VWidth: 0
Flags: MW
HStem: 0 85<120 249.98> 640 20G<20 193.333 606.667 780>
VStem: 120 21G
LayerCount: 2
Fore
SplineSet
20 660 m 1
 180 660 l 1
 400 330 l 1
 620 660 l 1
 780 660 l 1
 400 90 l 2
 360 30 340 0 250 0 c 2
 120 0 l 1
 120 85 l 1
 180 85 l 2
 235 85 240 90 270 135 c 2
 320 210 l 1
 20 660 l 1
EndSplineSet
Validated: 1
EndChar

StartChar: afii10090
Encoding: 1096 1096 317
Width: 900
VWidth: 0
Flags: MW
HStem: 0 75<200 380 520 700> 460 20G<60 200 380 520 700 840>
VStem: 60 320 60 140<75 480> 380 320 380 140<75 480> 700 140<75 480>
CounterMasks: 1 16
LayerCount: 2
Fore
SplineSet
60 0 m 1
 60 480 l 1x20
 200 480 l 1
 200 75 l 1
 380 75 l 1
 380 480 l 1x08
 520 480 l 1
 520 75 l 1
 700 75 l 1
 700 480 l 1
 840 480 l 1
 840 0 l 1
 60 0 l 1
EndSplineSet
Validated: 1
EndChar

StartChar: afii10043
Encoding: 1065 1065 318
Width: 1160
VWidth: 0
Flags: MW
HStem: 0 85<220 470 620 870> 640 20G<70 220 470 620 870 1020>
VStem: 70 400 70 150<85 660> 470 400 470 150<85 660> 870 150<85 660> 990 130<-150 0>
LayerCount: 2
Fore
SplineSet
70 0 m 1xd5
 70 660 l 1x20
 220 660 l 1
 220 85 l 1
 470 85 l 1
 470 660 l 1x08
 620 660 l 1
 620 85 l 1
 870 85 l 1
 870 660 l 1
 1020 660 l 1
 1020 85 l 1xd6
 1120 85 l 1
 1120 -150 l 1
 990 -150 l 1
 990 0 l 1
 70 0 l 1xd5
EndSplineSet
Validated: 1
EndChar

StartChar: afii10088
Encoding: 1094 1094 319
Width: 750
VWidth: 0
Flags: W
HStem: 0 75<200 500> 460 20G<60 200 500 640>
VStem: 60 140<75 480> 500 140<75 480> 600 120<-125 0>
LayerCount: 2
Fore
SplineSet
60 0 m 1xe8
 60 480 l 1
 200 480 l 1
 200 75 l 1
 500 75 l 1
 500 480 l 1
 640 480 l 1
 640 75 l 1xf0
 720 75 l 1
 720 -125 l 1
 600 -125 l 1
 600 0 l 1
 60 0 l 1xe8
EndSplineSet
Validated: 1
EndChar

StartChar: afii10053
Encoding: 1028 1028 320
Width: 890
VWidth: 0
Flags: W
HStem: 0 85<247.686 642.314> 325 85<220 595> 575 85<247.686 642.314>
VStem: 70 150<113.887 325 410 546.113> 670 150<113.887 170 490 546.113>
LayerCount: 2
Fore
SplineSet
70 170 m 2
 70 490 l 2
 70 660 220 660 370 660 c 2
 520 660 l 2
 670 660 820 660 820 490 c 1
 670 490 l 1
 670 575 595 575 520 575 c 2
 370 575 l 2
 295 575 220 575 220 490 c 2
 220 410 l 1
 595 410 l 1
 595 325 l 1
 220 325 l 1
 220 170 l 2
 220 85 295 85 370 85 c 2
 520 85 l 2
 595 85 670 85 670 170 c 1
 820 170 l 1
 820 0 670 0 520 0 c 2
 370 0 l 2
 220 0 70 0 70 170 c 2
EndSplineSet
Validated: 1
EndChar

StartChar: afii10095
Encoding: 1101 1101 321
Width: 700
VWidth: 0
Flags: W
HStem: 0 75<213.205 481.157> 225 75<250 500> 405 75<213.205 481.157>
VStem: 60 140<93.1405 130 350 386.859> 500 140<92.0272 225 300 387.973>
LayerCount: 2
Fore
SplineSet
60 130 m 1
 200 130 l 1
 200 80 255 75 310 75 c 2
 390 75 l 2
 445 75 500 75 500 140 c 2
 500 225 l 1
 250 225 l 1
 250 300 l 1
 500 300 l 1
 500 340 l 2
 500 400 445 405 390 405 c 2
 310 405 l 2
 255 405 200 400 200 350 c 1
 60 350 l 1
 60 475 190 480 320 480 c 2
 380 480 l 2
 510 480 640 480 640 335 c 2
 640 145 l 2
 640 0 510 0 380 0 c 2
 320 0 l 2
 190 0 60 5 60 130 c 1
EndSplineSet
Validated: 1
EndChar

StartChar: afii10094
Encoding: 1100 1100 322
Width: 660
VWidth: 0
Flags: W
HStem: 0 75<200 455.591> 225 75<200 455.591> 460 20G<60 200>
VStem: 60 140<75 225 300 480> 460 140<77.041 222.959>
LayerCount: 2
Fore
SplineSet
60 0 m 1
 60 480 l 1
 200 480 l 1
 200 300 l 1
 400 300 l 2
 500 300 600 300 600 185 c 2
 600 115 l 2
 600 0 500 0 400 0 c 2
 60 0 l 1
200 75 m 1
 410 75 l 2
 435 75 460 75 460 105 c 2
 460 195 l 2
 460 225 435 225 410 225 c 2
 200 225 l 1
 200 75 l 1
EndSplineSet
Validated: 1
EndChar

StartChar: afii10041
Encoding: 1063 1063 323
Width: 890
VWidth: 0
Flags: W
HStem: 0 21G<670 820> 270 85<222.083 670> 640 20G<70 220 670 820>
VStem: 70 150<360.439 660> 670 150<0 270 355 660>
LayerCount: 2
Fore
SplineSet
70 405 m 2
 70 660 l 1
 220 660 l 1
 220 390 l 2
 220 355 250 355 280 355 c 2
 670 355 l 1
 670 660 l 1
 820 660 l 1
 820 0 l 1
 670 0 l 1
 670 270 l 1
 310 270 l 2
 190 270 70 270 70 405 c 2
EndSplineSet
Validated: 1
EndChar

StartChar: afii10074
Encoding: 1080 1080 324
Width: 700
VWidth: 0
Flags: W
HStem: 0 21G<60 227.576 500 640> 460 20G<60 200 472.424 640>
VStem: 60 140<150 480> 500 140<0 330>
LayerCount: 2
Fore
SplineSet
60 0 m 1
 60 480 l 1
 200 480 l 1
 200 150 l 1
 490 480 l 1
 640 480 l 1
 640 0 l 1
 500 0 l 1
 500 330 l 1
 210 0 l 1
 60 0 l 1
EndSplineSet
Validated: 1
EndChar

StartChar: afii10026
Encoding: 1048 1048 325
Width: 890
VWidth: 0
Flags: W
HStem: 0 21G<70 247.959 670 820> 640 20G<70 220 642.041 820>
VStem: 70 150<170 660> 670 150<0 490>
LayerCount: 2
Fore
SplineSet
70 0 m 1
 70 660 l 1
 220 660 l 1
 220 170 l 1
 660 660 l 1
 820 660 l 1
 820 0 l 1
 670 0 l 1
 670 490 l 1
 230 0 l 1
 70 0 l 1
EndSplineSet
Validated: 1
EndChar

StartChar: afii61352
Encoding: 8470 8470 326
Width: 1290
VWidth: 0
Flags: W
HStem: 0 60<800 1220> 140 60<922.805 1097.19> 420 60<922.805 1097.19> 640 20G<70 244.167 570 720>
VStem: 70 150<0 480> 570 150<180 660> 800 120<203.581 416.419> 1100 120<203.581 416.419>
LayerCount: 2
Fore
SplineSet
70 0 m 1
 70 660 l 1
 230 660 l 1
 570 180 l 1
 570 660 l 1
 720 660 l 1
 720 0 l 1
 560 0 l 1
 220 480 l 1
 220 0 l 1
 70 0 l 1
800 0 m 1
 800 60 l 1
 1220 60 l 1
 1220 0 l 1
 800 0 l 1
800 230 m 2
 800 390 l 2
 800 480 880 480 960 480 c 2
 1060 480 l 2
 1140 480 1220 480 1220 390 c 2
 1220 230 l 2
 1220 140 1140 140 1060 140 c 2
 960 140 l 2
 880 140 800 140 800 230 c 2
920 225 m 2
 920 200 940 200 960 200 c 2
 1060 200 l 2
 1080 200 1100 200 1100 225 c 2
 1100 395 l 2
 1100 420 1080 420 1060 420 c 2
 960 420 l 2
 940 420 920 420 920 395 c 2
 920 225 l 2
EndSplineSet
Validated: 1
EndChar

StartChar: afii10029
Encoding: 1051 1051 327
Width: 910
VWidth: 0
Flags: W
HStem: 0 85<40 104.819> 575 85<340 690>
VStem: 190 150<170.331 575> 690 150<0 575>
LayerCount: 2
Fore
SplineSet
40 0 m 1
 40 85 l 1
 90 95 190 115 190 275 c 2
 190 660 l 1
 840 660 l 1
 840 0 l 1
 690 0 l 1
 690 575 l 1
 340 575 l 1
 340 275 l 2
 340 30 140 10 40 0 c 1
EndSplineSet
Validated: 1
EndChar

StartChar: afii10058
Encoding: 1033 1033 328
Width: 1310
VWidth: 0
Flags: W
HStem: 0 85<40 104.819 690 1087.92> 325 85<690 1087.92> 575 85<340 540>
VStem: 190 150<170.331 575> 540 150<85 325 410 575> 1090 150<90.4395 319.561>
LayerCount: 2
Fore
SplineSet
40 0 m 1
 40 85 l 1
 90 95 190 115 190 275 c 2
 190 660 l 1
 690 660 l 1
 690 410 l 1
 1000 410 l 2
 1120 410 1240 410 1240 275 c 2
 1240 135 l 2
 1240 0 1120 0 1000 0 c 2
 540 0 l 1
 540 575 l 1
 340 575 l 1
 340 275 l 2
 340 30 140 10 40 0 c 1
690 85 m 1
 1030 85 l 2
 1060 85 1090 85 1090 120 c 2
 1090 290 l 2
 1090 325 1060 325 1030 325 c 2
 690 325 l 1
 690 85 l 1
EndSplineSet
Validated: 1
EndChar

StartChar: afii10081
Encoding: 1087 1087 329
Width: 700
VWidth: 0
Flags: W
HStem: 0 21G<60 200 500 640> 405 75<200 500>
VStem: 60 140<0 405> 500 140<0 405>
LayerCount: 2
Fore
SplineSet
60 0 m 1
 60 480 l 1
 640 480 l 1
 640 0 l 1
 500 0 l 1
 500 405 l 1
 200 405 l 1
 200 0 l 1
 60 0 l 1
EndSplineSet
Validated: 1
EndChar

StartChar: afii10096
Encoding: 1102 1102 330
Width: 980
VWidth: 0
Flags: W
HStem: 0 75<484.409 775.591> 205 75<200 340> 405 75<484.409 775.591>
VStem: 60 140<0 205 280 480> 340 140<77.041 205 280 402.959> 780 140<77.041 402.959>
LayerCount: 2
Fore
SplineSet
60 0 m 1
 60 480 l 1
 200 480 l 1
 200 280 l 1
 340 280 l 1
 340 365 l 2
 340 480 440 480 540 480 c 2
 720 480 l 2
 820 480 920 480 920 365 c 2
 920 115 l 2
 920 0 820 0 720 0 c 2
 540 0 l 2
 440 0 340 0 340 115 c 2
 340 205 l 1
 200 205 l 1
 200 0 l 1
 60 0 l 1
480 105 m 2
 480 75 505 75 530 75 c 2
 730 75 l 2
 755 75 780 75 780 105 c 2
 780 375 l 2
 780 405 755 405 730 405 c 2
 530 405 l 2
 505 405 480 405 480 375 c 2
 480 105 l 2
EndSplineSet
Validated: 1
EndChar

StartChar: afii10092
Encoding: 1098 1098 331
Width: 820
VWidth: 0
Flags: MW
HStem: 0 75<360 615.591> 225 75<360 615.591> 405 75<60 220>
VStem: 60 21G 220 140<75 225 300 405> 620 140<77.041 222.959>
LayerCount: 2
Fore
SplineSet
60 405 m 1
 60 480 l 1
 360 480 l 1
 360 300 l 1
 560 300 l 2
 660 300 760 300 760 185 c 2
 760 115 l 2
 760 0 660 0 560 0 c 2
 220 0 l 1
 220 405 l 1
 60 405 l 1
360 75 m 1
 570 75 l 2
 595 75 620 75 620 105 c 2
 620 195 l 2
 620 225 595 225 570 225 c 2
 360 225 l 1
 360 75 l 1
EndSplineSet
Validated: 1
EndChar

StartChar: afii10101
Encoding: 1108 1108 332
Width: 700
VWidth: 0
Flags: W
HStem: 0 75<218.843 486.795> 225 75<200 450> 405 75<218.843 486.795>
VStem: 60 140<92.0272 225 300 387.973> 500 140<93.1405 130 350 386.859>
LayerCount: 2
Fore
SplineSet
60 145 m 2
 60 335 l 2
 60 480 190 480 320 480 c 2
 380 480 l 2
 510 480 640 475 640 350 c 1
 500 350 l 1
 500 400 445 405 390 405 c 2
 310 405 l 2
 255 405 200 405 200 340 c 2
 200 300 l 1
 450 300 l 1
 450 225 l 1
 200 225 l 1
 200 140 l 2
 200 75 255 75 310 75 c 2
 390 75 l 2
 445 75 500 80 500 130 c 1
 640 130 l 1
 640 5 510 0 380 0 c 2
 320 0 l 2
 190 0 60 0 60 145 c 2
EndSplineSet
Validated: 1
EndChar

StartChar: afii10093
Encoding: 1099 1099 333
Width: 900
VWidth: 0
Flags: W
HStem: 0 75<200 455.591> 225 75<200 455.591> 460 20G<60 200 700 840>
VStem: 60 140<75 225 300 480> 460 140<77.041 222.959> 700 140<0 480>
LayerCount: 2
Fore
SplineSet
60 0 m 1
 60 480 l 1
 200 480 l 1
 200 300 l 1
 400 300 l 2
 500 300 600 300 600 185 c 2
 600 115 l 2
 600 0 500 0 400 0 c 2
 60 0 l 1
200 75 m 1
 410 75 l 2
 435 75 460 75 460 105 c 2
 460 195 l 2
 460 225 435 225 410 225 c 2
 200 225 l 1
 200 75 l 1
700 0 m 1
 700 480 l 1
 840 480 l 1
 840 0 l 1
 700 0 l 1
EndSplineSet
Validated: 1
EndChar

StartChar: afii10097
Encoding: 1103 1103 334
Width: 700
VWidth: 0
Flags: W
HStem: 0 21G<40 220 500 640> 195 75<201.641 235 395 500> 405 75<204.409 500>
VStem: 60 140<274.912 402.959> 500 140<0 195 270 405>
LayerCount: 2
Fore
SplineSet
40 0 m 1
 235 195 l 1
 145 195 60 205 60 310 c 2
 60 365 l 2
 60 480 160 480 260 480 c 2
 640 480 l 1
 640 0 l 1
 500 0 l 1
 500 195 l 1
 395 195 l 1
 200 0 l 1
 40 0 l 1
200 300 m 2
 200 270 225 270 250 270 c 2
 500 270 l 1
 500 405 l 1
 250 405 l 2
 225 405 200 405 200 375 c 2
 200 300 l 2
EndSplineSet
Validated: 1
EndChar

StartChar: afii10108
Encoding: 1115 1115 335
Width: 740
VWidth: 0
Flags: W
HStem: 0 21G<100 240 540 680> 330 75<240 535.591> 510 65<20 100 240 460> 640 20G<100 240>
VStem: 100 140<0 330 405 510 575 660> 540 140<0 327.959>
LayerCount: 2
Fore
SplineSet
20 510 m 1
 20 575 l 1
 100 575 l 1
 100 660 l 1
 240 660 l 1
 240 575 l 1
 460 575 l 1
 460 510 l 1
 240 510 l 1
 240 405 l 1
 480 405 l 2
 580 405 680 405 680 290 c 2
 680 0 l 1
 540 0 l 1
 540 300 l 2
 540 330 515 330 490 330 c 2
 240 330 l 1
 240 0 l 1
 100 0 l 1
 100 510 l 1
 20 510 l 1
EndSplineSet
Validated: 1
EndChar

StartChar: afii10091
Encoding: 1097 1097 336
Width: 950
VWidth: 0
Flags: MW
HStem: 0 75<200 380 520 700> 460 20G<60 200 380 520 700 840>
VStem: 60 320 60 140<75 480> 380 320 380 140<75 480> 700 140<75 480> 800 120<-125 0>
LayerCount: 2
Fore
SplineSet
60 0 m 1xd5
 60 480 l 1x20
 200 480 l 1
 200 75 l 1
 380 75 l 1
 380 480 l 1x08
 520 480 l 1
 520 75 l 1
 700 75 l 1
 700 480 l 1
 840 480 l 1
 840 75 l 1xd6
 920 75 l 1
 920 -125 l 1
 800 -125 l 1
 800 0 l 1
 60 0 l 1xd5
EndSplineSet
Validated: 1
EndChar

StartChar: afii10021
Encoding: 1044 1044 337
Width: 980
VWidth: 0
Flags: MW
HStem: 0 85<170 185 320 690> 575 85<390 690>
VStem: 40 130<-150 0> 240 150<170.433 575> 690 150<85 575> 810 130<-150 0>
LayerCount: 2
Fore
SplineSet
40 85 m 1xf4
 185 85 240 150 240 285 c 2
 240 660 l 1
 840 660 l 1
 840 85 l 1xf8
 940 85 l 1
 940 -150 l 1
 810 -150 l 1
 810 0 l 1
 170 0 l 1
 170 -150 l 1
 40 -150 l 1
 40 85 l 1xf4
320 85 m 1
 690 85 l 1
 690 575 l 1
 390 575 l 1
 390 285 l 2
 390 185 360 130 320 85 c 1
EndSplineSet
Validated: 1
EndChar

StartChar: afii10089
Encoding: 1095 1095 338
Width: 700
VWidth: 0
Flags: W
HStem: 0 21G<500 640> 195 75<204.409 500> 460 20G<60 200 500 640>
VStem: 60 140<272.041 480> 500 140<0 195 270 480>
LayerCount: 2
Fore
SplineSet
60 310 m 2
 60 480 l 1
 200 480 l 1
 200 300 l 2
 200 270 225 270 250 270 c 2
 500 270 l 1
 500 480 l 1
 640 480 l 1
 640 0 l 1
 500 0 l 1
 500 195 l 1
 260 195 l 2
 160 195 60 195 60 310 c 2
EndSplineSet
Validated: 1
EndChar

StartChar: afii10079
Encoding: 1085 1085 339
Width: 700
VWidth: 0
Flags: W
HStem: 0 21G<60 200 500 640> 225 75<200 500> 460 20G<60 200 500 640>
VStem: 60 140<0 225 300 480> 500 140<0 225 300 480>
LayerCount: 2
Fore
SplineSet
60 0 m 1
 60 480 l 1
 200 480 l 1
 200 300 l 1
 500 300 l 1
 500 480 l 1
 640 480 l 1
 640 0 l 1
 500 0 l 1
 500 225 l 1
 200 225 l 1
 200 0 l 1
 60 0 l 1
EndSplineSet
Validated: 1
EndChar

StartChar: afii10106
Encoding: 1113 1113 340
Width: 1020
VWidth: 0
Flags: W
HStem: 0 75<30 83.5413 560 815.591> 225 75<560 815.591> 405 75<280 420>
VStem: 140 140<130.825 405> 420 140<75 225 300 405> 820 140<77.041 222.959>
LayerCount: 2
Fore
SplineSet
30 0 m 1
 30 75 l 1
 110 95 140 135 140 225 c 2
 140 480 l 1
 560 480 l 1
 560 300 l 1
 760 300 l 2
 860 300 960 300 960 185 c 2
 960 115 l 2
 960 0 860 0 760 0 c 2
 420 0 l 1
 420 405 l 1
 280 405 l 1
 280 225 l 2
 280 25 130 10 30 0 c 1
560 75 m 1
 770 75 l 2
 795 75 820 75 820 105 c 2
 820 195 l 2
 820 225 795 225 770 225 c 2
 560 225 l 1
 560 75 l 1
EndSplineSet
Validated: 1
EndChar

StartChar: afii10044
Encoding: 1066 1066 342
Width: 1040
VWidth: 0
Flags: MW
HStem: 0 85<420 817.917> 325 85<420 817.917> 575 85<30 270>
VStem: 30 21G 270 150<85 325 410 575> 820 150<90.4395 319.561>
LayerCount: 2
Fore
SplineSet
30 575 m 1
 30 660 l 1
 420 660 l 1
 420 410 l 1
 730 410 l 2
 850 410 970 410 970 275 c 2
 970 135 l 2
 970 0 850 0 730 0 c 2
 270 0 l 1
 270 575 l 1
 30 575 l 1
420 85 m 1
 760 85 l 2
 790 85 820 85 820 120 c 2
 820 290 l 2
 820 325 790 325 760 325 c 2
 420 325 l 1
 420 85 l 1
EndSplineSet
Validated: 1
EndChar

StartChar: afii10060
Encoding: 1035 1035 343
Width: 1140
VWidth: 0
Flags: W
HStem: 0 21G<370 520 920 1070> 325 85<520 917.917> 575 85<30 370 520 860>
VStem: 370 150<0 325 410 575> 920 150<0 319.561>
LayerCount: 2
Fore
SplineSet
30 575 m 1
 30 660 l 1
 860 660 l 1
 860 575 l 1
 520 575 l 1
 520 410 l 1
 830 410 l 2
 950 410 1070 410 1070 275 c 2
 1070 0 l 1
 920 0 l 1
 920 290 l 2
 920 325 890 325 860 325 c 2
 520 325 l 1
 520 0 l 1
 370 0 l 1
 370 575 l 1
 30 575 l 1
EndSplineSet
Validated: 1
EndChar

StartChar: endash
Encoding: 8211 8211 352
Width: 500
VWidth: 0
Flags: MW
HStem: 190 100<20 480>
VStem: 20 460
LayerCount: 2
Fore
SplineSet
20 190 m 1
 20 290 l 1
 480 290 l 1
 480 190 l 1
 20 190 l 1
EndSplineSet
Validated: 1
EndChar

StartChar: figuredash
Encoding: 8210 8210 355
Width: 870
VWidth: 0
Flags: MW
HStem: 190 100<210 660>
VStem: 210 450
LayerCount: 2
Fore
SplineSet
210 190 m 1
 210 290 l 1
 660 290 l 1
 660 190 l 1
 210 190 l 1
EndSplineSet
Validated: 1
EndChar

StartChar: guilsinglleft
Encoding: 8249 8249 356
Width: 440
VWidth: 0
Flags: MW
HStem: 40 400
VStem: 60 320
LayerCount: 2
Fore
SplineSet
60 240 m 1
 260 440 l 1
 380 440 l 1
 200 240 l 1
 380 40 l 1
 260 40 l 1
 60 240 l 1
EndSplineSet
Validated: 1
EndChar

StartChar: quotereversed
Encoding: 8219 8219 357
Width: 330
VWidth: 0
Flags: W
HStem: 410 250<175 205>
VStem: 75 180
LayerCount: 2
Fore
SplineSet
75 660 m 1
 205 660 l 1
 255 410 l 1
 175 410 l 1
 75 660 l 1
EndSplineSet
Validated: 1
EndChar

StartChar: guilsinglright
Encoding: 8250 8250 358
Width: 440
VWidth: 0
Flags: MW
HStem: 40 400
VStem: 60 320
LayerCount: 2
Fore
SplineSet
60 40 m 1
 240 240 l 1
 60 440 l 1
 180 440 l 1
 380 240 l 1
 180 40 l 1
 60 40 l 1
EndSplineSet
Validated: 1
EndChar

StartChar: quoteleft
Encoding: 8216 8216 360
Width: 330
VWidth: 0
Flags: W
HStem: 410 250<175 205>
VStem: 75 180
LayerCount: 2
Fore
SplineSet
75 410 m 1
 175 660 l 1
 255 660 l 1
 205 410 l 1
 75 410 l 1
EndSplineSet
Validated: 1
EndChar

StartChar: quoteright
Encoding: 8217 8217 361
Width: 330
VWidth: 0
Flags: W
HStem: 410 250<125 155>
VStem: 75 180
LayerCount: 2
Fore
SplineSet
75 410 m 1
 125 660 l 1
 255 660 l 1
 155 410 l 1
 75 410 l 1
EndSplineSet
Validated: 1
EndChar

StartChar: quotesinglbase
Encoding: 8218 8218 362
Width: 330
VWidth: 0
Flags: W
HStem: -130 250<125 155>
VStem: 75 180
LayerCount: 2
Fore
SplineSet
75 -130 m 1
 125 120 l 1
 255 120 l 1
 155 -130 l 1
 75 -130 l 1
EndSplineSet
Validated: 1
EndChar

StartChar: emdash
Encoding: 8212 8212 364
Width: 1000
VWidth: 0
Flags: M
HStem: 190 100<20 980>
VStem: 20 960
LayerCount: 2
Fore
SplineSet
20 190 m 1
 20 290 l 1
 980 290 l 1
 980 190 l 1
 20 190 l 1
EndSplineSet
Validated: 1
EndChar

StartChar: afii57929
Encoding: 700 700 365
Width: 320
VWidth: 0
Flags: W
HStem: 460 200<125 165>
VStem: 75 170
LayerCount: 2
Fore
SplineSet
75 460 m 1
 125 660 l 1
 245 660 l 1
 165 460 l 1
 75 460 l 1
EndSplineSet
Validated: 1
EndChar

StartChar: uni0326
Encoding: 806 806 366
Width: 0
VWidth: 0
Flags: W
HStem: -225 155<-400 -330>
VStem: -430 160
LayerCount: 2
Fore
SplineSet
-430 -225 m 1
 -400 -70 l 1
 -270 -70 l 1
 -330 -225 l 1
 -430 -225 l 1
EndSplineSet
Validated: 1
EndChar

StartChar: uni0237
Encoding: 567 567 392
Width: 260
VWidth: 0
Flags: MW
HStem: -225 75<-50 3.54134> 460 20G<60 200>
VStem: -50 21G 60 140<-94.1748 480>
LayerCount: 2
Fore
SplineSet
-50 -150 m 1
 30 -130 60 -90 60 0 c 2
 60 480 l 1
 200 480 l 1
 200 0 l 2
 200 -200 50 -215 -50 -225 c 1
 -50 -150 l 1
EndSplineSet
Validated: 1
EndChar

StartChar: Hbar
Encoding: 294 294 405
Width: 950
VWidth: 0
Flags: W
HStem: 0 21G<100 250 700 850> 325 85<250 700> 510 75<20 100 250 700 850 930> 640 20G<100 250 700 850>
VStem: 100 150<0 325 410 510 585 660> 700 150<0 325 410 510 585 660>
LayerCount: 2
Fore
SplineSet
20 510 m 1
 20 585 l 1
 100 585 l 1
 100 660 l 1
 250 660 l 1
 250 585 l 1
 700 585 l 1
 700 660 l 1
 850 660 l 1
 850 585 l 1
 930 585 l 1
 930 510 l 1
 850 510 l 1
 850 0 l 1
 700 0 l 1
 700 325 l 1
 250 325 l 1
 250 0 l 1
 100 0 l 1
 100 510 l 1
 20 510 l 1
250 410 m 1
 700 410 l 1
 700 510 l 1
 250 510 l 1
 250 410 l 1
EndSplineSet
Validated: 1
EndChar

StartChar: hbar
Encoding: 295 295 406
Width: 720
VWidth: 0
Flags: W
HStem: 0 21G<80 220 520 660> 405 75<220 515.591> 540 65<20 80 220 370> 640 20G<80 220>
VStem: 80 140<0 405 480 540 605 660> 520 140<0 402.959>
LayerCount: 2
Fore
SplineSet
20 540 m 1
 20 605 l 1
 80 605 l 1
 80 660 l 1
 220 660 l 1
 220 605 l 1
 370 605 l 1
 370 540 l 1
 220 540 l 1
 220 480 l 1
 460 480 l 2
 560 480 660 480 660 365 c 2
 660 0 l 1
 520 0 l 1
 520 375 l 2
 520 405 495 405 470 405 c 2
 220 405 l 1
 220 0 l 1
 80 0 l 1
 80 540 l 1
 20 540 l 1
EndSplineSet
Validated: 1
EndChar

StartChar: Tbar
Encoding: 358 358 415
Width: 890
VWidth: 0
Flags: W
HStem: 0 21G<370 520> 330 75<170 370 520 720> 575 85<30 370 520 860>
VStem: 370 150<0 330 405 575>
LayerCount: 2
Fore
SplineSet
30 575 m 1
 30 660 l 1
 860 660 l 1
 860 575 l 1
 520 575 l 1
 520 405 l 1
 720 405 l 1
 720 330 l 1
 520 330 l 1
 520 0 l 1
 370 0 l 1
 370 330 l 1
 170 330 l 1
 170 405 l 1
 370 405 l 1
 370 575 l 1
 30 575 l 1
EndSplineSet
Validated: 1
EndChar

StartChar: tbar
Encoding: 359 359 416
Width: 480
VWidth: 0
Flags: W
HStem: 0 75<224.409 420> 235 65<20 80 220 370> 405 75<220 420> 640 20G<80 220>
VStem: 80 140<77.041 235 300 405 480 660>
LayerCount: 2
Fore
SplineSet
20 235 m 1
 20 300 l 1
 80 300 l 1
 80 660 l 1
 220 660 l 1
 220 480 l 1
 420 480 l 1
 420 405 l 1
 220 405 l 1
 220 300 l 1
 370 300 l 1
 370 235 l 1
 220 235 l 1
 220 105 l 2
 220 75 245 75 270 75 c 2
 420 75 l 1
 420 0 l 1
 280 0 l 2
 180 0 80 0 80 115 c 2
 80 235 l 1
 20 235 l 1
EndSplineSet
Validated: 1
EndChar

StartChar: kgreenlandic
Encoding: 312 312 417
Width: 640
VWidth: 0
Flags: W
HStem: 0 21G<60 200 440 620> 460 20G<60 200 420 600>
VStem: 60 140<0 80 240 480>
LayerCount: 2
Fore
SplineSet
60 0 m 1
 60 480 l 1
 200 480 l 1
 200 240 l 1
 440 480 l 1
 600 480 l 1
 370 250 l 1
 620 0 l 1
 460 0 l 1
 290 170 l 1
 200 80 l 1
 200 0 l 1
 60 0 l 1
EndSplineSet
Validated: 1
EndChar

StartChar: Eng
Encoding: 330 330 419
Width: 890
VWidth: 0
Flags: W
HStem: -225 85<520 583.422> 0 21G<70 220> 640 20G<70 247.959 670 820>
VStem: 70 150<0 490> 670 150<170 660>
LayerCount: 2
Fore
SplineSet
70 0 m 1
 70 660 l 1
 230 660 l 1
 670 170 l 1
 670 660 l 1
 820 660 l 1
 820 0 l 2
 820 -150 696 -215 520 -225 c 1
 520 -140 l 1
 560 -135 660 -105 660 0 c 1
 220 490 l 1
 220 0 l 1
 70 0 l 1
EndSplineSet
Validated: 1
EndChar

StartChar: eng
Encoding: 331 331 420
Width: 700
VWidth: 0
Flags: W
HStem: -225 75<390 443.541> 0 21G<60 200> 405 75<200 495.591>
VStem: 60 140<0 405> 500 140<-94.1748 402.959>
LayerCount: 2
Fore
SplineSet
60 0 m 1
 60 480 l 1
 440 480 l 2
 540 480 640 480 640 365 c 2
 640 0 l 2
 640 -200 490 -215 390 -225 c 1
 390 -150 l 1
 470 -130 500 -90 500 0 c 2
 500 375 l 2
 500 405 475 405 450 405 c 2
 200 405 l 1
 200 0 l 1
 60 0 l 1
EndSplineSet
Validated: 1
EndChar

StartChar: uni0312
Encoding: 786 786 421
Width: 0
VWidth: 0
HStem: 550 250<-320 -290>
VStem: -420 180
LayerCount: 2
Fore
SplineSet
-420 550 m 1
 -320 800 l 1
 -240 800 l 1
 -290 550 l 1
 -420 550 l 1
EndSplineSet
Validated: 1
EndChar

StartChar: Omega
Encoding: 937 937 471
Width: 890
VWidth: 0
Flags: W
HStem: 0 85<50 145 291.289 395 495 598.711 745 840> 575 85<296.974 593.026>
VStem: 70 150<172.135 490.914> 670 150<172.135 490.914>
LayerCount: 2
Fore
SplineSet
50 0 m 1
 50 85 l 1
 145 85 l 1
 100 130 70 200 70 300 c 2
 70 360 l 2
 70 595 220 660 420 660 c 2
 470 660 l 2
 670 660 820 595 820 360 c 2
 820 300 l 2
 820 200 790 130 745 85 c 1
 840 85 l 1
 840 0 l 1
 495 0 l 1
 495 85 l 1
 605 85 670 125 670 285 c 2
 670 375 l 2
 670 535 605 575 495 575 c 2
 395 575 l 2
 285 575 220 535 220 375 c 2
 220 285 l 2
 220 125 285 85 395 85 c 1
 395 0 l 1
 50 0 l 1
EndSplineSet
Validated: 1
EndChar

StartChar: dieresistonos
Encoding: 901 901 472
Width: 500
VWidth: 0
Flags: MW
HStem: 580 100<75 195 305 425> 730 160<230 260>
VStem: 75 120<580 680> 305 120<580 680>
LayerCount: 2
Fore
SplineSet
75 580 m 1
 75 680 l 1
 195 680 l 1
 195 580 l 1
 75 580 l 1
305 580 m 1
 305 680 l 1
 425 680 l 1
 425 580 l 1
 305 580 l 1
170 730 m 1
 230 890 l 1
 360 890 l 1
 260 730 l 1
 170 730 l 1
EndSplineSet
Validated: 1
EndChar

StartChar: Xi
Encoding: 926 926 473
Width: 890
VWidth: 0
Flags: MW
HStem: 0 85<220 670> 325 85<220 670> 575 85<220 670>
VStem: 70 150<85 170 525 575> 670 150<85 170 525 575>
LayerCount: 2
Fore
SplineSet
70 0 m 1
 70 170 l 1
 220 170 l 1
 220 85 l 1
 670 85 l 1
 670 170 l 1
 820 170 l 1
 820 0 l 1
 70 0 l 1
70 525 m 1
 70 660 l 1
 820 660 l 1
 820 525 l 1
 670 525 l 1
 670 575 l 1
 220 575 l 1
 220 525 l 1
 70 525 l 1
220 325 m 1
 220 410 l 1
 670 410 l 1
 670 325 l 1
 220 325 l 1
EndSplineSet
Validated: 1
EndChar

StartChar: Gamma
Encoding: 915 915 474
Width: 800
VWidth: 0
Flags: MW
HStem: 0 21G<70 220> 575 85<220 770>
VStem: 70 150<0 575> 750 20G
LayerCount: 2
Fore
SplineSet
70 0 m 1
 70 660 l 1
 770 660 l 1
 770 575 l 1
 220 575 l 1
 220 0 l 1
 70 0 l 1
EndSplineSet
Validated: 1
EndChar

StartChar: Phi
Encoding: 934 934 475
Width: 990
VWidth: 0
Flags: MW
HStem: 0 21G<420 570> 75 85<222.083 420 570 767.917> 500 85<222.083 420 570 767.917> 640 20G<420 570>
VStem: 70 150<165.439 494.561> 220 200 420 150<0 75 160 500 585 660> 570 200 770 150<165.439 494.561>
CounterMasks: 1 0a80
LayerCount: 2
Fore
SplineSet
70 210 m 2
 70 450 l 2
 70 585 190 585 310 585 c 2
 420 585 l 1
 420 660 l 1
 570 660 l 1
 570 585 l 1
 680 585 l 2
 800 585 920 585 920 450 c 2
 920 210 l 2
 920 75 800 75 680 75 c 2
 570 75 l 1
 570 0 l 1
 420 0 l 1
 420 75 l 1
 310 75 l 2
 190 75 70 75 70 210 c 2
220 195 m 2
 220 160 250 160 280 160 c 2
 420 160 l 1
 420 500 l 1x04
 280 500 l 2
 250 500 220 500 220 465 c 2x04
 220 195 l 2
570 160 m 1
 710 160 l 2
 740 160 770 160 770 195 c 2
 770 465 l 2x01
 770 500 740 500 710 500 c 2
 570 500 l 1x01
 570 160 l 1
EndSplineSet
Validated: 1
EndChar

StartChar: Sigma
Encoding: 931 931 476
Width: 840
VWidth: 0
Flags: MW
HStem: 0 85<250 770> 575 85<250 770>
VStem: 70 700
LayerCount: 2
Fore
SplineSet
70 0 m 1
 70 85 l 1
 315 330 l 1
 70 575 l 1
 70 660 l 1
 770 660 l 1
 770 575 l 1
 250 575 l 1
 495 330 l 1
 250 85 l 1
 770 85 l 1
 770 0 l 1
 70 0 l 1
EndSplineSet
Validated: 1
EndChar

StartChar: Delta
Encoding: 916 916 477
Width: 890
VWidth: 0
Flags: W
HStem: 0 86<213 677> 640 20G<340 550>
LayerCount: 2
Fore
SplineSet
20 0 m 1
 350 660 l 1
 540 660 l 1
 870 0 l 1
 20 0 l 1
213 86 m 1
 677 86 l 1
 445 550 l 1
 213 86 l 1
EndSplineSet
Validated: 1
EndChar

StartChar: Theta
Encoding: 920 920 478
Width: 890
VWidth: 0
Flags: W
HStem: 0 85<222.083 667.917> 325 85<320 570> 575 85<222.083 667.917>
VStem: 70 150<90.4395 569.561> 670 150<90.4395 569.561>
LayerCount: 2
Fore
SplineSet
70 135 m 2
 70 525 l 2
 70 660 190 660 310 660 c 2
 580 660 l 2
 700 660 820 660 820 525 c 2
 820 135 l 2
 820 0 700 0 580 0 c 2
 310 0 l 2
 190 0 70 0 70 135 c 2
220 120 m 2
 220 85 250 85 280 85 c 2
 610 85 l 2
 640 85 670 85 670 120 c 2
 670 540 l 2
 670 575 640 575 610 575 c 2
 280 575 l 2
 250 575 220 575 220 540 c 2
 220 120 l 2
320 325 m 1
 320 410 l 1
 570 410 l 1
 570 325 l 1
 320 325 l 1
EndSplineSet
Validated: 1
EndChar

StartChar: tonos
Encoding: 900 900 479
Width: 500
VWidth: 0
Flags: MW
HStem: 550 160
VStem: 170 190
LayerCount: 2
Fore
SplineSet
170 550 m 1
 230 710 l 1
 360 710 l 1
 260 550 l 1
 170 550 l 1
EndSplineSet
Validated: 1
EndChar

StartChar: Psi
Encoding: 936 936 480
Width: 990
VWidth: 0
Flags: MW
HStem: 0 21G<420 570> 195 85<222.083 420 570 767.917> 640 20G<70 220 420 570 770 920>
VStem: 70 350 70 150<285.439 660> 420 350 420 150<0 195 280 660> 770 150<285.439 660>
CounterMasks: 1 0980
LayerCount: 2
Fore
SplineSet
70 330 m 2
 70 660 l 1x10
 220 660 l 1
 220 315 l 2
 220 280 250 280 280 280 c 2
 420 280 l 1
 420 660 l 1x04
 570 660 l 1
 570 280 l 1
 710 280 l 2
 740 280 770 280 770 315 c 2
 770 660 l 1
 920 660 l 1
 920 330 l 2
 920 195 800 195 680 195 c 2
 570 195 l 1
 570 0 l 1
 420 0 l 1
 420 195 l 1
 310 195 l 2
 190 195 70 195 70 330 c 2
EndSplineSet
Validated: 1
EndChar

StartChar: Lambda
Encoding: 923 923 481
Width: 890
VWidth: 0
Flags: W
HStem: 0 21G<20 180 710 870> 640 20G<340 550>
LayerCount: 2
Fore
SplineSet
20 0 m 1
 350 660 l 1
 540 660 l 1
 870 0 l 1
 720 0 l 1
 445 550 l 1
 170 0 l 1
 20 0 l 1
EndSplineSet
Validated: 1
EndChar

StartChar: Pi
Encoding: 928 928 489
Width: 890
VWidth: 0
Flags: W
HStem: 0 21G<70 220 670 820> 575 85<220 670>
VStem: 70 150<0 575> 670 150<0 575>
LayerCount: 2
Fore
SplineSet
70 0 m 1
 70 660 l 1
 820 660 l 1
 820 0 l 1
 670 0 l 1
 670 575 l 1
 220 575 l 1
 220 0 l 1
 70 0 l 1
EndSplineSet
Validated: 1
EndChar

StartChar: uni20AF
Encoding: 8367 8367 492
Width: 1290
VWidth: 0
Flags: W
HStem: -225 21G<740 880> 0 85<220 408.672> 0 75<880 1075.59> 405 75<884.409 1075.59> 575 85<220 408.672>
VStem: 70 150<85 575> 520 150<191.593 468.407> 740 140<-225 0 75 402.959> 1080 140<77.041 402.959>
LayerCount: 2
Fore
SplineSet
70 0 m 1xbf80
 70 660 l 1
 310 660 l 2
 490 660 670 600 670 360 c 2
 670 300 l 2
 670 60 490 0 310 0 c 2xdf80
 70 0 l 1xbf80
220 85 m 1
 280 85 l 2
 400 85 520 125 520 285 c 2
 520 375 l 2
 520 535 400 575 280 575 c 2
 220 575 l 1
 220 85 l 1
740 -225 m 1
 740 365 l 2
 740 480 840 480 940 480 c 2
 1020 480 l 2
 1120 480 1220 480 1220 365 c 2
 1220 115 l 2
 1220 0 1120 0 1020 0 c 2
 880 0 l 1xbf80
 880 -225 l 1
 740 -225 l 1
880 75 m 1
 1030 75 l 2
 1055 75 1080 75 1080 105 c 2
 1080 375 l 2
 1080 405 1055 405 1030 405 c 2
 930 405 l 2
 905 405 880 405 880 375 c 2
 880 75 l 1
EndSplineSet
Validated: 1
EndChar

StartChar: uni037A
Encoding: 890 890 493
Width: 500
VWidth: 0
Flags: W
HStem: -225 50<271.25 330>
VStem: 170 100<-173.887 -50>
LayerCount: 2
Fore
SplineSet
170 -50 m 1
 270 -50 l 1
 270 -150 l 2
 270 -175 290 -175 310 -175 c 2
 330 -175 l 1
 330 -225 l 1
 250 -225 170 -225 170 -135 c 2
 170 -50 l 1
EndSplineSet
Validated: 1
EndChar

StartChar: lambda
Encoding: 955 955 494
Width: 630
VWidth: 0
Flags: MW
HStem: 0 21G<20 170 460 610> 585 75<70 187.531>
VStem: 70 21G
LayerCount: 2
Fore
SplineSet
20 0 m 1
 245 450 l 1
 195 550 l 2
 180 580 170 585 130 585 c 2
 70 585 l 1
 70 660 l 1
 185 660 l 2
 275 660 300 620 330 560 c 2
 610 0 l 1
 470 0 l 1
 315 310 l 1
 160 0 l 1
 20 0 l 1
EndSplineSet
Validated: 1
EndChar

StartChar: gamma
Encoding: 947 947 495
Width: 680
VWidth: 0
Flags: W
HStem: -225 21G<270 410> 460 20G<20 170 510 660>
VStem: 270 140<-225 -20>
LayerCount: 2
Fore
SplineSet
20 480 m 1
 160 480 l 1
 340 120 l 1
 520 480 l 1
 660 480 l 1
 410 -20 l 1
 410 -225 l 1
 270 -225 l 1
 270 -20 l 1
 20 480 l 1
EndSplineSet
Validated: 1
EndChar

StartChar: iota
Encoding: 953 953 496
Width: 340
VWidth: 0
Flags: MW
HStem: 0 75<204.409 280> 460 20G<60 200>
VStem: 60 140<77.041 480> 260 20G<-50 20>
LayerCount: 2
Fore
SplineSet
60 115 m 2
 60 480 l 1
 200 480 l 1
 200 105 l 2
 200 75 225 75 250 75 c 2
 280 75 l 1
 280 0 l 1
 260 0 l 1
 160 0 60 0 60 115 c 2
EndSplineSet
Validated: 1
EndChar

StartChar: sigma
Encoding: 963 963 497
Width: 840
VWidth: 0
Flags: MW
HStem: 0 75<204.409 495.591> 405 75<204.409 499.135 640 780>
VStem: 60 140<77.041 402.959> 500 140<77.041 402.989> 760 20G
LayerCount: 2
Fore
SplineSet
60 115 m 2
 60 365 l 2
 60 480 160 480 260 480 c 2
 780 480 l 1
 780 405 l 1
 640 405 l 1
 640 115 l 2
 640 0 540 0 440 0 c 2
 260 0 l 2
 160 0 60 0 60 115 c 2
200 105 m 2
 200 75 225 75 250 75 c 2
 450 75 l 2
 475 75 500 75 500 105 c 2
 500 375 l 2
 500 405 475 405 450 405 c 2
 250 405 l 2
 225 405 200 405 200 375 c 2
 200 105 l 2
EndSplineSet
Validated: 1
EndChar

StartChar: tau
Encoding: 964 964 498
Width: 700
VWidth: 0
Flags: MW
HStem: 0 75<424.409 500> 405 75<60 280 420 640>
VStem: 280 140<77.041 405> 480 20G<-50 20>
LayerCount: 2
Fore
SplineSet
500 0 m 1
 480 0 l 1
 380 0 280 0 280 115 c 1
 280 405 l 1
 60 405 l 1
 60 480 l 1
 640 480 l 1
 640 405 l 1
 420 405 l 1
 420 105 l 1
 420 75 445 75 470 75 c 2
 500 75 l 1
 500 0 l 1
EndSplineSet
Validated: 1
EndChar

StartChar: epsilon
Encoding: 949 949 499
Width: 660
VWidth: 0
Flags: W
HStem: 0 75<204.409 600> 225 75<200.865 520> 405 75<204.409 600>
VStem: 60 140<77.041 221.693 303.386 402.959>
LayerCount: 2
Fore
SplineSet
60 115 m 2
 60 175 l 2
 60 230 95 255 135 265 c 1
 95 275 60 300 60 355 c 2
 60 365 l 2
 60 480 160 480 260 480 c 2
 600 480 l 1
 600 405 l 1
 250 405 l 2
 225 405 200 405 200 375 c 2
 200 330 l 2
 200 300 225 300 250 300 c 2
 520 300 l 1
 520 225 l 1
 250 225 l 2
 225 225 200 225 200 195 c 2
 200 105 l 2
 200 75 225 75 250 75 c 2
 600 75 l 1
 600 0 l 1
 260 0 l 2
 160 0 60 0 60 115 c 2
EndSplineSet
EndChar

StartChar: eta
Encoding: 951 951 501
Width: 700
VWidth: 0
Flags: W
HStem: -225 21G<500 640> 0 21G<60 200> 405 75<200 495.591>
VStem: 60 140<0 405> 500 140<-225 402.959>
LayerCount: 2
Fore
SplineSet
60 0 m 1
 60 480 l 1
 440 480 l 2
 540 480 640 480 640 365 c 2
 640 -225 l 1
 500 -225 l 1
 500 375 l 2
 500 405 475 405 450 405 c 2
 200 405 l 1
 200 0 l 1
 60 0 l 1
EndSplineSet
Validated: 1
EndChar

StartChar: upsilon
Encoding: 965 965 502
Width: 700
VWidth: 0
Flags: W
HStem: 0 75<204.409 476.047> 460 20G<60 200 500 640>
VStem: 60 140<77.041 480> 500 140<102.115 480>
LayerCount: 2
Fore
SplineSet
60 115 m 2
 60 480 l 1
 200 480 l 1
 200 105 l 2
 200 75 225 75 250 75 c 2
 360 75 l 2
 430 75 500 75 500 155 c 2
 500 480 l 1
 640 480 l 1
 640 170 l 2
 640 0 490 0 340 0 c 2
 260 0 l 2
 160 0 60 0 60 115 c 2
EndSplineSet
Validated: 1
EndChar

StartChar: pi
Encoding: 960 960 504
Width: 820
VWidth: 0
Flags: W
HStem: 0 21G<200 340 480 620> 405 75<60 200 340 480 620 760>
VStem: 200 140<0 405> 480 140<0 405>
LayerCount: 2
Fore
SplineSet
60 405 m 1
 60 480 l 1
 760 480 l 1
 760 405 l 1
 620 405 l 1
 620 0 l 1
 480 0 l 1
 480 405 l 1
 340 405 l 1
 340 0 l 1
 200 0 l 1
 200 405 l 1
 60 405 l 1
EndSplineSet
Validated: 1
EndChar

StartChar: mu
Encoding: 956 956 505
Width: 700
VWidth: 0
Flags: W
HStem: -225 21G<60 200> 0 75<200.865 495.591> 460 20G<60 200 500 640>
VStem: 60 140<-225 0 77.0114 480> 500 140<77.041 480>
LayerCount: 2
Fore
SplineSet
60 -225 m 1
 60 480 l 1
 200 480 l 1
 200 105 l 2
 200 75 225 75 250 75 c 2
 450 75 l 2
 475 75 500 75 500 105 c 2
 500 480 l 1
 640 480 l 1
 640 115 l 2
 640 0 540 0 440 0 c 2
 200 0 l 1
 200 -225 l 1
 60 -225 l 1
EndSplineSet
Validated: 1
EndChar

StartChar: rho
Encoding: 961 961 506
Width: 700
VWidth: 0
Flags: W
HStem: -225 21G<60 200> 0 75<200 495.591> 405 75<204.409 495.591>
VStem: 60 140<-225 0 75 402.959> 500 140<77.041 402.959>
LayerCount: 2
Fore
SplineSet
60 -225 m 1
 60 365 l 2
 60 480 160 480 260 480 c 2
 440 480 l 2
 540 480 640 480 640 365 c 2
 640 115 l 2
 640 0 540 0 440 0 c 2
 200 0 l 1
 200 -225 l 1
 60 -225 l 1
200 75 m 1
 450 75 l 2
 475 75 500 75 500 105 c 2
 500 375 l 2
 500 405 475 405 450 405 c 2
 250 405 l 2
 225 405 200 405 200 375 c 2
 200 75 l 1
EndSplineSet
Validated: 1
EndChar

StartChar: theta
Encoding: 952 952 507
Width: 700
VWidth: 0
Flags: W
HStem: 0 75<204.409 495.591> 325 75<200 500> 585 75<204.409 495.591>
VStem: 60 140<77.041 325 400 582.959> 500 140<77.041 325 400 582.959>
LayerCount: 2
Fore
SplineSet
60 115 m 2
 60 545 l 2
 60 660 160 660 260 660 c 2
 440 660 l 2
 540 660 640 660 640 545 c 2
 640 115 l 2
 640 0 540 0 440 0 c 2
 260 0 l 2
 160 0 60 0 60 115 c 2
200 105 m 2
 200 75 225 75 250 75 c 2
 450 75 l 2
 475 75 500 75 500 105 c 2
 500 325 l 1
 200 325 l 1
 200 105 l 2
200 400 m 1
 500 400 l 1
 500 555 l 2
 500 585 475 585 450 585 c 2
 250 585 l 2
 225 585 200 585 200 555 c 2
 200 400 l 1
EndSplineSet
Validated: 1
EndChar

StartChar: beta
Encoding: 946 946 518
Width: 700
VWidth: 0
Flags: W
HStem: -225 21G<60 200> 0 75<200 495.591> 325 75<280 458.17> 585 75<204.409 455.591>
VStem: 60 140<-225 0 75 582.959> 460 140<402.702 582.959> 500 140<77.041 320.966>
LayerCount: 2
Fore
SplineSet
60 -225 m 1xfa
 60 545 l 2
 60 660 160 660 260 660 c 2
 400 660 l 2
 500 660 600 660 600 545 c 2
 600 455 l 2xfc
 600 390 570 370 530 365 c 1
 570 360 640 350 640 260 c 2
 640 115 l 2
 640 0 540 0 440 0 c 2
 200 0 l 1
 200 -225 l 1
 60 -225 l 1xfa
200 75 m 1
 450 75 l 2
 475 75 500 75 500 105 c 2
 500 295 l 2xfa
 500 325 475 325 450 325 c 2
 280 325 l 1
 280 400 l 1
 410 400 l 2
 435 400 460 400 460 430 c 2
 460 555 l 2
 460 585 435 585 410 585 c 2
 250 585 l 2
 225 585 200 585 200 555 c 2
 200 75 l 1
EndSplineSet
Validated: 1
EndChar

StartChar: sigma1
Encoding: 962 962 519
Width: 660
VWidth: 0
Flags: W
HStem: -225 75<380 427.502> 0 75<204.409 477.813> 405 75<204.409 600>
VStem: 60 140<77.041 402.959> 480 120<-100.42 -4.92362>
LayerCount: 2
Fore
SplineSet
60 115 m 2
 60 365 l 2
 60 480 160 480 260 480 c 2
 600 480 l 1
 600 405 l 1
 250 405 l 2
 225 405 200 405 200 375 c 2
 200 105 l 2
 200 75 225 75 250 75 c 2
 400 75 l 2
 500 75 600 75 600 -40 c 0
 600 -150 500 -210 380 -225 c 1
 380 -150 l 1
 450 -130 480 -85 480 -35 c 0
 480 0 450 0 420 0 c 2
 260 0 l 2
 160 0 60 0 60 115 c 2
EndSplineSet
Validated: 1
EndChar

StartChar: phi
Encoding: 966 966 520
Width: 900
VWidth: 0
Flags: MW
HStem: -225 21G<380 520> 0 75<204.409 380 520 695.591> 405 75<524.409 695.591>
VStem: 60 320 60 140<77.041 460> 380 320 380 140<-225 0 75 402.959> 700 140<77.041 402.959>
CounterMasks: 1 0b
LayerCount: 2
Fore
SplineSet
60 115 m 2
 60 460 l 1x10
 200 460 l 1
 200 105 l 2
 200 75 225 75 250 75 c 2
 380 75 l 1
 380 365 l 2x04
 380 480 480 480 580 480 c 2
 640 480 l 2
 740 480 840 480 840 365 c 2
 840 115 l 2
 840 0 740 0 640 0 c 2
 520 0 l 1
 520 -225 l 1
 380 -225 l 1
 380 0 l 1
 260 0 l 2
 160 0 60 0 60 115 c 2
520 75 m 1
 650 75 l 2
 675 75 700 75 700 105 c 2
 700 375 l 2
 700 405 675 405 650 405 c 2
 570 405 l 2
 545 405 520 405 520 375 c 2
 520 75 l 1
EndSplineSet
Validated: 1
EndChar

StartChar: psi
Encoding: 968 968 521
Width: 900
VWidth: 0
Flags: MW
HStem: -225 21G<380 520> 0 75<204.409 380 520 695.591> 460 20G<60 200 380 520 700 840>
VStem: 60 320 60 140<77.041 480> 380 320 380 140<-225 0 75 480> 700 140<77.041 480>
CounterMasks: 1 0b
LayerCount: 2
Fore
SplineSet
60 115 m 2
 60 480 l 1x10
 200 480 l 1
 200 105 l 2
 200 75 225 75 250 75 c 2
 380 75 l 1
 380 480 l 1x04
 520 480 l 1
 520 75 l 1
 650 75 l 2
 675 75 700 75 700 105 c 2
 700 480 l 1
 840 480 l 1
 840 115 l 2
 840 0 740 0 640 0 c 2
 520 0 l 1
 520 -225 l 1
 380 -225 l 1
 380 0 l 1
 260 0 l 2
 160 0 60 0 60 115 c 2
EndSplineSet
Validated: 1
EndChar

StartChar: delta
Encoding: 948 948 522
Width: 700
VWidth: 0
Flags: W
HStem: 0 75<204.409 495.591> 345 75<204.409 410> 585 75<290 600>
VStem: 60 140<77.041 342.959> 500 140<77.041 341.041>
LayerCount: 2
Fore
SplineSet
60 115 m 2
 60 305 l 2
 60 420 160 420 260 420 c 2
 410 420 l 1
 100 575 l 1
 100 660 l 1
 600 660 l 1
 600 585 l 1
 290 585 l 1
 530 465 l 2
 630 415 640 360 640 305 c 2
 640 115 l 2
 640 0 540 0 440 0 c 2
 260 0 l 2
 160 0 60 0 60 115 c 2
200 105 m 2
 200 75 225 75 250 75 c 2
 450 75 l 2
 475 75 500 75 500 105 c 2
 500 315 l 2
 500 345 475 345 450 345 c 2
 250 345 l 2
 225 345 200 345 200 315 c 2
 200 105 l 2
EndSplineSet
Validated: 1
EndChar

StartChar: omega
Encoding: 969 969 523
Width: 940
VWidth: 0
Flags: MW
HStem: 0 75<204.409 399.135 540.865 735.591> 405 75<256.459 310 630 683.541>
VStem: 60 340 60 140<77.041 349.175> 400 340 400 140<77.0114 300> 740 140<77.041 349.175>
CounterMasks: 1 16
LayerCount: 2
Fore
SplineSet
60 115 m 2x20
 60 255 l 2
 60 455 210 470 310 480 c 1
 310 405 l 1
 230 385 200 345 200 255 c 2
 200 105 l 2
 200 75 225 75 250 75 c 2
 350 75 l 2
 375 75 400 75 400 105 c 2
 400 300 l 1x08
 540 300 l 1
 540 105 l 2
 540 75 565 75 590 75 c 2
 690 75 l 2
 715 75 740 75 740 105 c 2
 740 255 l 2
 740 345 710 385 630 405 c 1
 630 480 l 1
 730 470 880 455 880 255 c 2
 880 115 l 2
 880 0 780 0 680 0 c 2
 260 0 l 2
 160 0 60 0 60 115 c 2x20
EndSplineSet
Validated: 1
EndChar

StartChar: chi
Encoding: 967 967 524
Width: 660
VWidth: 0
Flags: W
HStem: -225 21G<20 183.333 476.667 640> 460 20G<20 183.333 476.667 640>
LayerCount: 2
Fore
SplineSet
20 -225 m 1
 255 128 l 1
 20 480 l 1
 170 480 l 1
 330 240 l 1
 490 480 l 1
 640 480 l 1
 405 128 l 1
 640 -225 l 1
 490 -225 l 1
 330 15 l 1
 170 -225 l 1
 20 -225 l 1
EndSplineSet
Validated: 1
EndChar

StartChar: alpha
Encoding: 945 945 525
Width: 750
VWidth: 0
Flags: MW
HStem: 0 75<204.409 401.248> 405 75<204.409 401.248>
VStem: 60 140<77.041 402.959> 499 136<217.6 262.4>
LayerCount: 2
Fore
SplineSet
60 115 m 2
 60 365 l 2
 60 480 160 480 260 480 c 2
 335 480 l 2
 425 480 495 440 548 378 c 1
 580 480 l 1
 710 480 l 1
 635 240 l 1
 710 0 l 1
 580 0 l 1
 548 102 l 1
 495 40 425 0 335 0 c 2
 260 0 l 2
 160 0 60 0 60 115 c 2
200 105 m 2
 200 75 225 75 250 75 c 2
 335 75 l 2
 410 75 460 145 499 240 c 1
 460 335 410 405 335 405 c 2
 250 405 l 2
 225 405 200 405 200 375 c 2
 200 105 l 2
EndSplineSet
Validated: 1
EndChar

StartChar: xi
Encoding: 958 958 526
Width: 660
VWidth: 0
Flags: W
HStem: -225 75<380 427.502> 0 75<204.409 477.813> 325 75<200.287 520> 585 75<204.409 600>
VStem: 60 140<77.041 323.324 403.386 582.959> 480 120<-100.42 -4.92362>
LayerCount: 2
Fore
SplineSet
60 115 m 2
 60 275 l 2
 60 330 95 355 135 365 c 1
 95 375 60 400 60 455 c 2
 60 545 l 2
 60 660 160 660 260 660 c 2
 600 660 l 1
 600 585 l 1
 250 585 l 2
 225 585 200 585 200 555 c 2
 200 425 l 2
 200 400 235 400 260 400 c 2
 520 400 l 1
 520 325 l 1
 250 325 l 2
 225 325 200 325 200 300 c 2
 200 105 l 2
 200 75 225 75 250 75 c 2
 400 75 l 2
 500 75 600 75 600 -40 c 0
 600 -150 500 -210 380 -225 c 1
 380 -150 l 1
 450 -130 480 -85 480 -35 c 0
 480 0 450 0 420 0 c 2
 260 0 l 2
 160 0 60 0 60 115 c 2
EndSplineSet
Validated: 1
EndChar

StartChar: zeta
Encoding: 950 950 527
Width: 660
VWidth: 0
Flags: W
HStem: -225 75<380 427.502> 0 75<204.409 477.813> 585 75<100 390>
VStem: 60 140<77.041 347.335> 480 120<-100.42 -4.92362>
LayerCount: 2
Fore
SplineSet
60 115 m 2
 60 275 l 2
 60 350 60 365 150 425 c 2
 390 585 l 1
 100 585 l 1
 100 660 l 1
 560 660 l 1
 560 575 l 1
 260 375 l 2
 200 335 200 335 200 275 c 2
 200 105 l 2
 200 75 225 75 250 75 c 2
 400 75 l 2
 500 75 600 75 600 -40 c 0
 600 -150 500 -210 380 -225 c 1
 380 -150 l 1
 450 -130 480 -85 480 -35 c 0
 480 0 450 0 420 0 c 2
 260 0 l 2
 160 0 60 0 60 115 c 2
EndSplineSet
Validated: 1
EndChar

StartChar: longs
Encoding: 383 383 541
Width: 560
VWidth: 0
Flags: W
HStem: 0 21G<160 300> 405 75<60 160> 585 75<304.409 500>
VStem: 160 140<0 405 480 582.959>
LayerCount: 2
Fore
SplineSet
60 405 m 1
 60 480 l 1
 160 480 l 1
 160 545 l 2
 160 660 260 660 360 660 c 2
 500 660 l 1
 500 585 l 1
 350 585 l 2
 325 585 300 585 300 555 c 2
 300 0 l 1
 160 0 l 1
 160 405 l 1
 60 405 l 1
EndSplineSet
Validated: 1
EndChar

StartChar: bullet
Encoding: 8226 8226 543
Width: 420
VWidth: 0
Flags: W
HStem: 220 220<100 320>
VStem: 100 220<220 440>
LayerCount: 2
Fore
SplineSet
100 220 m 1
 100 440 l 1
 320 440 l 1
 320 220 l 1
 100 220 l 1
EndSplineSet
EndChar

StartChar: fraction
Encoding: 8260 8260 545
Width: 90
VWidth: 0
Flags: W
HStem: 0 21G<-180 -50> 640 20G<140 270>
LayerCount: 2
Fore
SplineSet
-180 0 m 1
 150 660 l 1
 270 660 l 1
 -60 0 l 1
 -180 0 l 1
EndSplineSet
Validated: 1
EndChar

StartChar: trademark
Encoding: 8482 8482 546
Width: 1120
VWidth: 0
Flags: MW
HStem: 320 21G<200 320 520 640 735 845 940 1060> 600 60<60 200 320 460>
VStem: 200 120<320 600> 520 120<320 530> 940 120<320 530>
LayerCount: 2
Fore
SplineSet
60 600 m 1
 60 660 l 1
 460 660 l 1
 460 600 l 1
 320 600 l 1
 320 320 l 1
 200 320 l 1
 200 600 l 1
 60 600 l 1
520 320 m 1
 520 660 l 1
 670 660 l 1
 790 420 l 1
 910 660 l 1
 1060 660 l 1
 1060 320 l 1
 940 320 l 1
 940 530 l 1
 835 320 l 1
 745 320 l 1
 640 530 l 1
 640 320 l 1
 520 320 l 1
EndSplineSet
Validated: 1
EndChar

StartChar: summation
Encoding: 8721 8721 547
Width: 890
VWidth: 0
Flags: MW
HStem: -225 85<250 820> 575 85<250 820>
VStem: 70 750
LayerCount: 2
Fore
SplineSet
70 -140 m 1
 425 220 l 1
 70 575 l 1
 70 660 l 1
 820 660 l 1
 820 575 l 1
 250 575 l 1
 605 220 l 1
 250 -140 l 1
 820 -140 l 1
 820 -225 l 1
 70 -225 l 1
 70 -140 l 1
EndSplineSet
Validated: 1
EndChar

StartChar: notequal
Encoding: 8800 8800 548
Width: 700
VWidth: 0
Flags: MW
HStem: 75 100<60 215 365 640> 305 100<60 330 480 640>
VStem: 60 580
LayerCount: 2
Fore
SplineSet
440 525 m 1
 520 485 l 1
 480 405 l 1
 640 405 l 1
 640 305 l 1
 430 305 l 1
 365 175 l 1
 640 175 l 1
 640 75 l 1
 315 75 l 1
 255 -45 l 1
 175 -5 l 1
 215 75 l 1
 60 75 l 1
 60 175 l 1
 265 175 l 1
 330 305 l 1
 60 305 l 1
 60 405 l 1
 380 405 l 1
 440 525 l 1
EndSplineSet
Validated: 1
EndChar

StartChar: partialdiff
Encoding: 8706 8706 549
Width: 700
VWidth: 0
Flags: W
HStem: 0 75<204.409 495.591> 360 75<204.409 499.135> 585 75<110 344.27>
VStem: 60 140<77.041 357.959> 500 140<77.041 357.989 435 497.117>
LayerCount: 2
Fore
SplineSet
60 115 m 2
 60 320 l 2
 60 435 160 435 260 435 c 2
 500 435 l 1
 500 565 310 585 110 585 c 9
 110 660 l 17
 500 660 640 590 640 410 c 2
 640 115 l 2
 640 0 540 0 440 0 c 2
 260 0 l 2
 160 0 60 0 60 115 c 2
200 105 m 2
 200 75 225 75 250 75 c 2
 450 75 l 2
 475 75 500 75 500 105 c 2
 500 330 l 2
 500 360 475 360 450 360 c 2
 250 360 l 2
 225 360 200 360 200 330 c 2
 200 105 l 2
EndSplineSet
Validated: 1
EndChar

StartChar: radical
Encoding: 8730 8730 550
Width: 700
VWidth: 0
Flags: W
HStem: 310 75<60 175>
LayerCount: 2
Fore
SplineSet
60 310 m 1
 60 385 l 1
 270 385 l 1
 360 115 l 1
 570 745 l 1
 680 745 l 1
 425 -20 l 1
 285 -20 l 1
 175 310 l 1
 60 310 l 1
EndSplineSet
Validated: 1
EndChar

StartChar: minus
Encoding: 8722 8722 551
Width: 700
VWidth: 0
Flags: MW
HStem: 190 100<60 640>
VStem: 60 580
LayerCount: 2
Fore
SplineSet
60 190 m 1
 60 290 l 1
 640 290 l 1
 640 190 l 1
 60 190 l 1
EndSplineSet
Validated: 1
EndChar

StartChar: lessequal
Encoding: 8804 8804 552
Width: 750
VWidth: 0
Flags: MW
HStem: 0 100<60 690> 120 100<590 690> 460 100<664.059 690>
VStem: 60 630
LayerCount: 2
Fore
SplineSet
60 0 m 1
 60 100 l 1
 690 100 l 1
 690 0 l 1
 60 0 l 1
60 290 m 1
 60 390 l 1
 690 560 l 1
 690 460 l 1
 210 340 l 1
 690 220 l 1
 690 120 l 1
 60 290 l 1
EndSplineSet
Validated: 1
EndChar

StartChar: greaterequal
Encoding: 8805 8805 553
Width: 750
VWidth: 0
Flags: MW
HStem: 0 100<60 690> 120 100<60 85.9412> 460 100<60 160>
VStem: 60 630
LayerCount: 2
Fore
SplineSet
60 0 m 1
 60 100 l 1
 690 100 l 1
 690 0 l 1
 60 0 l 1
60 120 m 1
 60 220 l 1
 540 340 l 1
 60 460 l 1
 60 560 l 1
 690 390 l 1
 690 290 l 1
 60 120 l 1
EndSplineSet
Validated: 1
EndChar

StartChar: dagger
Encoding: 8224 8224 554
Width: 660
VWidth: 0
Flags: MW
HStem: -105 21G<260 400> 405 75<60 260 400 600> 640 20G<260 400>
VStem: 260 140<-105 405 480 660>
LayerCount: 2
Fore
SplineSet
60 405 m 1
 60 480 l 1
 260 480 l 1
 260 660 l 1
 400 660 l 1
 400 480 l 1
 600 480 l 1
 600 405 l 1
 400 405 l 1
 400 -105 l 1
 260 -105 l 1
 260 405 l 1
 60 405 l 1
EndSplineSet
Validated: 1
EndChar

StartChar: daggerdbl
Encoding: 8225 8225 555
Width: 660
VWidth: 0
Flags: MW
HStem: -105 21G<260 400> 75 75<60 260 400 600> 405 75<60 260 400 600> 640 20G<260 400>
VStem: 260 140<-105 75 150 405 480 660>
LayerCount: 2
Fore
SplineSet
60 75 m 1
 60 150 l 1
 260 150 l 1
 260 405 l 1
 60 405 l 1
 60 480 l 1
 260 480 l 1
 260 660 l 1
 400 660 l 1
 400 480 l 1
 600 480 l 1
 600 405 l 1
 400 405 l 1
 400 150 l 1
 600 150 l 1
 600 75 l 1
 400 75 l 1
 400 -105 l 1
 260 -105 l 1
 260 75 l 1
 60 75 l 1
EndSplineSet
Validated: 1
EndChar

StartChar: infinity
Encoding: 8734 8734 556
Width: 930
VWidth: 0
Flags: MW
HStem: 90 60<190.975 390.139 539.861 739.025> 370 60<190.975 390.139 539.861 739.025>
VStem: 60 340 60 120<162.987 357.013> 400 350 400 130<161.513 358.487> 750 120<162.987 357.013>
CounterMasks: 1 16
LayerCount: 2
Fore
SplineSet
60 205 m 2
 60 315 l 2x20
 60 430 160 430 260 430 c 2
 325 430 l 2
 385 430 435 430 465 400 c 1
 495 430 545 430 605 430 c 2
 670 430 l 2
 770 430 870 430 870 315 c 2
 870 205 l 2
 870 90 770 90 670 90 c 2
 605 90 l 2
 545 90 495 90 465 120 c 1
 435 90 385 90 325 90 c 2
 260 90 l 2
 160 90 60 90 60 205 c 2
180 205 m 2
 180 150 230 150 280 150 c 2
 300 150 l 2
 350 150 400 150 400 205 c 2
 400 315 l 2x08
 400 370 350 370 300 370 c 2
 280 370 l 2
 230 370 180 370 180 315 c 2
 180 205 l 2
530 205 m 2
 530 150 580 150 630 150 c 2
 650 150 l 2
 700 150 750 150 750 205 c 2
 750 315 l 2
 750 370 700 370 650 370 c 2
 630 370 l 2
 580 370 530 370 530 315 c 2
 530 205 l 2
EndSplineSet
EndChar

StartChar: florin
Encoding: 402 402 557
Width: 560
VWidth: 0
Flags: W
HStem: -225 75<20 155.591> 405 75<60 160 300 500> 585 75<304.409 500>
VStem: 160 140<-147.959 405 480 582.959>
LayerCount: 2
Fore
SplineSet
20 -150 m 1
 110 -150 l 2
 135 -150 160 -150 160 -120 c 2
 160 405 l 1
 60 405 l 1
 60 480 l 1
 160 480 l 1
 160 545 l 2
 160 660 260 660 360 660 c 2
 500 660 l 1
 500 585 l 1
 350 585 l 2
 325 585 300 585 300 555 c 2
 300 480 l 1
 500 480 l 1
 500 405 l 1
 300 405 l 1
 300 -110 l 2
 300 -225 200 -225 100 -225 c 2
 20 -225 l 1
 20 -150 l 1
EndSplineSet
Validated: 1
EndChar

StartChar: afii61289
Encoding: 8467 8467 559
Width: 635
VWidth: 0
Flags: W
HStem: 0 75<304.409 505.391> 225 75<60 160 300 438.75> 585 75<304.409 438.75>
VStem: 160 140<77.041 225 300 582.959> 440 100<302.041 582.959> 540 35<110.205 150>
LayerCount: 2
Fore
SplineSet
60 225 m 1xf4
 60 300 l 1
 160 300 l 1
 160 545 l 2
 160 660 260 660 360 660 c 2
 380 660 l 2
 460 660 540 660 540 545 c 2
 540 340 l 2xf8
 540 225 460 225 380 225 c 2
 300 225 l 1
 300 105 l 2
 300 75 325 75 350 75 c 2
 435 75 l 2
 490 75 540 110 540 150 c 1
 575 150 l 1
 575 80 550 0 435 0 c 2
 360 0 l 2
 260 0 160 0 160 115 c 2
 160 225 l 1
 60 225 l 1xf4
300 300 m 1
 390 300 l 2
 415 300 440 300 440 330 c 2
 440 555 l 2
 440 585 415 585 390 585 c 2
 350 585 l 2
 325 585 300 585 300 555 c 2
 300 300 l 1
EndSplineSet
Validated: 1
EndChar

StartChar: estimated
Encoding: 8494 8494 561
Width: 700
VWidth: 0
Flags: MW
HStem: 0 50<241.499 460.873> 225 50<200 500> 430 50<241.499 458.501>
VStem: 60 140<152.224 225 275 328.188> 500 140<275 327.776>
LayerCount: 2
Fore
SplineSet
60 240 m 0
 60 373 190 480 350 480 c 0
 510 480 640 372 640 240 c 2
 640 225 l 1
 200 225 l 1
 200 92 l 1
 241 66 293 50 350 50 c 0
 416 50 476 71 519 105 c 1
 590 105 l 1
 538 42 450 0 350 0 c 0
 190 0 60 108 60 240 c 0
200 275 m 1
 500 275 l 1
 500 388 l 1
 459 414 407 430 350 430 c 0
 293 430 241 414 200 388 c 1
 200 275 l 1
EndSplineSet
Validated: 1
EndChar

StartChar: integral
Encoding: 8747 8747 566
Width: 420
VWidth: 0
Flags: W
HStem: -225 75<0 135.591> 585 75<284.409 420>
VStem: 140 140<-147.959 582.959>
LayerCount: 2
Fore
SplineSet
0 -150 m 1
 90 -150 l 2
 115 -150 140 -150 140 -120 c 2
 140 545 l 2
 140 660 240 660 340 660 c 2
 420 660 l 1
 420 585 l 1
 330 585 l 2
 305 585 280 585 280 555 c 2
 280 -110 l 2
 280 -225 180 -225 80 -225 c 2
 0 -225 l 1
 0 -150 l 1
EndSplineSet
Validated: 1
EndChar

StartChar: approxequal
Encoding: 8776 8776 567
Width: 700
VWidth: 0
Flags: W
HStem: 20 105<421.366 556.349> 125 105<143.651 278.634> 250 105<421.366 556.349> 355 105<143.651 278.634>
LayerCount: 2
Fore
SplineSet
60 85 m 1x40
 60 170 l 1
 120 200 180 230 240 230 c 0x40
 290 230 335 205 370 180 c 0
 411 151 450 125 495 125 c 0
 545 125 600 145 640 165 c 1
 640 80 l 1
 580 50 520 20 460 20 c 0x80
 410 20 365 45 330 70 c 0
 289 99 250 125 205 125 c 0
 155 125 100 105 60 85 c 1x40
60 315 m 1
 60 400 l 1
 120 430 180 460 240 460 c 0x10
 290 460 335 435 370 410 c 0
 411 381 450 355 495 355 c 0
 545 355 600 375 640 395 c 1
 640 310 l 1
 580 280 520 250 460 250 c 0x20
 410 250 365 275 330 300 c 0
 289 329 250 355 205 355 c 0x10
 155 355 100 335 60 315 c 1
EndSplineSet
Validated: 1
EndChar

StartChar: lozenge
Encoding: 9674 9674 568
Width: 700
VWidth: 0
Flags: MW
HStem: -60 170<344.795 355.205> 550 170<344.795 355.205>
VStem: 60 125<320.667 339.333> 515 125<320.667 339.333>
LayerCount: 2
Fore
SplineSet
60 330 m 1
 350 720 l 1
 640 330 l 1
 350 -60 l 1
 60 330 l 1
185 330 m 1
 350 110 l 1
 515 330 l 1
 350 550 l 1
 185 330 l 1
EndSplineSet
EndChar

StartChar: uni048E
Encoding: 1166 1166 573
Width: 890
VWidth: 0
Flags: W
HStem: 0 21G<70 220> 270 85<220 375 580 667.917> 575 85<220 667.917>
VStem: 70 150<0 270 355 575> 670 150<360.439 569.561>
LayerCount: 2
Fore
SplineSet
70 0 m 1
 70 660 l 1
 580 660 l 2
 700 660 820 660 820 525 c 2
 820 405 l 2
 820 270 700 270 580 270 c 1
 630 220 l 1
 570 160 l 1
 460 270 l 1
 220 270 l 1
 220 0 l 1
 70 0 l 1
220 355 m 1
 375 355 l 1
 325 405 l 1
 385 465 l 1
 495 355 l 1
 610 355 l 2
 640 355 670 355 670 390 c 2
 670 540 l 2
 670 575 640 575 610 575 c 2
 220 575 l 1
 220 355 l 1
EndSplineSet
Validated: 1
EndChar

StartChar: uni048F
Encoding: 1167 1167 574
Width: 700
VWidth: 0
Flags: W
HStem: -225 21G<60 200> 0 75<200 300> 405 75<200 495.591>
VStem: 60 140<-225 0 75 405> 500 140<79.3982 402.959>
LayerCount: 2
Fore
SplineSet
60 -225 m 1
 60 480 l 1
 440 480 l 2
 540 480 640 480 640 365 c 2
 640 115 l 2
 640 30 590 5 495 0 c 1
 545 -50 l 1
 485 -110 l 1
 375 0 l 1
 200 0 l 1
 200 -225 l 1
 60 -225 l 1
200 75 m 1
 300 75 l 1
 250 125 l 1
 310 185 l 1
 420 75 l 1
 450 75 l 2
 475 75 500 75 500 105 c 2
 500 375 l 2
 500 405 475 405 450 405 c 2
 200 405 l 1
 200 75 l 1
EndSplineSet
Validated: 1
EndChar

StartChar: afii10050
Encoding: 1168 1168 575
Width: 800
VWidth: 0
Flags: W
HStem: 0 21G<70 220> 575 85<220 640>
VStem: 70 150<0 575> 640 130<660 810>
LayerCount: 2
Fore
SplineSet
70 0 m 1
 70 660 l 1
 640 660 l 1
 640 810 l 1
 770 810 l 1
 770 575 l 1
 220 575 l 1
 220 0 l 1
 70 0 l 1
EndSplineSet
Validated: 1
EndChar

StartChar: afii10098
Encoding: 1169 1169 576
Width: 660
VWidth: 0
Flags: MW
HStem: 0 21G<60 200> 405 75<200 480>
VStem: 60 140<0 405> 480 120<480 605>
LayerCount: 2
Fore
SplineSet
60 0 m 1
 60 480 l 1
 480 480 l 1
 480 605 l 1
 600 605 l 1
 600 405 l 1
 200 405 l 1
 200 0 l 1
 60 0 l 1
EndSplineSet
Validated: 1
EndChar

StartChar: uni0492
Encoding: 1170 1170 577
Width: 830
VWidth: 0
Flags: MW
HStem: 0 21G<100 250> 330 75<20 100 250 475> 575 85<250 800>
VStem: 100 150<0 330 405 575> 780 20G
LayerCount: 2
Fore
SplineSet
20 330 m 1
 20 405 l 1
 100 405 l 1
 100 660 l 1
 800 660 l 1
 800 575 l 1
 250 575 l 1
 250 405 l 1
 475 405 l 1
 475 330 l 1
 250 330 l 1
 250 0 l 1
 100 0 l 1
 100 330 l 1
 20 330 l 1
EndSplineSet
Validated: 1
EndChar

StartChar: uni0493
Encoding: 1171 1171 578
Width: 680
VWidth: 0
Flags: MW
HStem: 0 21G<80 220> 230 65<20 80 220 370> 405 75<220 620>
VStem: 80 140<0 230 295 405> 600 20G
LayerCount: 2
Fore
SplineSet
20 230 m 1
 20 295 l 1
 80 295 l 1
 80 480 l 1
 620 480 l 1
 620 405 l 1
 220 405 l 1
 220 295 l 1
 370 295 l 1
 370 230 l 1
 220 230 l 1
 220 0 l 1
 80 0 l 1
 80 230 l 1
 20 230 l 1
EndSplineSet
Validated: 1
EndChar

StartChar: uni0494
Encoding: 1172 1172 579
Width: 890
VWidth: 0
Flags: W
HStem: -225 85<520 584.819> 0 21G<70 220> 325 85<220 667.917> 575 85<220 770>
VStem: 70 150<0 325 410 575> 670 150<-54.6695 319.561>
LayerCount: 2
Fore
SplineSet
70 0 m 1
 70 660 l 1
 770 660 l 1
 770 575 l 1
 220 575 l 1
 220 410 l 1
 580 410 l 2
 700 410 820 410 820 275 c 2
 820 50 l 2
 820 -195 620 -215 520 -225 c 1
 520 -140 l 1
 570 -130 670 -110 670 50 c 2
 670 290 l 2
 670 325 640 325 610 325 c 2
 220 325 l 1
 220 0 l 1
 70 0 l 1
EndSplineSet
Validated: 1
EndChar

StartChar: uni0495
Encoding: 1173 1173 580
Width: 700
VWidth: 0
Flags: W
HStem: -225 75<390 443.541> 0 21G<60 200> 225 75<200 495.591> 405 75<200 600>
VStem: 60 140<0 225 300 405> 500 140<-94.1748 221.654>
LayerCount: 2
Fore
SplineSet
60 0 m 1
 60 480 l 1
 600 480 l 1
 600 405 l 1
 200 405 l 1
 200 300 l 1
 440 300 l 2
 540 300 640 300 640 200 c 2
 640 0 l 2
 640 -200 490 -215 390 -225 c 1
 390 -150 l 1
 470 -130 500 -90 500 0 c 2
 500 200 l 2
 500 225 475 225 450 225 c 2
 200 225 l 1
 200 0 l 1
 60 0 l 1
EndSplineSet
Validated: 1
EndChar

StartChar: uni0496
Encoding: 1174 1174 581
Width: 1170
VWidth: 0
Flags: W
HStem: 0 21G<20 220 500 650> 640 20G<60 260 500 650 890 1090>
VStem: 500 150<0 220 400 660> 1000 130<-150 0>
LayerCount: 2
Fore
SplineSet
20 0 m 1
 370 350 l 1
 60 660 l 1
 240 660 l 1
 500 400 l 1
 500 660 l 1
 650 660 l 1
 650 400 l 1
 910 660 l 1
 1090 660 l 1
 780 350 l 1
 1045 85 l 1
 1130 85 l 1
 1130 -150 l 1
 1000 -150 l 1
 1000 0 l 1
 950 0 l 1
 690 260 l 1
 650 220 l 1
 650 0 l 1
 500 0 l 1
 500 220 l 1
 460 260 l 1
 200 0 l 1
 20 0 l 1
EndSplineSet
Validated: 1
EndChar

StartChar: uni0497
Encoding: 1175 1175 582
Width: 930
VWidth: 0
Flags: W
HStem: 0 21G<20 200 390 530> 460 20G<40 220 390 530 700 880>
VStem: 390 140<0 130 290 480> 780 120<-125 0>
LayerCount: 2
Fore
SplineSet
20 0 m 1
 270 250 l 1
 40 480 l 1
 200 480 l 1
 390 290 l 1
 390 480 l 1
 530 480 l 1
 530 290 l 1
 720 480 l 1
 880 480 l 1
 650 250 l 1
 825 75 l 1
 900 75 l 1
 900 -125 l 1
 780 -125 l 1
 780 0 l 1
 740 0 l 1
 570 170 l 1
 530 130 l 1
 530 0 l 1
 390 0 l 1
 390 130 l 1
 350 170 l 1
 180 0 l 1
 20 0 l 1
EndSplineSet
Validated: 1
EndChar

StartChar: uni049A
Encoding: 1178 1178 585
Width: 830
VWidth: 0
Flags: W
HStem: 0 21G<70 220> 640 20G<70 220 550 750>
VStem: 70 150<0 130 310 660> 660 130<-150 0>
LayerCount: 2
Fore
SplineSet
70 0 m 1
 70 660 l 1
 220 660 l 1
 220 310 l 1
 570 660 l 1
 750 660 l 1
 440 350 l 1
 705 85 l 1
 790 85 l 1
 790 -150 l 1
 660 -150 l 1
 660 0 l 1
 610 0 l 1
 350 260 l 1
 220 130 l 1
 220 0 l 1
 70 0 l 1
EndSplineSet
Validated: 1
EndChar

StartChar: uni049B
Encoding: 1179 1179 586
Width: 650
VWidth: 0
Flags: W
HStem: 0 21G<60 200> 460 20G<60 200 420 600>
VStem: 60 140<0 80 240 480> 500 120<-125 0>
LayerCount: 2
Fore
SplineSet
60 0 m 1
 60 480 l 1
 200 480 l 1
 200 240 l 1
 440 480 l 1
 600 480 l 1
 370 250 l 1
 545 75 l 1
 620 75 l 1
 620 -125 l 1
 500 -125 l 1
 500 0 l 1
 460 0 l 1
 290 170 l 1
 200 80 l 1
 200 0 l 1
 60 0 l 1
EndSplineSet
Validated: 1
EndChar

StartChar: uni049C
Encoding: 1180 1180 587
Width: 810
VWidth: 0
Flags: MW
HStem: 0 21G<70 220 590 790> 640 20G<70 220 550 750>
VStem: 70 150<0 130 310 660> 220 65 285 75<85 195 450 575>
LayerCount: 2
Fore
SplineSet
70 0 m 1
 70 660 l 1
 220 660 l 1
 220 310 l 1x10
 285 375 l 1x10
 285 575 l 1
 360 575 l 1
 360 450 l 1
 570 660 l 1
 750 660 l 1
 440 350 l 1
 790 0 l 1
 610 0 l 1
 360 250 l 1
 360 85 l 1
 285 85 l 1
 285 195 l 1x10
 220 130 l 1x10
 220 0 l 1
 70 0 l 1
EndSplineSet
Validated: 1
EndChar

StartChar: uni049D
Encoding: 1181 1181 588
Width: 640
VWidth: 0
Flags: MW
HStem: 0 21G<60 200 440 620> 460 20G<60 200 420 600>
VStem: 60 140<0 80 240 480> 200 50 250 65<50 130 355 430>
LayerCount: 2
Fore
SplineSet
60 0 m 1
 60 480 l 1
 200 480 l 1
 200 240 l 1x10
 250 290 l 1x10
 250 430 l 1
 315 430 l 1
 315 355 l 1
 440 480 l 1
 600 480 l 1
 370 250 l 1
 620 0 l 1
 460 0 l 1
 315 145 l 1
 315 50 l 1
 250 50 l 1
 250 130 l 1x10
 200 80 l 1x10
 200 0 l 1
 60 0 l 1
EndSplineSet
Validated: 1
EndChar

StartChar: uni049E
Encoding: 1182 1182 589
Width: 840
VWidth: 0
Flags: W
HStem: 0 21G<100 250 620 820> 500 75<20 100 250 330> 640 20G<100 250 580 780>
VStem: 100 150<0 130 310 500 575 660>
LayerCount: 2
Fore
SplineSet
20 500 m 1
 20 575 l 1
 100 575 l 1
 100 660 l 1
 250 660 l 1
 250 575 l 1
 330 575 l 1
 330 500 l 1
 250 500 l 1
 250 310 l 1
 600 660 l 1
 780 660 l 1
 470 350 l 1
 820 0 l 1
 640 0 l 1
 380 260 l 1
 250 130 l 1
 250 0 l 1
 100 0 l 1
 100 500 l 1
 20 500 l 1
EndSplineSet
Validated: 1
EndChar

StartChar: uni049F
Encoding: 1183 1183 590
Width: 660
VWidth: 0
Flags: W
HStem: 0 21G<80 220 460 640> 340 65<20 80 220 280> 460 20G<80 220 440 620>
VStem: 80 140<0 80 240 340 405 480>
LayerCount: 2
Fore
SplineSet
20 340 m 1
 20 405 l 1
 80 405 l 1
 80 480 l 1
 220 480 l 1
 220 405 l 1
 280 405 l 1
 280 340 l 1
 220 340 l 1
 220 240 l 1
 460 480 l 1
 620 480 l 1
 390 250 l 1
 640 0 l 1
 480 0 l 1
 310 170 l 1
 220 80 l 1
 220 0 l 1
 80 0 l 1
 80 340 l 1
 20 340 l 1
EndSplineSet
Validated: 1
EndChar

StartChar: uni04A0
Encoding: 1184 1184 591
Width: 1010
VWidth: 0
Flags: MW
HStem: 0 21G<270 420 790 990> 575 85<30 270>
VStem: 30 21G 270 150<0 130 310 575>
LayerCount: 2
Fore
SplineSet
30 575 m 1
 30 660 l 1
 420 660 l 1
 420 310 l 1
 770 660 l 1
 950 660 l 1
 640 350 l 1
 990 0 l 1
 810 0 l 1
 550 260 l 1
 420 130 l 1
 420 0 l 1
 270 0 l 1
 270 575 l 1
 30 575 l 1
EndSplineSet
Validated: 1
EndChar

StartChar: uni04A1
Encoding: 1185 1185 592
Width: 800
VWidth: 0
Flags: MW
HStem: 0 21G<220 360 600 780> 405 75<60 220>
VStem: 60 21G 220 140<0 80 240 405>
LayerCount: 2
Fore
SplineSet
60 405 m 1
 60 480 l 1
 360 480 l 1
 360 240 l 1
 600 480 l 1
 760 480 l 1
 530 250 l 1
 780 0 l 1
 620 0 l 1
 450 170 l 1
 360 80 l 1
 360 0 l 1
 220 0 l 1
 220 405 l 1
 60 405 l 1
EndSplineSet
Validated: 1
EndChar

StartChar: uni04A2
Encoding: 1186 1186 593
Width: 960
VWidth: 0
Flags: W
HStem: 0 21G<70 220> 325 85<220 670> 640 20G<70 220 670 820>
VStem: 70 150<0 325 410 660> 670 150<85 325 410 660> 790 130<-150 0>
LayerCount: 2
Fore
SplineSet
70 0 m 1xf8
 70 660 l 1
 220 660 l 1
 220 410 l 1
 670 410 l 1
 670 660 l 1
 820 660 l 1
 820 85 l 1xf8
 920 85 l 1
 920 -150 l 1
 790 -150 l 1
 790 0 l 1xf4
 670 0 l 1
 670 325 l 1
 220 325 l 1
 220 0 l 1
 70 0 l 1xf8
EndSplineSet
Validated: 1
EndChar

StartChar: uni04A3
Encoding: 1187 1187 594
Width: 750
VWidth: 0
Flags: W
HStem: 0 21G<60 200> 225 75<200 500> 460 20G<60 200 500 640>
VStem: 60 140<0 225 300 480> 500 140<75 225 300 480> 600 120<-125 0>
LayerCount: 2
Fore
SplineSet
60 0 m 1xf8
 60 480 l 1
 200 480 l 1
 200 300 l 1
 500 300 l 1
 500 480 l 1
 640 480 l 1
 640 75 l 1xf8
 720 75 l 1
 720 -125 l 1
 600 -125 l 1
 600 0 l 1xf4
 500 0 l 1
 500 225 l 1
 200 225 l 1
 200 0 l 1
 60 0 l 1xf8
EndSplineSet
Validated: 1
EndChar

StartChar: uni04A4
Encoding: 1188 1188 595
Width: 1250
VWidth: 0
Flags: MW
HStem: 0 21G<70 220 670 820> 325 85<220 670> 575 85<820 1220>
VStem: 70 150<0 325 410 660> 670 150<0 325 410 575> 1200 20G
LayerCount: 2
Fore
SplineSet
70 0 m 1
 70 660 l 1
 220 660 l 1
 220 410 l 1
 670 410 l 1
 670 660 l 1
 1220 660 l 1
 1220 575 l 1
 820 575 l 1
 820 0 l 1
 670 0 l 1
 670 325 l 1
 220 325 l 1
 220 0 l 1
 70 0 l 1
EndSplineSet
Validated: 1
EndChar

StartChar: uni04A5
Encoding: 1189 1189 596
Width: 960
VWidth: 0
Flags: MW
HStem: 0 21G<60 200 500 640> 225 75<200 500> 405 75<640 900>
VStem: 60 140<0 225 300 480> 500 140<0 225 300 405> 880 20G
LayerCount: 2
Fore
SplineSet
60 0 m 1
 60 480 l 1
 200 480 l 1
 200 300 l 1
 500 300 l 1
 500 480 l 1
 900 480 l 1
 900 405 l 1
 640 405 l 1
 640 0 l 1
 500 0 l 1
 500 225 l 1
 200 225 l 1
 200 0 l 1
 60 0 l 1
EndSplineSet
Validated: 1
EndChar

StartChar: uni04A6
Encoding: 1190 1190 597
Width: 1390
VWidth: 0
Flags: W
HStem: -225 85<1020 1084.82> 0 21G<70 220 620 770> 325 85<770 1167.92> 575 85<220 620>
VStem: 70 150<0 575> 620 150<0 325 410 575> 1170 150<-54.6695 319.561>
CounterMasks: 1 0e
LayerCount: 2
Fore
SplineSet
70 0 m 1
 70 660 l 1
 770 660 l 1
 770 410 l 1
 1080 410 l 2
 1200 410 1320 410 1320 275 c 2
 1320 50 l 2
 1320 -195 1120 -215 1020 -225 c 1
 1020 -140 l 1
 1070 -130 1170 -110 1170 50 c 2
 1170 290 l 2
 1170 325 1140 325 1110 325 c 2
 770 325 l 1
 770 0 l 1
 620 0 l 1
 620 575 l 1
 220 575 l 1
 220 0 l 1
 70 0 l 1
EndSplineSet
Validated: 1
EndChar

StartChar: uni04A7
Encoding: 1191 1191 598
Width: 1060
VWidth: 0
Flags: W
HStem: -225 75<750 803.541> 0 21G<60 200 460 600> 225 75<600 855.591> 405 75<200 460>
VStem: 60 140<0 405> 460 140<0 225 300 405> 860 140<-94.1748 222.959>
CounterMasks: 1 0e
LayerCount: 2
Fore
SplineSet
60 0 m 1
 60 480 l 1
 600 480 l 1
 600 300 l 1
 800 300 l 2
 900 300 1000 300 1000 185 c 2
 1000 0 l 2
 1000 -200 850 -215 750 -225 c 1
 750 -150 l 1
 830 -130 860 -90 860 0 c 2
 860 195 l 2
 860 225 835 225 810 225 c 2
 600 225 l 1
 600 0 l 1
 460 0 l 1
 460 405 l 1
 200 405 l 1
 200 0 l 1
 60 0 l 1
EndSplineSet
Validated: 1
EndChar

StartChar: uni04A8
Encoding: 1192 1192 599
Width: 1120
VWidth: 0
Flags: W
HStem: 0 85<247.686 390 547.686 792.314 950 1050> 395 85<547.23 792.77> 575 85<247.686 520>
VStem: 70 150<113.887 546.113> 370 150<111.618 366.113> 820 150<111.618 366.113>
LayerCount: 2
Fore
SplineSet
70 170 m 2
 70 490 l 2
 70 660 220 660 370 660 c 2
 520 660 l 1
 520 575 l 1
 370 575 l 2
 295 575 220 575 220 490 c 2
 220 170 l 2
 220 85 295 85 370 85 c 2
 390 85 l 1
 380 100 370 130 370 170 c 2
 370 310 l 2
 370 480 520 480 670 480 c 3
 820 480 970 480 970 310 c 2
 970 170 l 2
 970 130 960 100 950 85 c 1
 1050 85 l 1
 1050 0 l 1
 370 0 l 2
 220 0 70 0 70 170 c 2
520 170 m 2
 520 85 595 85 670 85 c 3
 745 85 820 85 820 170 c 2
 820 310 l 2
 820 395 745 395 670 395 c 3
 595 395 520 395 520 310 c 2
 520 170 l 2
EndSplineSet
Validated: 1
EndChar

StartChar: uni04A9
Encoding: 1193 1193 600
Width: 960
VWidth: 0
Flags: W
HStem: 0 75<218.843 355 494.435 685.565 825 900> 255 75<494.658 685.342> 405 75<218.843 480>
VStem: 60 140<92.0272 387.973> 340 140<90.1562 237.973> 700 140<90.1562 237.973>
LayerCount: 2
Fore
SplineSet
60 145 m 2
 60 335 l 2
 60 480 190 480 320 480 c 2
 480 480 l 1
 480 405 l 1
 310 405 l 2
 255 405 200 405 200 340 c 2
 200 140 l 2
 200 75 255 75 310 75 c 2
 355 75 l 1
 345 95 340 115 340 145 c 2
 340 185 l 2
 340 330 470 330 590 330 c 0
 710 330 840 330 840 185 c 2
 840 145 l 2
 840 115 835 95 825 75 c 1
 900 75 l 1
 900 0 l 1
 320 0 l 2
 190 0 60 0 60 145 c 2
480 140 m 2
 480 75 535 75 590 75 c 0
 645 75 700 75 700 140 c 2
 700 190 l 2
 700 255 645 255 590 255 c 0
 535 255 480 255 480 190 c 2
 480 140 l 2
EndSplineSet
Validated: 1
EndChar

StartChar: uni04AC
Encoding: 1196 1196 603
Width: 890
VWidth: 0
Flags: W
HStem: 575 85<30 370 520 860>
VStem: 370 150<85 575> 490 130<-150 0>
LayerCount: 2
Fore
SplineSet
30 575 m 1xc0
 30 660 l 1
 860 660 l 1
 860 575 l 1
 520 575 l 1
 520 85 l 1xc0
 620 85 l 1
 620 -150 l 1
 490 -150 l 1
 490 0 l 1xa0
 370 0 l 1
 370 575 l 1
 30 575 l 1xc0
EndSplineSet
Validated: 1
EndChar

StartChar: uni04AD
Encoding: 1197 1197 604
Width: 700
VWidth: 0
Flags: W
HStem: 405 75<60 280 420 640>
VStem: 280 140<75 405> 380 120<-125 0>
LayerCount: 2
Fore
SplineSet
60 405 m 1xc0
 60 480 l 1
 640 480 l 1
 640 405 l 1
 420 405 l 1
 420 75 l 1xc0
 500 75 l 1
 500 -125 l 1
 380 -125 l 1
 380 0 l 1xa0
 280 0 l 1
 280 405 l 1
 60 405 l 1xc0
EndSplineSet
Validated: 1
EndChar

StartChar: uni04B0
Encoding: 1200 1200 607
Width: 890
VWidth: 0
Flags: W
HStem: 0 21G<370 520> 135 75<195 370 520 695> 640 20G<20 220 670 870>
VStem: 370 150<0 135 210 310>
LayerCount: 2
Fore
SplineSet
20 660 m 1
 200 660 l 1
 445 415 l 1
 690 660 l 1
 870 660 l 1
 520 310 l 1
 520 210 l 1
 695 210 l 1
 695 135 l 1
 520 135 l 1
 520 0 l 1
 370 0 l 1
 370 135 l 1
 195 135 l 1
 195 210 l 1
 370 210 l 1
 370 310 l 1
 20 660 l 1
EndSplineSet
Validated: 1
EndChar

StartChar: uni04B1
Encoding: 1201 1201 608
Width: 680
VWidth: 0
Flags: W
HStem: -225 21G<270 410> -145 65<145 270 410 535> 460 20G<20 170 510 660>
VStem: 270 140<-225 -145 -80 -20>
LayerCount: 2
Fore
SplineSet
20 480 m 1
 160 480 l 1
 340 120 l 1
 520 480 l 1
 660 480 l 1
 410 -20 l 1
 410 -80 l 1
 535 -80 l 1
 535 -145 l 1
 410 -145 l 1
 410 -225 l 1
 270 -225 l 1
 270 -145 l 1
 145 -145 l 1
 145 -80 l 1
 270 -80 l 1
 270 -20 l 1
 20 480 l 1
EndSplineSet
Validated: 1
EndChar

StartChar: uni04B2
Encoding: 1202 1202 609
Width: 900
VWidth: 0
Flags: W
HStem: 0 21G<20 220> 640 20G<20 220 660 860>
VStem: 730 130<-150 0>
LayerCount: 2
Fore
SplineSet
860 85 m 1
 860 -150 l 1
 730 -150 l 1
 730 0 l 1
 680 0 l 1
 440 240 l 1
 200 0 l 1
 20 0 l 1
 350 330 l 1
 20 660 l 1
 200 660 l 1
 440 420 l 1
 680 660 l 1
 860 660 l 1
 530 330 l 1
 775 85 l 1
 860 85 l 1
EndSplineSet
Validated: 1
EndChar

StartChar: uni04B3
Encoding: 1203 1203 610
Width: 690
VWidth: 0
Flags: W
HStem: 0 21G<20 200> 460 20G<20 200 480 660>
VStem: 540 120<-125 0>
LayerCount: 2
Fore
SplineSet
20 0 m 1
 260 240 l 1
 20 480 l 1
 180 480 l 1
 340 320 l 1
 500 480 l 1
 660 480 l 1
 420 240 l 1
 585 75 l 1
 660 75 l 1
 660 -125 l 1
 540 -125 l 1
 540 0 l 1
 500 0 l 1
 340 160 l 1
 180 0 l 1
 20 0 l 1
EndSplineSet
Validated: 1
EndChar

StartChar: uni04B4
Encoding: 1204 1204 611
Width: 1260
VWidth: 0
Flags: W
HStem: 0 85<520 970> 575 85<30 370 520 860>
VStem: 370 150<85 575> 970 150<85 660> 1090 130<-150 0>
LayerCount: 2
Fore
SplineSet
30 575 m 1xe8
 30 660 l 1
 860 660 l 1
 860 575 l 1
 520 575 l 1
 520 85 l 1
 970 85 l 1
 970 660 l 1
 1120 660 l 1
 1120 85 l 1xf0
 1220 85 l 1
 1220 -150 l 1
 1090 -150 l 1
 1090 0 l 1
 370 0 l 1
 370 575 l 1
 30 575 l 1xe8
EndSplineSet
Validated: 1
EndChar

StartChar: uni04B5
Encoding: 1205 1205 612
Width: 970
VWidth: 0
Flags: W
HStem: 0 75<420 720> 405 75<60 280 420 640>
VStem: 280 140<75 405> 720 140<75 480> 820 120<-125 0>
LayerCount: 2
Fore
SplineSet
60 405 m 1xe8
 60 480 l 1
 640 480 l 1
 640 405 l 1
 420 405 l 1
 420 75 l 1
 720 75 l 1
 720 480 l 1
 860 480 l 1
 860 75 l 1xf0
 940 75 l 1
 940 -125 l 1
 820 -125 l 1
 820 0 l 1
 280 0 l 1
 280 405 l 1
 60 405 l 1xe8
EndSplineSet
Validated: 1
EndChar

StartChar: uni04B6
Encoding: 1206 1206 613
Width: 960
VWidth: 0
Flags: W
HStem: 270 85<222.083 670> 640 20G<70 220 670 820>
VStem: 70 150<360.439 660> 670 150<85 270 355 660> 790 130<-150 0>
LayerCount: 2
Fore
SplineSet
70 405 m 2xf0
 70 660 l 1
 220 660 l 1
 220 390 l 2
 220 355 250 355 280 355 c 2
 670 355 l 1
 670 660 l 1
 820 660 l 1
 820 85 l 1xf0
 920 85 l 1
 920 -150 l 1
 790 -150 l 1
 790 0 l 1xe8
 670 0 l 1
 670 270 l 1
 310 270 l 2
 190 270 70 270 70 405 c 2xf0
EndSplineSet
Validated: 1
EndChar

StartChar: uni04B7
Encoding: 1207 1207 614
Width: 750
VWidth: 0
Flags: W
HStem: 195 75<204.409 500> 460 20G<60 200 500 640>
VStem: 60 140<272.041 480> 500 140<75 195 270 480> 600 120<-125 0>
LayerCount: 2
Fore
SplineSet
60 310 m 2xf0
 60 480 l 1
 200 480 l 1
 200 300 l 2
 200 270 225 270 250 270 c 2
 500 270 l 1
 500 480 l 1
 640 480 l 1
 640 75 l 1xf0
 720 75 l 1
 720 -125 l 1
 600 -125 l 1
 600 0 l 1xe8
 500 0 l 1
 500 195 l 1
 260 195 l 2
 160 195 60 195 60 310 c 2xf0
EndSplineSet
Validated: 1
EndChar

StartChar: uni04B8
Encoding: 1208 1208 615
Width: 890
VWidth: 0
Flags: W
HStem: 0 21G<670 820> 270 85<222.083 405 480 670> 640 20G<70 220 670 820>
VStem: 70 150<360.439 660> 405 75<135 270 355 490> 670 150<0 270 355 660>
LayerCount: 2
Fore
SplineSet
70 405 m 2
 70 660 l 1
 220 660 l 1
 220 390 l 2
 220 355 250 355 280 355 c 2
 405 355 l 1
 405 490 l 1
 480 490 l 1
 480 355 l 1
 670 355 l 1
 670 660 l 1
 820 660 l 1
 820 0 l 1
 670 0 l 1
 670 270 l 1
 480 270 l 1
 480 135 l 1
 405 135 l 1
 405 270 l 1
 310 270 l 2
 190 270 70 270 70 405 c 2
EndSplineSet
Validated: 1
EndChar

StartChar: uni04B9
Encoding: 1209 1209 616
Width: 700
VWidth: 0
Flags: W
HStem: 0 21G<500 640> 195 75<204.409 315 380 500> 460 20G<60 200 500 640>
VStem: 60 140<272.041 480> 315 65<95 195 270 370> 500 140<0 195 270 480>
LayerCount: 2
Fore
SplineSet
60 310 m 2
 60 480 l 1
 200 480 l 1
 200 300 l 2
 200 270 225 270 250 270 c 2
 315 270 l 1
 315 370 l 1
 380 370 l 1
 380 270 l 1
 500 270 l 1
 500 480 l 1
 640 480 l 1
 640 0 l 1
 500 0 l 1
 500 195 l 1
 380 195 l 1
 380 95 l 1
 315 95 l 1
 315 195 l 1
 260 195 l 2
 160 195 60 195 60 310 c 2
EndSplineSet
Validated: 1
EndChar

StartChar: uni04BA
Encoding: 1210 1210 617
Width: 890
VWidth: 0
Flags: W
HStem: 0 21G<70 220 670 820> 325 85<220 667.917> 640 20G<70 220>
VStem: 70 150<0 325 410 660> 670 150<0 319.561>
LayerCount: 2
Fore
SplineSet
70 0 m 1
 70 660 l 1
 220 660 l 1
 220 410 l 1
 580 410 l 2
 700 410 820 410 820 275 c 2
 820 0 l 1
 670 0 l 1
 670 290 l 2
 670 325 640 325 610 325 c 2
 220 325 l 1
 220 0 l 1
 70 0 l 1
EndSplineSet
Validated: 1
EndChar

StartChar: uni04BB
Encoding: 1211 1211 618
Width: 700
VWidth: 0
Flags: W
HStem: 0 21G<60 200 500 640> 225 75<200 495.591> 460 20G<60 200>
VStem: 60 140<0 225 300 480> 500 140<0 222.959>
LayerCount: 2
Fore
SplineSet
60 0 m 1
 60 480 l 1
 200 480 l 1
 200 300 l 1
 440 300 l 2
 540 300 640 300 640 185 c 2
 640 0 l 1
 500 0 l 1
 500 195 l 2
 500 225 475 225 450 225 c 2
 200 225 l 1
 200 0 l 1
 60 0 l 1
EndSplineSet
Validated: 1
EndChar

StartChar: uni04BC
Encoding: 1212 1212 619
Width: 1100
VWidth: 0
Flags: W
HStem: 0 85<457.686 852.314> 325 85<192.083 280 430 880> 575 85<457.686 852.314>
VStem: 40 150<415.439 510> 280 150<113.887 325 410 546.113> 880 150<113.887 170 410 546.113>
LayerCount: 2
Fore
SplineSet
40 460 m 10
 40 510 l 25
 190 510 l 25
 190 445 l 2
 190 410 220 410 250 410 c 2
 280 410 l 1
 280 490 l 2
 280 660 430 660 580 660 c 2
 730 660 l 2
 880 660 1030 660 1030 490 c 2
 1030 325 l 1
 430 325 l 1
 430 170 l 2
 430 85 505 85 580 85 c 2
 730 85 l 2
 805 85 880 85 880 170 c 1
 1030 170 l 1
 1030 0 880 0 730 0 c 2
 580 0 l 2
 430 0 280 0 280 170 c 2
 280 325 l 17
 160 325 40 325 40 460 c 10
430 410 m 1
 880 410 l 1
 880 490 l 2
 880 575 805 575 730 575 c 2
 580 575 l 2
 505 575 430 575 430 490 c 2
 430 410 l 1
EndSplineSet
Validated: 1
EndChar

StartChar: uni04BD
Encoding: 1213 1213 620
Width: 900
VWidth: 0
Flags: W
HStem: 0 75<418.843 686.795> 225 75<184.409 260 400 700> 405 75<418.843 686.795>
VStem: 40 140<302.041 390> 260 140<92.0272 225 300 387.973> 700 140<93.1405 130 300 391.475>
LayerCount: 2
Fore
SplineSet
40 340 m 10
 40 390 l 25
 180 390 l 25
 180 330 l 2
 180 300 205 300 230 300 c 2
 260 300 l 1
 260 335 l 2
 260 480 390 480 520 480 c 2
 580 480 l 2
 710 480 840 475 840 350 c 2
 840 225 l 1
 400 225 l 1
 400 140 l 2
 400 75 455 75 510 75 c 2
 590 75 l 2
 645 75 700 80 700 130 c 1
 840 130 l 1
 840 5 710 0 580 0 c 2
 520 0 l 2
 390 0 260 0 260 145 c 2
 260 225 l 1
 240 225 l 2
 140 225 40 225 40 340 c 10
400 300 m 1
 700 300 l 1
 700 350 l 2
 700 405 645 405 590 405 c 2
 510 405 l 2
 455 405 400 405 400 340 c 2
 400 300 l 1
EndSplineSet
EndChar

StartChar: uni04BE
Encoding: 1214 1214 621
Width: 1100
VWidth: 0
Flags: W
HStem: 0 85<457.686 590 720 852.314> 325 85<192.083 280 430 880> 575 85<457.686 852.314>
VStem: 40 150<415.439 510> 280 150<113.887 325 410 546.113> 590 130<-150 0> 880 150<113.887 170 410 546.113>
LayerCount: 2
Fore
SplineSet
40 460 m 2
 40 510 l 1
 190 510 l 1
 190 445 l 2
 190 410 220 410 250 410 c 2
 280 410 l 1
 280 490 l 2
 280 660 430 660 580 660 c 2
 730 660 l 2
 880 660 1030 660 1030 490 c 2
 1030 325 l 1
 430 325 l 1
 430 170 l 2
 430 85 505 85 580 85 c 2
 730 85 l 2
 805 85 880 85 880 170 c 1
 1030 170 l 1
 1030 0 880 0 730 0 c 2
 720 0 l 1
 720 -150 l 1
 590 -150 l 1
 590 0 l 1
 580 0 l 2
 430 0 280 0 280 170 c 2
 280 325 l 1
 160 325 40 325 40 460 c 2
430 410 m 1
 880 410 l 1
 880 490 l 2
 880 575 805 575 730 575 c 2
 580 575 l 2
 505 575 430 575 430 490 c 2
 430 410 l 1
EndSplineSet
Validated: 1
EndChar

StartChar: uni04BF
Encoding: 1215 1215 622
Width: 900
VWidth: 0
Flags: W
HStem: 0 75<414.743 490 610 685.257> 225 75<184.409 260 400 700> 405 75<418.843 686.795>
VStem: 40 140<302.041 390> 260 140<93.585 225 300 387.973> 490 120<-125 0> 700 140<89.9609 130 300 391.475>
LayerCount: 2
Fore
SplineSet
40 340 m 2
 40 390 l 1
 180 390 l 1
 180 330 l 2
 180 300 205 300 230 300 c 2
 260 300 l 1
 260 335 l 2
 260 480 390 480 520 480 c 2
 580 480 l 2
 710 480 840 475 840 350 c 2
 840 225 l 1
 400 225 l 1
 400 140 l 2
 400 75 455 75 510 75 c 2
 590 75 l 2
 645 75 700 80 700 130 c 1
 840 130 l 1
 840 10 715 0 610 0 c 1
 610 -125 l 1
 490 -125 l 1
 490 0 l 1
 385 0 260 5 260 145 c 2
 260 225 l 1
 240 225 l 2
 140 225 40 225 40 340 c 2
400 300 m 1
 700 300 l 1
 700 350 l 2
 700 405 645 405 590 405 c 2
 510 405 l 2
 455 405 400 405 400 340 c 2
 400 300 l 1
EndSplineSet
EndChar

StartChar: uni04C3
Encoding: 1219 1219 626
Width: 780
VWidth: 0
Flags: W
HStem: -225 85<410 474.819> 0 21G<70 220> 325 85<220 320 500 555.376> 640 20G<70 220 550 750>
VStem: 70 150<0 325 410 660> 560 150<-54.6695 318.375>
LayerCount: 2
Fore
SplineSet
70 0 m 1
 70 660 l 1
 220 660 l 1
 220 410 l 1
 320 410 l 1
 570 660 l 1
 750 660 l 1
 500 410 l 1
 610 410 710 400 710 290 c 2
 710 50 l 2
 710 -195 510 -215 410 -225 c 1
 410 -140 l 1
 460 -130 560 -110 560 50 c 2
 560 295 l 2
 560 325 530 325 500 325 c 2
 220 325 l 1
 220 0 l 1
 70 0 l 1
EndSplineSet
Validated: 1
EndChar

StartChar: uni04C4
Encoding: 1220 1220 627
Width: 640
VWidth: 0
Flags: W
HStem: -225 75<330 383.541> 0 21G<60 200> 225 75<200 260 420 435.804> 460 20G<60 200 420 600>
VStem: 60 140<0 225 300 480> 440 140<-94.1748 222.339>
LayerCount: 2
Fore
SplineSet
60 0 m 1
 60 480 l 1
 200 480 l 1
 200 300 l 1
 260 300 l 1
 440 480 l 1
 600 480 l 1
 420 300 l 1
 505 300 580 285 580 185 c 2
 580 0 l 2
 580 -200 430 -215 330 -225 c 1
 330 -150 l 1
 410 -130 440 -90 440 0 c 2
 440 195 l 2
 440 225 415 225 390 225 c 2
 200 225 l 1
 200 0 l 1
 60 0 l 1
EndSplineSet
Validated: 1
EndChar

StartChar: uni04C7
Encoding: 1223 1223 628
Width: 890
VWidth: 0
Flags: W
HStem: -225 85<520 584.819> 0 21G<70 220> 325 85<220 670> 640 20G<70 220 670 820>
VStem: 70 150<0 325 410 660> 670 150<-54.6695 325 410 660>
LayerCount: 2
Fore
SplineSet
70 0 m 1
 70 660 l 1
 220 660 l 1
 220 410 l 1
 670 410 l 1
 670 660 l 1
 820 660 l 1
 820 50 l 2
 820 -195 620 -215 520 -225 c 1
 520 -140 l 1
 570 -130 670 -110 670 50 c 2
 670 325 l 1
 220 325 l 1
 220 0 l 1
 70 0 l 1
EndSplineSet
Validated: 1
EndChar

StartChar: uni04C8
Encoding: 1224 1224 629
Width: 700
VWidth: 0
Flags: W
HStem: -225 75<390 443.541> 0 21G<60 200> 225 75<200 500> 460 20G<60 200 500 640>
VStem: 60 140<0 225 300 480> 500 140<-94.1748 225 300 480>
LayerCount: 2
Fore
SplineSet
60 0 m 1
 60 480 l 1
 200 480 l 1
 200 300 l 1
 500 300 l 1
 500 480 l 1
 640 480 l 1
 640 0 l 2
 640 -200 490 -215 390 -225 c 1
 390 -150 l 1
 470 -130 500 -90 500 0 c 2
 500 225 l 1
 200 225 l 1
 200 0 l 1
 60 0 l 1
EndSplineSet
Validated: 1
EndChar

StartChar: uni04CB
Encoding: 1227 1227 630
Width: 890
VWidth: 0
Flags: W
HStem: 270 85<222.083 670> 640 20G<70 220 670 820>
VStem: 70 150<360.439 660> 570 130<-150 0> 670 150<85 270 355 660>
LayerCount: 2
Fore
SplineSet
70 405 m 2xe8
 70 660 l 1
 220 660 l 1
 220 390 l 2
 220 355 250 355 280 355 c 2
 670 355 l 1
 670 660 l 1
 820 660 l 1
 820 0 l 1xe8
 700 0 l 1
 700 -150 l 1
 570 -150 l 1
 570 85 l 1xf0
 670 85 l 1
 670 270 l 1
 310 270 l 2
 190 270 70 270 70 405 c 2xe8
EndSplineSet
Validated: 1
EndChar

StartChar: uni04CC
Encoding: 1228 1228 631
Width: 700
VWidth: 0
Flags: W
HStem: 195 75<204.409 500> 460 20G<60 200 500 640>
VStem: 60 140<272.041 480> 420 120<-125 0> 500 140<75 195 270 480>
LayerCount: 2
Fore
SplineSet
60 310 m 2xe8
 60 480 l 1
 200 480 l 1
 200 300 l 2
 200 270 225 270 250 270 c 2
 500 270 l 1
 500 480 l 1
 640 480 l 1
 640 0 l 1xe8
 540 0 l 1
 540 -125 l 1
 420 -125 l 1
 420 75 l 1xf0
 500 75 l 1
 500 195 l 1
 260 195 l 2
 160 195 60 195 60 310 c 2xe8
EndSplineSet
Validated: 1
EndChar

StartChar: uni04D8
Encoding: 1240 1240 640
Width: 890
VWidth: 0
Flags: W
HStem: 0 85<247.686 642.314> 250 85<220 670> 575 85<247.686 642.314>
VStem: 70 150<113.887 250 490 546.113> 670 150<113.887 250 335 546.113>
LayerCount: 2
Fore
SplineSet
70 170 m 2
 70 335 l 1
 670 335 l 1
 670 490 l 2
 670 575 595 575 520 575 c 2
 370 575 l 2
 295 575 220 575 220 490 c 1
 70 490 l 1
 70 660 220 660 370 660 c 2
 520 660 l 2
 670 660 820 660 820 490 c 2
 820 170 l 2
 820 0 670 0 520 0 c 2
 370 0 l 2
 220 0 70 0 70 170 c 2
220 170 m 2
 220 85 295 85 370 85 c 2
 520 85 l 2
 595 85 670 85 670 170 c 2
 670 250 l 1
 220 250 l 1
 220 170 l 2
EndSplineSet
Validated: 1
EndChar

StartChar: afii10846
Encoding: 1241 1241 641
Width: 700
VWidth: 0
Flags: W
HStem: 0 75<213.205 481.157> 180 75<200 500> 405 75<213.205 481.157>
VStem: 60 140<88.5254 180 350 386.859> 500 140<92.0272 180 255 387.973>
LayerCount: 2
Fore
SplineSet
60 130 m 2
 60 255 l 1
 500 255 l 1
 500 340 l 2
 500 405 445 405 390 405 c 2
 310 405 l 2
 255 405 200 400 200 350 c 1
 60 350 l 1
 60 475 190 480 320 480 c 2
 380 480 l 2
 510 480 640 480 640 335 c 2
 640 145 l 2
 640 0 510 0 380 0 c 2
 320 0 l 2
 190 0 60 5 60 130 c 2
200 130 m 2
 200 75 255 75 310 75 c 2
 390 75 l 2
 445 75 500 75 500 140 c 2
 500 180 l 1
 200 180 l 1
 200 130 l 2
EndSplineSet
Validated: 1
EndChar

StartChar: uni04E0
Encoding: 1248 1248 648
Width: 840
VWidth: 0
Flags: W
HStem: 0 85<70 617.917> 325 85<565 615.159> 575 85<70 580>
VStem: 620 150<90.4395 319.646>
LayerCount: 2
Fore
SplineSet
70 0 m 1
 70 85 l 1
 560 85 l 2
 590 85 620 85 620 120 c 2
 620 290 l 2
 620 325 590 325 560 325 c 2
 375 325 l 1
 375 410 l 1
 580 575 l 1
 70 575 l 1
 70 660 l 1
 770 660 l 1
 770 575 l 1
 565 410 l 1
 675 410 770 395 770 275 c 2
 770 135 l 2
 770 0 650 0 530 0 c 2
 70 0 l 1
EndSplineSet
Validated: 1
EndChar

StartChar: uni04E1
Encoding: 1249 1249 649
Width: 660
VWidth: 0
Flags: W
HStem: 0 75<60 455.591> 405 75<60 440>
VStem: 460 140<77.041 220.911>
LayerCount: 2
Fore
SplineSet
60 0 m 1
 60 75 l 1
 410 75 l 2
 435 75 460 75 460 105 c 2
 460 195 l 2
 460 225 435 225 410 225 c 2
 305 225 l 1
 305 300 l 1
 440 405 l 1
 60 405 l 1
 60 480 l 1
 600 480 l 1
 600 405 l 1
 465 300 l 1
 540 300 600 270 600 185 c 2
 600 115 l 2
 600 0 500 0 400 0 c 2
 60 0 l 1
EndSplineSet
Validated: 1
EndChar

StartChar: afii10146
Encoding: 1122 1122 680
Width: 920
VWidth: 0
Flags: W
HStem: 0 85<250 697.917> 325 85<250 697.917> 510 75<20 100 250 475> 640 20G<100 250>
VStem: 100 150<85 325 410 510 585 660> 700 150<90.4395 319.561>
LayerCount: 2
Fore
SplineSet
20 510 m 1
 20 585 l 1
 100 585 l 1
 100 660 l 1
 250 660 l 1
 250 585 l 1
 475 585 l 1
 475 510 l 1
 250 510 l 1
 250 410 l 1
 610 410 l 2
 730 410 850 410 850 275 c 2
 850 135 l 2
 850 0 730 0 610 0 c 2
 100 0 l 1
 100 510 l 1
 20 510 l 1
250 85 m 1
 640 85 l 2
 670 85 700 85 700 120 c 2
 700 290 l 2
 700 325 670 325 640 325 c 2
 250 325 l 1
 250 85 l 1
EndSplineSet
Validated: 1
EndChar

StartChar: afii10194
Encoding: 1123 1123 681
Width: 720
VWidth: 0
Flags: W
HStem: 0 75<220 515.591> 225 75<220 515.591> 360 65<20 80 220 370> 460 20G<80 220>
VStem: 80 140<75 225 300 360 425 480> 520 140<77.041 222.959>
LayerCount: 2
Fore
SplineSet
20 360 m 1
 20 425 l 1
 80 425 l 1
 80 480 l 1
 220 480 l 1
 220 425 l 1
 370 425 l 1
 370 360 l 1
 220 360 l 1
 220 300 l 1
 460 300 l 2
 560 300 660 300 660 185 c 2
 660 115 l 2
 660 0 560 0 460 0 c 2
 80 0 l 1
 80 360 l 1
 20 360 l 1
220 75 m 1
 470 75 l 2
 495 75 520 75 520 105 c 2
 520 195 l 2
 520 225 495 225 470 225 c 2
 220 225 l 1
 220 75 l 1
EndSplineSet
Validated: 1
EndChar

StartChar: afii10147
Encoding: 1138 1138 682
Width: 890
VWidth: 0
Flags: W
HStem: 0 85<222.083 667.917> 325 85<220 670> 575 85<222.083 667.917>
VStem: 70 150<90.4395 325 410 569.561> 670 150<90.4395 325 410 569.561>
LayerCount: 2
Fore
SplineSet
70 135 m 2
 70 525 l 2
 70 660 190 660 310 660 c 2
 580 660 l 2
 700 660 820 660 820 525 c 2
 820 135 l 2
 820 0 700 0 580 0 c 2
 310 0 l 2
 190 0 70 0 70 135 c 2
220 120 m 2
 220 85 250 85 280 85 c 2
 610 85 l 2
 640 85 670 85 670 120 c 2
 670 325 l 1
 220 325 l 1
 220 120 l 2
220 410 m 1
 670 410 l 1
 670 540 l 2
 670 575 640 575 610 575 c 2
 280 575 l 2
 250 575 220 575 220 540 c 2
 220 410 l 1
EndSplineSet
Validated: 1
EndChar

StartChar: afii10195
Encoding: 1139 1139 683
Width: 700
VWidth: 0
Flags: W
HStem: 0 75<204.409 495.591> 225 75<200 500> 405 75<204.409 495.591>
VStem: 60 140<77.041 225 300 402.959> 500 140<77.041 225 300 402.959>
LayerCount: 2
Fore
SplineSet
60 115 m 2
 60 365 l 2
 60 480 160 480 260 480 c 2
 440 480 l 2
 540 480 640 480 640 365 c 2
 640 115 l 2
 640 0 540 0 440 0 c 2
 260 0 l 2
 160 0 60 0 60 115 c 2
200 105 m 2
 200 75 225 75 250 75 c 2
 450 75 l 2
 475 75 500 75 500 105 c 2
 500 225 l 1
 200 225 l 1
 200 105 l 2
200 300 m 1
 500 300 l 1
 500 375 l 2
 500 405 475 405 450 405 c 2
 250 405 l 2
 225 405 200 405 200 375 c 2
 200 300 l 1
EndSplineSet
Validated: 1
EndChar

StartChar: afii10148
Encoding: 1140 1140 684
Width: 990
VWidth: 0
Flags: MW
HStem: 0 21G<340 550> 575 85<820.009 960>
VStem: 940 20G
LayerCount: 2
Fore
SplineSet
20 660 m 1
 175 660 l 1
 445 120 l 1
 655 540 l 2
 685 600 715 660 825 660 c 2
 960 660 l 1
 960 575 l 1
 880 575 l 2
 830 575 820 560 800 520 c 2
 540 0 l 1
 350 0 l 1
 20 660 l 1
EndSplineSet
Validated: 1
EndChar

StartChar: afii10196
Encoding: 1141 1141 685
Width: 780
VWidth: 0
Flags: MW
HStem: 0 21G<250 430> 405 75<613.598 720>
VStem: 700 20G
LayerCount: 2
Fore
SplineSet
20 480 m 1
 160 480 l 1
 340 120 l 1
 468 376 l 2
 498 436 523 480 618 480 c 2
 720 480 l 1
 720 405 l 1
 668 405 l 2
 623 405 618 396 603 366 c 2
 420 0 l 1
 260 0 l 1
 20 480 l 1
EndSplineSet
EndChar

StartChar: uni203D
Encoding: 8253 8253 688
Width: 850
VWidth: 0
Flags: MW
HStem: 0 120<265 415> 225 21G<265 415> 325 85<417.083 622.917> 575 85<75 265 415 622.917>
VStem: 265 150<0 120 225 321.395 410 575> 625 150<415.439 569.561>
LayerCount: 2
Fore
SplineSet
75 575 m 1
 75 660 l 1
 535 660 l 2
 655 660 775 660 775 525 c 2
 775 460 l 2
 775 325 655 325 535 325 c 2
 475 325 l 2
 445 325 415 325 415 290 c 2
 415 225 l 1
 265 225 l 1
 265 575 l 1
 75 575 l 1
265 0 m 1
 265 120 l 1
 415 120 l 1
 415 0 l 1
 265 0 l 1
415 410 m 1
 565 410 l 2
 595 410 625 410 625 445 c 2
 625 540 l 2
 625 575 595 575 565 575 c 2
 415 575 l 1
 415 410 l 1
EndSplineSet
Validated: 1
EndChar

StartChar: uni2070
Encoding: 8304 8304 690
Width: 540
VWidth: 0
Flags: MW
VStem: 60 120<383.581 596.419> 360 120<383.581 596.419>
LayerCount: 2
Fore
SplineSet
60 410 m 2
 60 570 l 2
 60 660 140 660 220 660 c 2
 320 660 l 2
 400 660 480 660 480 570 c 2
 480 410 l 2
 480 320 400 320 320 320 c 2
 220 320 l 2
 140 320 60 320 60 410 c 2
180 405 m 2
 180 380 200 380 220 380 c 2
 320 380 l 2
 340 380 360 380 360 405 c 2
 360 575 l 2
 360 600 340 600 320 600 c 2
 220 600 l 2
 200 600 180 600 180 575 c 2
 180 405 l 2
EndSplineSet
Validated: 1
EndChar

StartChar: uni2074
Encoding: 8308 8308 691
Width: 540
VWidth: 0
Flags: MW
HStem: 390 60<189 360> 640 20G<304.286 480>
VStem: 60 21G 360 120<320 390 450 583>
LayerCount: 2
Fore
SplineSet
60 390 m 1
 60 450 l 1
 330 660 l 1
 480 660 l 1
 480 320 l 1
 360 320 l 1
 360 390 l 1
 60 390 l 1
189 450 m 1
 360 450 l 1
 360 583 l 1
 189 450 l 1
EndSplineSet
EndChar

StartChar: uni2075
Encoding: 8309 8309 692
Width: 540
VWidth: 0
Flags: W
HStem: 320 60<60 357.195> 475 60<180 357.195> 600 60<180 460>
VStem: 60 120<535 600> 360 120<383.581 471.419>
LayerCount: 2
Fore
SplineSet
60 320 m 1
 60 380 l 1
 320 380 l 2
 340 380 360 380 360 405 c 2
 360 450 l 2
 360 475 340 475 320 475 c 2
 60 475 l 1
 60 660 l 1
 460 660 l 1
 460 600 l 1
 180 600 l 1
 180 535 l 1
 320 535 l 2
 400 535 480 535 480 445 c 2
 480 410 l 2
 480 320 400 320 320 320 c 2
 60 320 l 1
EndSplineSet
Validated: 1
EndChar

StartChar: uni2076
Encoding: 8310 8310 693
Width: 540
VWidth: 0
Flags: W
HStem: 320 60<182.805 357.195> 475 60<180.13 357.195> 600 60<181.88 460>
VStem: 60 120<383.581 474.237 535 596.533> 360 120<383.581 471.419>
LayerCount: 2
Fore
SplineSet
60 410 m 2
 60 560 l 2
 60 660 150 660 240 660 c 2
 460 660 l 1
 460 600 l 1
 230 600 l 2
 205 600 180 600 180 570 c 2
 180 535 l 1
 320 535 l 2
 400 535 480 535 480 445 c 2
 480 410 l 2
 480 320 400 320 320 320 c 2
 220 320 l 2
 140 320 60 320 60 410 c 2
180 405 m 2
 180 380 200 380 220 380 c 2
 320 380 l 2
 340 380 360 380 360 405 c 2
 360 450 l 2
 360 475 340 475 320 475 c 2
 220 475 l 2
 200 475 180 475 180 450 c 2
 180 405 l 2
EndSplineSet
Validated: 1
EndChar

StartChar: uni2077
Encoding: 8311 8311 694
Width: 540
VWidth: 0
Flags: MW
HStem: 600 60<60 350>
VStem: 60 420<660 660>
LayerCount: 2
Fore
SplineSet
60 600 m 1
 60 660 l 1
 480 660 l 1
 480 600 l 1
 300 320 l 1
 170 320 l 1
 350 600 l 1
 60 600 l 1
EndSplineSet
Validated: 1
EndChar

StartChar: uni2078
Encoding: 8312 8312 695
Width: 540
VWidth: 0
Flags: W
HStem: 320 60<182.805 357.195> 475 60<180.13 359.87> 600 60<182.805 357.195>
VStem: 60 120<383.581 474.009 535.991 596.419> 360 120<383.581 474.009 535.991 596.419>
LayerCount: 2
Fore
SplineSet
60 410 m 2
 60 440 l 2
 60 485 100 500 120 505 c 1
 100 510 60 525 60 570 c 3
 60 660 140 660 220 660 c 2
 320 660 l 2
 400 660 480 660 480 570 c 3
 480 525 440 510 420 505 c 1
 440 500 480 485 480 440 c 2
 480 410 l 2
 480 320 400 320 320 320 c 2
 220 320 l 2
 140 320 60 320 60 410 c 2
180 405 m 2
 180 380 200 380 220 380 c 2
 320 380 l 2
 340 380 360 380 360 405 c 2
 360 450 l 2
 360 475 340 475 320 475 c 2
 220 475 l 2
 200 475 180 475 180 450 c 2
 180 405 l 2
180 560 m 2
 180 535 200 535 220 535 c 2
 320 535 l 2
 340 535 360 535 360 560 c 2
 360 575 l 2
 360 600 340 600 320 600 c 2
 220 600 l 2
 200 600 180 600 180 575 c 2
 180 560 l 2
EndSplineSet
Validated: 1
EndChar

StartChar: uni2079
Encoding: 8313 8313 696
Width: 540
VWidth: 0
Flags: W
HStem: 320 60<80 358.12> 475 60<182.805 359.87> 600 60<182.805 357.195>
VStem: 60 120<538.581 596.419> 360 120<383.467 475 535.763 596.419>
LayerCount: 2
Fore
SplineSet
60 565 m 2
 60 570 l 2
 60 660 140 660 220 660 c 2
 320 660 l 2
 400 660 480 660 480 570 c 2
 480 420 l 2
 480 320 390 320 300 320 c 2
 80 320 l 1
 80 380 l 1
 310 380 l 2
 335 380 360 380 360 410 c 2
 360 475 l 1
 220 475 l 2
 140 475 60 475 60 565 c 2
180 560 m 2
 180 535 200 535 220 535 c 2
 320 535 l 2
 340 535 360 535 360 560 c 2
 360 575 l 2
 360 600 340 600 320 600 c 2
 220 600 l 2
 200 600 180 600 180 575 c 2
 180 560 l 2
EndSplineSet
Validated: 1
EndChar

StartChar: uni207A
Encoding: 8314 8314 697
Width: 460
VWidth: 0
Flags: W
HStem: 410 70<60 180 280 400>
VStem: 180 100<320 410 480 570>
LayerCount: 2
Fore
SplineSet
60 410 m 1
 60 480 l 1
 180 480 l 1
 180 570 l 1
 280 570 l 1
 280 480 l 1
 400 480 l 1
 400 410 l 1
 280 410 l 1
 280 320 l 1
 180 320 l 1
 180 410 l 1
 60 410 l 1
EndSplineSet
Validated: 1
EndChar

StartChar: uni207B
Encoding: 8315 8315 698
Width: 420
VWidth: 0
Flags: W
HStem: 410 70<60 360>
VStem: 60 300<410 480>
LayerCount: 2
Fore
SplineSet
60 410 m 1
 60 480 l 1
 360 480 l 1
 360 410 l 1
 60 410 l 1
EndSplineSet
Validated: 1
EndChar

StartChar: uni207C
Encoding: 8316 8316 699
Width: 460
VWidth: 0
Flags: MW
HStem: 340 70<60 400> 480 70<60 400>
VStem: 60 340<550 550>
LayerCount: 2
Fore
SplineSet
60 340 m 1
 60 410 l 1
 400 410 l 1
 400 340 l 1
 60 340 l 1
60 480 m 1
 60 550 l 1
 400 550 l 1
 400 480 l 1
 60 480 l 1
EndSplineSet
Validated: 1
EndChar

StartChar: uni207D
Encoding: 8317 8317 700
Width: 295
VWidth: 0
Flags: MW
HStem: 200 21G<117.5 235> 640 20G<117.5 235>
VStem: 60 100<308.438 551.562>
LayerCount: 2
Fore
SplineSet
60 430 m 3
 60 515 90 595 145 660 c 1
 235 660 l 1
 185 590 160 515 160 430 c 3
 160 345 185 270 235 200 c 1
 145 200 l 1
 90 265 60 345 60 430 c 3
EndSplineSet
Validated: 1
EndChar

StartChar: uni207E
Encoding: 8318 8318 701
Width: 295
VWidth: 0
Flags: MW
HStem: 200 21G<60 177.5> 640 20G<60 177.5>
VStem: 135 100<308.438 551.562>
LayerCount: 2
Fore
SplineSet
60 200 m 1
 110 270 135 345 135 430 c 3
 135 515 110 590 60 660 c 1
 150 660 l 1
 205 595 235 515 235 430 c 3
 235 345 205 265 150 200 c 1
 60 200 l 1
EndSplineSet
Validated: 1
EndChar

StartChar: uni207F
Encoding: 8319 8319 702
Width: 540
VWidth: 0
Flags: W
HStem: 600 60<180 357.195>
VStem: 60 120<320 600> 360 120<320 596.419>
LayerCount: 2
Fore
SplineSet
60 320 m 1
 60 660 l 1
 320 660 l 2
 400 660 480 660 480 570 c 2
 480 320 l 1
 360 320 l 1
 360 575 l 2
 360 600 340 600 320 600 c 2
 180 600 l 1
 180 320 l 1
 60 320 l 1
EndSplineSet
Validated: 1
EndChar

StartChar: lira
Encoding: 8356 8356 718
Width: 890
VWidth: 0
Flags: MW
HStem: 0 85<70 170 320 820> 225 75<70 170 320 570> 300 60 360 75<70 170 320 570> 575 85<322.083 667.917>
VStem: 170 150<85 225 300 360 435 569.561> 670 150<490 569.561>
LayerCount: 2
Fore
SplineSet
70 0 m 1
 70 85 l 1
 170 85 l 1
 170 225 l 1
 70 225 l 1
 70 300 l 1
 170 300 l 1x20
 170 360 l 1x20
 70 360 l 1
 70 435 l 1
 170 435 l 1
 170 525 l 2
 170 660 290 660 410 660 c 2
 580 660 l 2
 700 660 820 660 820 525 c 2
 820 490 l 1
 670 490 l 1
 670 540 l 2
 670 575 640 575 610 575 c 2
 380 575 l 2
 350 575 320 575 320 540 c 2
 320 435 l 1
 570 435 l 1
 570 360 l 1
 320 360 l 1x20
 320 300 l 1x20
 570 300 l 1
 570 225 l 1
 320 225 l 1
 320 85 l 1
 820 85 l 1
 820 0 l 1
 70 0 l 1
EndSplineSet
Validated: 1
EndChar

StartChar: afii61248
Encoding: 8453 8453 719
Width: 1190
VWidth: 0
Flags: MW
HStem: 0 21G<370 500 830 1010> 640 20G<180 460 690 820>
VStem: 60 120<383.581 596.419> 710 120<63.581 276.419> 1010 120<63.581 276.419>
LayerCount: 2
Fore
SplineSet
60 410 m 2
 60 570 l 2
 60 660 140 660 220 660 c 2
 460 660 l 1
 460 600 l 1
 220 600 l 2
 200 600 180 600 180 575 c 2
 180 405 l 2
 180 380 200 380 220 380 c 2
 460 380 l 1
 460 320 l 1
 220 320 l 2
 140 320 60 320 60 410 c 2
370 0 m 1
 700 660 l 1
 820 660 l 1
 490 0 l 1
 370 0 l 1
710 90 m 2
 710 250 l 2
 710 340 790 340 870 340 c 2
 970 340 l 2
 1050 340 1130 340 1130 250 c 2
 1130 90 l 2
 1130 0 1050 0 970 0 c 2
 870 0 l 2
 790 0 710 0 710 90 c 2
830 85 m 2
 830 60 850 60 870 60 c 2
 970 60 l 2
 990 60 1010 60 1010 85 c 2
 1010 255 l 2
 1010 280 990 280 970 280 c 2
 870 280 l 2
 850 280 830 280 830 255 c 2
 830 85 l 2
EndSplineSet
Validated: 1
EndChar

StartChar: uni2117
Encoding: 8471 8471 720
Width: 1020
VWidth: 0
Flags: MW
HStem: 0 60<190.975 829.025> 160 21G<300 420> 295 60<420 598.052> 440 60<420 597.195> 600 60<190.975 829.025>
VStem: 60 120<72.9871 587.013> 300 120<160 295 355 440> 600 120<358.164 436.419> 840 120<72.9871 587.013>
LayerCount: 2
Fore
SplineSet
60 115 m 2
 60 545 l 2
 60 660 160 660 260 660 c 2
 760 660 l 2
 860 660 960 660 960 545 c 2
 960 115 l 2
 960 0 860 0 760 0 c 2
 260 0 l 2
 160 0 60 0 60 115 c 2
180 115 m 2
 180 60 230 60 280 60 c 2
 740 60 l 2
 790 60 840 60 840 115 c 2
 840 545 l 2
 840 600 790 600 740 600 c 2
 280 600 l 2
 230 600 180 600 180 545 c 2
 180 115 l 2
300 160 m 1
 300 500 l 1
 560 500 l 2
 640 500 720 500 720 410 c 2
 720 385 l 2
 720 305 655 295 585 295 c 2
 420 295 l 1
 420 160 l 1
 300 160 l 1
420 355 m 1
 560 355 l 2
 580 355 600 355 600 380 c 2
 600 415 l 2
 600 440 580 440 560 440 c 2
 420 440 l 1
 420 355 l 1
EndSplineSet
Validated: 1
EndChar

StartChar: orthogonal
Encoding: 8735 8735 725
Width: 780
VWidth: 0
Flags: MW
HStem: 0 100<160 720> 640 20G<60 160>
VStem: 60 100<100 660> 700 20G
LayerCount: 2
Fore
SplineSet
60 0 m 1
 60 660 l 1
 160 660 l 1
 160 100 l 1
 720 100 l 1
 720 0 l 1
 60 0 l 1
EndSplineSet
Validated: 1
EndChar

StartChar: .notdef
Encoding: 1114112 -1 729
Width: 700
VWidth: 0
Flags: W
HStem: 0 50<200 500> 610 50<200 500>
VStem: 100 100<50 610> 500 100<50 610>
LayerCount: 2
Fore
SplineSet
100 0 m 1
 100 660 l 1
 600 660 l 1
 600 0 l 1
 100 0 l 1
200 50 m 1
 500 50 l 1
 500 610 l 1
 200 610 l 1
 200 50 l 1
EndSplineSet
Validated: 1
EndChar

StartChar: arrowleft
Encoding: 8592 8592 730
Width: 780
VWidth: 0
Flags: MW
HStem: 0 21G<280 440> 180 120<280 720> 460 20G<280 440>
VStem: 60 380 700 20G
LayerCount: 2
Fore
SplineSet
60 240 m 1
 300 480 l 1
 440 480 l 1
 280 300 l 1
 720 300 l 1
 720 180 l 1
 280 180 l 1
 440 0 l 1
 300 0 l 1
 60 240 l 1
EndSplineSet
EndChar

StartChar: arrowright
Encoding: 8594 8594 731
Width: 780
VWidth: 0
Flags: MW
HStem: 0 21G<340 500> 180 120<60 500> 460 20G<340 500>
VStem: 60 21G 340 380
LayerCount: 2
Fore
SplineSet
60 180 m 1
 60 300 l 1
 500 300 l 1
 340 480 l 1
 480 480 l 1
 720 240 l 1
 480 0 l 1
 340 0 l 1
 500 180 l 1
 60 180 l 1
EndSplineSet
EndChar

StartChar: arrowup
Encoding: 8593 8593 732
Width: 600
VWidth: 0
Flags: MW
HStem: 0 21G<240 360> 280 380
VStem: 60 21G 240 120<0 440> 520 20G
LayerCount: 2
Fore
SplineSet
60 280 m 1
 60 420 l 1
 300 660 l 1
 540 420 l 1
 540 280 l 1
 360 440 l 1
 360 0 l 1
 240 0 l 1
 240 440 l 1
 60 280 l 1
EndSplineSet
EndChar

StartChar: arrowdown
Encoding: 8595 8595 733
Width: 600
VWidth: 0
Flags: MW
HStem: 0 380 640 20G<240 360>
VStem: 60 21G 240 120<220 660> 520 20G
LayerCount: 2
Fore
SplineSet
60 240 m 1
 60 380 l 1
 240 220 l 1
 240 660 l 1
 360 660 l 1
 360 220 l 1
 540 380 l 1
 540 240 l 1
 300 0 l 1
 60 240 l 1
EndSplineSet
EndChar

StartChar: uni2770
Encoding: 10096 10096 734
Width: 645
VWidth: 0
Flags: MW
HStem: -225 21G<390.169 585> 640 20G<390 585>
VStem: 75 290<210.561 229.333>
LayerCount: 2
Fore
SplineSet
75 220 m 1
 405 660 l 1
 585 660 l 1
 365 220 l 1
 585 -225 l 1
 405 -225 l 1
 75 220 l 1
EndSplineSet
EndChar

StartChar: uni2771
Encoding: 10097 10097 735
Width: 645
VWidth: 0
Flags: MW
HStem: -225 21G<60 254.831> 640 20G<60 255>
VStem: 280 290<210.561 229.333>
LayerCount: 2
Fore
SplineSet
60 -225 m 1
 280 220 l 1
 60 660 l 1
 240 660 l 1
 570 220 l 1
 240 -225 l 1
 60 -225 l 1
EndSplineSet
EndChar

StartChar: uni2772
Encoding: 10098 10098 736
Width: 455
VWidth: 0
Flags: W
HStem: -225 21G<325 375> 640 20G<325 375>
VStem: 75 120<-20 455>
LayerCount: 2
Fore
SplineSet
75 -80 m 1
 75 515 l 1
 365 660 l 1
 395 600 l 1
 195 455 l 1
 195 -20 l 1
 395 -165 l 1
 365 -225 l 1
 75 -80 l 1
EndSplineSet
EndChar

StartChar: uni2773
Encoding: 10099 10099 737
Width: 455
VWidth: 0
Flags: W
HStem: -225 21G<80 130> 640 20G<80 130>
VStem: 260 120<-20 455>
LayerCount: 2
Fore
SplineSet
60 -165 m 1
 260 -20 l 1
 260 455 l 1
 60 600 l 1
 90 660 l 1
 380 515 l 1
 380 -80 l 1
 90 -225 l 1
 60 -165 l 1
EndSplineSet
EndChar
